<svg width="24" height="18" viewBox="0 0 24 18" fill="none" xmlns="http://www.w3.org/2000/svg">
<path fill-rule="evenodd" clip-rule="evenodd" d="M17.5643 0H19.1732V1.60894H17.5643V0ZM20.7821 3.21788H19.1732V1.60894L20.7821 1.60894V3.21788ZM22.3911 4.82681H20.7821L20.7821 3.21788L22.3911 3.21787V4.82681ZM22.3911 4.82681L24 4.82681V12.7374H22.3911V4.82681ZM8.04469 1.60894H9.65362L9.65362 0H11.2626L11.2626 6.43575H12.8715V11.2626H11.2626L11.2626 16.0894L9.65362 16.0894H8.04469L8.04469 14.4804L9.65362 14.4804L9.65362 9.65362H11.2626V8.04469H9.65362L9.65362 3.21788H8.04469V1.60894ZM6.43575 4.82681V3.21787L8.04469 3.21788L8.04469 4.82681H6.43575ZM4.82681 6.43575V4.82681L6.43575 4.82681L6.43575 6.43575H4.82681ZM4.82682 11.2626H0V9.65362V8.04469V6.43575L4.82681 6.43575L4.82682 8.04469L1.60894 8.04469V9.65362L4.82682 9.65362V11.2626ZM6.43575 12.8715H4.82681L4.82682 11.2626L6.43575 11.2626V12.8715ZM6.43575 12.8715L6.43575 14.4804H8.04469V12.8715L6.43575 12.8715ZM16.0894 6.43575H14.4804V8.04469H16.0894V9.65362H14.4804V11.2626H16.0894V9.65362L17.6983 9.65362V8.04469L16.0894 8.04469V6.43575ZM20.7821 12.7374H22.3911V14.3464H20.7821V12.7374ZM19.1732 15.9553V14.3464L20.7821 14.3464L20.7821 15.9553H19.1732ZM19.1732 15.9553V17.5643H17.5643V15.9553L19.1732 15.9553ZM15.9553 3.21787H17.5643V4.82681H15.9553V3.21787ZM19.3072 4.69276H17.6983V6.30169H19.3072V11.1285L17.6983 11.1285L17.6983 12.7374H16.0894V14.3464H17.6983V12.7374L19.3072 12.7374V11.1285H20.9162V6.30169L19.3072 6.30169V4.69276Z" fill="black"/>
</svg>
