<svg width="24" height="18" viewBox="0 0 24 18" fill="none" xmlns="http://www.w3.org/2000/svg">
<path fill-rule="evenodd" clip-rule="evenodd" d="M12 0H10.2857L10.2857 1.71428H8.57142V3.42857L6.85714 3.42857V5.14285L5.14285 5.14285V6.85714L0 6.85714V8.57142V10.2857V12H5.14286L5.14285 13.7143H6.85714L6.85714 15.4286H8.57142L8.57142 17.1428H10.2857L12 17.1428L12 12H13.7143V6.85714H12L12 0ZM12 8.57143V10.2857H10.2857L10.2857 15.4286L8.57142 15.4286V13.7143L6.85714 13.7143V12L5.14286 12V10.2857L1.71429 10.2857V8.57142L5.14286 8.57142L5.14285 6.85714H6.85714L6.85714 5.14285H8.57142L8.57142 3.42857H10.2857L10.2857 8.57143H12ZM17.1428 5.14285H15.4286V6.85714H17.1428V8.57142H18.8571V10.2857H17.1428V12H15.4286V13.7143H17.1428V12L18.8571 12V10.2857H20.5714V12L22.2857 12V13.7143H24V12H22.2857V10.2857H20.5714V8.57142H22.2857V6.85714H24V5.14285H22.2857V6.85714L20.5714 6.85714V8.57142H18.8571V6.85714L17.1428 6.85714V5.14285Z" fill="black"/>
</svg>
