<svg width="49" height="52" viewBox="0 0 49 52" fill="none" xmlns="http://www.w3.org/2000/svg">
<rect x="15.4808" y="12.5478" width="9.17197" height="6.42038" fill="black"/>
<rect x="9.672" y="21.7197" width="26.9045" height="20.7898" fill="#444444"/>
<rect x="18.5382" y="42.2038" width="11.9236" height="3.05732" fill="#444444"/>
<rect x="18.844" y="18.9682" width="11.9236" height="3.05732" fill="#444444"/>
<rect x="9.672" y="15.6051" width="5.80892" height="6.11465" fill="black"/>
<rect x="6.61462" y="18.6624" width="3.05732" height="2.75159" fill="black"/>
<rect x="15.4808" y="18.6624" width="3.36306" height="3.05732" fill="black"/>
<rect x="9.672" y="21.7197" width="3.05732" height="3.05732" fill="black"/>
<rect x="3.55737" y="39.4522" width="3.36306" height="3.05732" fill="black"/>
<rect x="9.672" y="45.2611" width="2.75159" height="3.05732" fill="black"/>
<rect x="15.4808" y="48.0127" width="3.05732" height="3.36306" fill="black"/>
<rect x="24.3472" y="45.2611" width="6.42038" height="3.05732" fill="black"/>
<rect x="30.4618" y="42.2038" width="3.05732" height="3.36306" fill="black"/>
<rect x="33.2134" y="39.4522" width="3.36306" height="3.05732" fill="black"/>
<rect x="36.2708" y="27.5287" width="3.36306" height="12.2293" fill="black"/>
<rect x="33.2134" y="21.414" width="3.36306" height="6.42038" fill="black"/>
<rect x="27.0988" y="27.2229" width="3.36306" height="6.42038" fill="white"/>
<rect x="30.4618" y="18.6624" width="3.05732" height="3.05732" fill="black"/>
<rect x="24.3472" y="24.4713" width="3.36306" height="3.36306" fill="white"/>
<rect x="21.2898" y="3.68153" width="3.36306" height="3.36306" fill="black"/>
<rect x="33.2134" y="3.68153" width="3.05732" height="3.05732" fill="black"/>
<rect x="36.2708" y="3.68153" width="3.05732" height="3.05732" fill="#FFDF41"/>
<rect x="39.328" y="0.929935" width="3.05732" height="3.05732" fill="#FFDF41"/>
<rect x="42.3854" y="3.68153" width="3.05732" height="3.05732" fill="#FFDF41"/>
<rect x="45.4426" y="6.73885" width="3.05732" height="3.05732" fill="#FFDF41"/>
<rect x="42.3854" y="9.79618" width="3.05732" height="3.05732" fill="#FFDF41"/>
<rect x="39.328" y="12.8535" width="3.05732" height="3.05732" fill="#FFDF41"/>
<rect x="36.2708" y="9.79618" width="3.05732" height="3.05732" fill="#FFDF41"/>
<rect x="33.2134" y="6.73885" width="3.05732" height="3.05732" fill="#FFDF41"/>
<rect x="39.328" y="3.68153" width="3.05732" height="9.17197" fill="#FF071D"/>
<rect x="36.2708" y="6.73885" width="3.05732" height="3.05732" fill="#FF071D"/>
<rect x="42.3854" y="6.73885" width="3.05732" height="3.05732" fill="#FF071D"/>
<rect x="18.5382" y="6.73885" width="3.05732" height="6.11465" fill="black"/>
<rect x="24.6528" y="15.6051" width="6.11465" height="3.36306" fill="black"/>
<rect x="24.3472" y="0.624203" width="9.17197" height="3.36306" fill="black"/>
<rect x="3.55737" y="21.414" width="6.11465" height="5.80892" fill="black"/>
<rect x="6.61462" y="39.4522" width="5.80892" height="6.11465" fill="black"/>
<rect x="12.4236" y="42.2038" width="6.11465" height="6.11465" fill="black"/>
<rect x="18.5382" y="45.2611" width="6.11465" height="6.11465" fill="black"/>
<rect x="0.5" y="27.2229" width="9.17197" height="12.535" fill="black"/>
</svg>
