<svg width="429" height="263" viewBox="0 0 429 263" fill="none" xmlns="http://www.w3.org/2000/svg">
<path fill-rule="evenodd" clip-rule="evenodd" d="M253.759 91.3224C253.759 87.9684 257.639 86.1037 260.258 88.199L284.693 107.747L306.347 107.747L329.158 88.5381C331.759 86.3474 335.734 88.1967 335.734 91.5977V107.747V120.833C377.131 123.606 409.973 150.977 412.2 184.971C417.139 192.745 420 201.97 420 211.863C420 239.595 397.518 262.077 369.786 262.077C364.263 262.077 359.786 257.6 359.786 252.077C359.786 246.554 364.263 242.077 369.786 242.077C386.473 242.077 400 228.55 400 211.863C400 211.025 399.966 210.196 399.899 209.376C389.346 213.399 373.293 211.31 356.622 209.14C346.4 207.81 335.946 206.449 326.385 206.449C316.371 206.449 306.266 207.942 296.875 209.329C283.99 211.232 272.449 212.936 264.331 210.316H250.192C243.785 210.316 238.592 205.123 238.592 198.716C238.592 192.309 243.785 187.116 250.192 187.116H252.232C252.22 184.674 252.18 182.265 252.141 179.893C251.976 169.899 251.822 160.583 253.759 152.433V107.747V91.3224Z" fill="white"/>
<path d="M341.079 168.555C341.079 168.555 355.115 214.102 408.569 183.163C416.303 163.056 382.675 120.89 336.547 120.89C337.321 152.597 337.986 153.862 341.079 168.555Z" fill="#827B79"/>
<path d="M369.786 262.077C364.263 262.077 359.786 257.6 359.786 252.077C359.786 246.554 364.263 242.077 369.786 242.077V262.077ZM369.786 242.077C377.764 242.077 385.001 238.998 390.409 233.944L404.065 248.556C395.1 256.935 383.032 262.077 369.786 262.077V242.077Z" fill="#827B79"/>
<path d="M253.759 91.3225V107.747C253.759 107.747 253.01 125.248 256.103 125.248C269.56 125.248 284.693 107.747 284.693 107.747L260.258 88.199C257.639 86.1038 253.759 87.9684 253.759 91.3225Z" fill="#827B79"/>
<path d="M331.094 98.0154V107.52C331.094 108.073 330.647 108.52 330.094 108.52H315.837C314.847 108.52 314.459 107.237 315.282 106.688L329.54 97.1833C330.204 96.7403 331.094 97.2167 331.094 98.0154Z" fill="#FFC0CB"/>
<path d="M258.399 97.2419V106.747C258.399 107.299 258.847 107.747 259.399 107.747H273.657C274.646 107.747 275.035 106.464 274.212 105.915L259.954 96.4099C259.289 95.9668 258.399 96.4432 258.399 97.2419Z" fill="#FFC0CB"/>
<path d="M295.33 145.783C295.33 156.182 295.33 155.063 300.743 155.063" stroke="#5A5351" stroke-width="2" stroke-linecap="round"/>
<path d="M295.33 145.783C295.33 156.182 295.33 155.063 289.916 155.063" stroke="#5A5351" stroke-width="2" stroke-linecap="round"/>
<path d="M290.416 141.916C290.416 142.78 290.906 143.61 291.792 144.243C292.678 144.876 293.927 145.283 295.33 145.283C296.732 145.283 297.981 144.876 298.867 144.243C299.754 143.61 300.243 142.78 300.243 141.916C300.243 141.051 299.754 140.222 298.867 139.588C297.981 138.956 296.732 138.549 295.33 138.549C293.927 138.549 292.678 138.956 291.792 139.588C290.906 140.222 290.416 141.051 290.416 141.916Z" fill="#5A5351" stroke="#5A5351"/>
<path d="M306.371 133.896C306.371 138.167 310.18 141.63 314.878 141.63C319.576 141.63 323.385 138.167 323.385 133.896" stroke="#5A5351" stroke-width="3" stroke-linecap="round"/>
<line x1="1" y1="-1" x2="4.5767" y2="-1" transform="matrix(-0.554702 -0.832049 -0.832052 0.554698 320.291 149.363)" stroke="#5A5351" stroke-width="2" stroke-linecap="round"/>
<line x1="1" y1="-1" x2="4.5767" y2="-1" transform="matrix(-0.554702 -0.832049 -0.832052 0.554698 324.931 147.817)" stroke="#5A5351" stroke-width="2" stroke-linecap="round"/>
<path d="M267.703 133.896C267.703 138.167 271.512 141.63 276.21 141.63C280.908 141.63 284.717 138.167 284.717 133.896" stroke="#5A5351" stroke-width="3" stroke-linecap="round"/>
<line x1="1" y1="-1" x2="4.5767" y2="-1" transform="matrix(0.554702 -0.832049 0.832052 0.554698 269.25 149.363)" stroke="#5A5351" stroke-width="2" stroke-linecap="round"/>
<line x1="1" y1="-1" x2="4.5767" y2="-1" transform="matrix(0.554702 -0.832049 0.832052 0.554698 264.61 147.817)" stroke="#5A5351" stroke-width="2" stroke-linecap="round"/>
<path fill-rule="evenodd" clip-rule="evenodd" d="M187.031 12.0075V29.228H155.102L180.532 8.88404C183.151 6.78879 187.031 8.65348 187.031 12.0075ZM102.42 29.228V12.2828C102.42 8.8818 106.395 7.03244 108.996 9.22315L132.752 29.228H102.42ZM102.42 29.228H187.031V72.3317L187.031 154.907C187.031 164.848 178.972 172.907 169.031 172.907H66.1571C66.0962 172.915 66.0351 172.923 65.9738 172.931C65.9293 172.923 65.8849 172.915 65.8405 172.907H65.7017V172.882C29.1456 166.179 15.2827 124.22 12.4421 111.655C8.31303 93.3907 34.2525 82.93 42.5487 108.274C45.5785 119.829 51.9144 135.698 65.7017 140.962V100.946C65.7017 81.616 81.3718 65.9459 100.702 65.9459H102.42V29.228Z" fill="#22201D"/>
<path d="M144.725 73.9281C144.725 80.3138 142.224 83.5067 139.138 83.5067" stroke="#FFF6E4" stroke-width="2" stroke-linecap="round"/>
<path d="M144.725 73.9281C144.725 80.3138 147.227 83.5067 150.313 83.5067" stroke="#FFF6E4" stroke-width="2" stroke-linecap="round"/>
<path d="M149.813 69.937C149.813 70.8357 149.304 71.6965 148.386 72.3523C147.469 73.0073 146.176 73.4281 144.725 73.4281C143.274 73.4281 141.982 73.0073 141.065 72.3523C140.147 71.6965 139.638 70.8357 139.638 69.937C139.638 69.0383 140.147 68.1775 141.065 67.5218C141.982 66.8667 143.274 66.4459 144.725 66.4459C146.176 66.4459 147.469 66.8667 148.386 67.5218C149.304 68.1775 149.813 69.0383 149.813 69.937Z" fill="#FFF6E4" stroke="#FFF6E4"/>
<path d="M107.209 19.1233V29.0262C107.209 29.5785 107.657 30.0262 108.209 30.0262H123.063C124.053 30.0262 124.441 28.743 123.618 28.1942L108.764 18.2912C108.099 17.8482 107.209 18.3246 107.209 19.1233Z" fill="#FFF6E4"/>
<path d="M182.241 18.3251V28.228C182.241 28.7803 181.794 29.228 181.241 29.228H166.387C165.397 29.228 165.009 27.9448 165.832 27.396L180.687 17.493C181.351 17.05 182.241 17.5264 182.241 18.3251Z" fill="#FFF6E4"/>
<path d="M133.329 61.6596C133.329 66.068 129.398 69.6417 124.548 69.6417C119.699 69.6417 115.768 66.068 115.768 61.6596" stroke="#8B8483" stroke-width="3" stroke-linecap="round"/>
<line x1="118.684" y1="76.2372" x2="120.767" y2="73.112" stroke="#FFF6E4" stroke-width="2" stroke-linecap="round"/>
<line x1="113.894" y1="74.6407" x2="115.978" y2="71.5155" stroke="#FFF6E4" stroke-width="2" stroke-linecap="round"/>
<path d="M173.24 61.6596C173.24 66.068 169.309 69.6417 164.459 69.6417C159.61 69.6417 155.679 66.068 155.679 61.6596" stroke="#8B8483" stroke-width="3" stroke-linecap="round"/>
<line x1="1" y1="-1" x2="4.75602" y2="-1" transform="matrix(-0.5547 -0.83205 -0.83205 0.5547 171.643 77.6239)" stroke="#FFF6E4" stroke-width="2" stroke-linecap="round"/>
<line x1="1" y1="-1" x2="4.75602" y2="-1" transform="matrix(-0.5547 -0.83205 -0.83205 0.5547 176.433 76.0275)" stroke="#FFF6E4" stroke-width="2" stroke-linecap="round"/>
</svg>
