<svg width="412" height="213" viewBox="0 0 412 213" fill="none" xmlns="http://www.w3.org/2000/svg">
<path fill-rule="evenodd" clip-rule="evenodd" d="M247.194 56.1998V70.3084L247.194 102.892V108.558V179.808C247.194 189.75 255.253 197.808 265.194 197.808H349.829C349.881 197.816 349.933 197.823 349.985 197.83C350.023 197.823 350.06 197.815 350.098 197.808H350.216V197.786C381.256 191.838 393.028 154.604 395.44 143.454C398.946 127.246 376.92 117.963 369.876 140.453C367.303 150.707 361.923 164.79 350.216 169.461V137.892C350.216 119.853 336.57 105.002 319.038 103.098V70.3084V56.4904C319.038 53.0484 314.979 51.2137 312.396 53.4877L293.283 70.3084H274.305L253.759 53.131C251.155 50.9538 247.194 52.8054 247.194 56.1998Z" fill="white"/>
<path fill-rule="evenodd" clip-rule="evenodd" d="M247.194 70.3085V56.1999C247.194 54.8072 247.861 53.6742 248.827 52.9726L253.387 52.8525C253.513 52.9368 253.638 53.0296 253.759 53.1312L274.305 70.3085H274.733C265.899 76.4746 254.022 80.778 247.194 79.1843L247.194 70.3085ZM247.194 129.199C249.731 130.796 251.926 132.851 253.461 135.475C259.425 145.675 265.456 176.06 262.971 188.338C262.29 191.701 257.913 192.531 251.917 191.963C248.984 188.76 247.194 184.493 247.194 179.808V129.199ZM392.351 154.08L370.381 138.962C377.913 118.391 398.865 127.616 395.44 143.454C394.905 145.924 393.912 149.674 392.351 154.08ZM350.216 169.042C348.876 170.377 347.149 171.186 344.961 171.338C336.685 171.915 307.704 162.13 304.993 151.505C302.282 140.88 307.998 129.995 315.837 119.63C319.604 114.649 325.952 110.303 331.763 107.042C342.748 112.947 350.216 124.547 350.216 137.892V169.042Z" fill="#827B79"/>
<path d="M283.115 109.975C283.115 115.642 285.24 118.475 287.86 118.475" stroke="#5A5351" stroke-width="2" stroke-linecap="round"/>
<path d="M283.116 109.975C283.116 115.642 280.991 118.475 278.371 118.475" stroke="#5A5351" stroke-width="2" stroke-linecap="round"/>
<path d="M278.871 106.434C278.871 107.218 279.296 107.967 280.06 108.537C280.824 109.108 281.902 109.475 283.115 109.475C284.328 109.475 285.407 109.108 286.171 108.537C286.935 107.967 287.36 107.218 287.36 106.434C287.36 105.649 286.935 104.9 286.171 104.33C285.407 103.759 284.328 103.392 283.115 103.392C281.902 103.392 280.824 103.759 280.06 104.33C279.296 104.9 278.871 105.649 278.871 106.434Z" fill="#5A5351" stroke="#5A5351"/>
<path d="M314.971 61.5988V70.0167C314.971 70.569 314.523 71.0167 313.971 71.0167H301.889C300.91 71.0167 300.514 69.7557 301.317 69.1962L313.4 60.7784C314.063 60.3164 314.971 60.7908 314.971 61.5988Z" fill="#FFC0CB"/>
<path d="M251.26 60.8906V69.3084C251.26 69.8607 251.708 70.3084 252.26 70.3084H264.342C265.321 70.3084 265.717 69.0475 264.914 68.4879L252.832 60.0701C252.169 59.6082 251.26 60.0826 251.26 60.8906Z" fill="#FFC0CB"/>
<path d="M292.793 99.0878C292.793 103 296.13 106.171 300.248 106.171C304.366 106.171 307.704 103 307.704 99.0878" stroke="#5A5351" stroke-width="2" stroke-linecap="round"/>
<line x1="1" y1="-1" x2="4.04109" y2="-1" transform="matrix(-0.537802 -0.843071 -0.820494 0.571655 304.992 113.255)" stroke="#5A5351" stroke-width="2" stroke-linecap="round"/>
<line x1="1" y1="-1" x2="4.04109" y2="-1" transform="matrix(-0.537802 -0.843071 -0.820494 0.571655 309.059 111.838)" stroke="#5A5351" stroke-width="2" stroke-linecap="round"/>
<path d="M258.904 99.0878C258.904 103 262.242 106.171 266.359 106.171C270.477 106.171 273.815 103 273.815 99.0878" stroke="#5A5351" stroke-width="2" stroke-linecap="round"/>
<line x1="1" y1="-1" x2="4.0411" y2="-1" transform="matrix(0.537804 -0.84307 0.820495 0.571654 260.259 113.255)" stroke="#5A5351" stroke-width="2" stroke-linecap="round"/>
<line x1="1" y1="-1" x2="4.0411" y2="-1" transform="matrix(0.537804 -0.84307 0.820495 0.571654 256.193 111.838)" stroke="#5A5351" stroke-width="2" stroke-linecap="round"/>
<path fill-rule="evenodd" clip-rule="evenodd" d="M164.888 13.7786V27.8872L164.888 60.4705V66.1372V137.387C164.888 147.328 156.829 155.387 146.888 155.387H62.2523C62.2005 155.394 62.1486 155.402 62.0966 155.408C62.0588 155.401 62.021 155.394 61.9833 155.387H61.8656V155.365C30.8252 149.417 19.054 112.183 16.642 101.033C13.1359 84.8249 35.1616 75.5421 42.2059 98.0323C44.7786 108.286 50.1585 122.368 61.8656 127.04V95.4705C61.8656 77.4322 75.5115 62.581 93.0434 60.6769V27.8872V14.0693C93.0434 10.6272 97.1021 8.79251 99.686 11.0665L118.799 27.8872H137.777L158.322 10.7099C160.926 8.53268 164.888 10.3843 164.888 13.7786Z" fill="#22201D"/>
<path d="M128.966 67.5537C128.966 73.2204 126.841 76.0537 124.221 76.0537" stroke="#8B8483" stroke-width="2" stroke-linecap="round"/>
<path d="M128.966 67.5537C128.966 73.2204 131.09 76.0537 133.71 76.0537" stroke="#8B8483" stroke-width="2" stroke-linecap="round"/>
<path d="M133.21 64.0121C133.21 64.7965 132.785 65.5455 132.021 66.1158C131.257 66.6861 130.179 67.0538 128.966 67.0538C127.753 67.0538 126.674 66.6861 125.91 66.1158C125.146 65.5455 124.721 64.7965 124.721 64.0121C124.721 63.2278 125.146 62.4788 125.91 61.9085C126.674 61.3381 127.753 60.9705 128.966 60.9705C130.179 60.9705 131.257 61.3381 132.021 61.9085C132.785 62.4788 133.21 63.2278 133.21 64.0121Z" fill="#8B8483" stroke="#8B8483"/>
<path d="M97.1099 19.1775V27.5953C97.1099 28.1476 97.5576 28.5953 98.1099 28.5953H110.192C111.171 28.5953 111.567 27.3344 110.764 26.7748L98.6815 18.357C98.0185 17.8951 97.1099 18.3694 97.1099 19.1775Z" fill="#FFF6E4"/>
<path d="M160.821 18.4692V26.887C160.821 27.4393 160.373 27.887 159.821 27.887H147.739C146.76 27.887 146.364 26.6261 147.167 26.0665L159.249 17.6487C159.912 17.1868 160.821 17.6612 160.821 18.4692Z" fill="#FFF6E4"/>
<path d="M119.289 56.6667C119.289 60.5787 115.951 63.75 111.833 63.75C107.716 63.75 104.378 60.5787 104.378 56.6667" stroke="#8B8483" stroke-width="2" stroke-linecap="round"/>
<line x1="1" y1="-1" x2="4.04109" y2="-1" transform="matrix(0.537802 -0.843071 0.820494 0.571655 107.089 70.8335)" stroke="#FFF6E4" stroke-width="2" stroke-linecap="round"/>
<line x1="1" y1="-1" x2="4.04109" y2="-1" transform="matrix(0.537801 -0.843072 0.820493 0.571656 103.022 69.4167)" stroke="#FFF6E4" stroke-width="2" stroke-linecap="round"/>
<path d="M153.178 56.6667C153.178 60.5787 149.84 63.75 145.722 63.75C141.605 63.75 138.267 60.5787 138.267 56.6667" stroke="#8B8483" stroke-width="2" stroke-linecap="round"/>
<line x1="1" y1="-1" x2="4.04109" y2="-1" transform="matrix(-0.537801 -0.843072 -0.820493 0.571656 151.822 70.8335)" stroke="#FFF6E4" stroke-width="2" stroke-linecap="round"/>
<line x1="1" y1="-1" x2="4.04109" y2="-1" transform="matrix(-0.537801 -0.843072 -0.820493 0.571656 155.889 69.4167)" stroke="#FFF6E4" stroke-width="2" stroke-linecap="round"/>
</svg>
