<svg width="204" height="212" viewBox="0 0 204 212" fill="none" xmlns="http://www.w3.org/2000/svg">
<path fill-rule="evenodd" clip-rule="evenodd" d="M106.903 2.22045L96.593 12.8376L69.4102 40.8294L58.6416 51.9185C52.4001 43.6384 43.9732 38.6741 39.8072 36.7018C29.2435 31.7004 18.0554 47.0027 32.3566 55.5205C37.9763 58.4223 41.178 61.7314 43.6977 67.3071L33.6252 77.6794C33.6108 77.6942 33.5964 77.7091 33.5821 77.7239C24.3865 74.2462 15.2181 74.2771 10.8185 74.6819C-0.820186 75.7529 -2.66322 94.6191 13.9823 94.6731C21.1683 94.261 25.9268 95.8968 31.8556 100.637C32.4816 101.517 33.1959 102.353 33.9984 103.133L69.7216 137.823C58.5127 142.822 51.192 152.359 48.3992 156.824C42.2019 166.734 56.0975 179.627 66.2225 166.415C71.1267 159.144 76.2673 156.582 87.1089 154.708L98.5274 165.797C91.4021 182.744 99.5727 199.99 103.248 205.985C109.358 215.949 127.093 209.255 119.777 194.303C116.348 188.252 115.636 183.388 117.061 176.378L147.969 144.551C179.391 144.262 196.557 116.907 201.397 106.857C208.675 91.7451 186.823 75.5427 174.462 95.9845C168.64 107.077 161.749 111.552 146.728 115.913L124.357 94.1883L151.54 66.1965L161.658 55.7768C164.028 53.3369 162.464 49.2409 159.072 49.0002L131.842 47.0679L117.328 32.973L113.742 4.50714C113.322 1.17942 109.24 -0.185722 106.903 2.22045Z" fill="white"/>
<path fill-rule="evenodd" clip-rule="evenodd" d="M117.299 32.7418L113.742 4.50712C113.322 1.1794 109.24 -0.185742 106.903 2.22043L96.593 12.8376L89.5573 20.0827C95.0409 25.883 106.923 31.0907 117.299 32.7418ZM58.7875 51.7682C64.3922 60.6284 69.1806 70.9605 67.7133 77.4553C66.3068 83.6811 57.0998 80.6985 47.1198 77.4655L47.1197 77.4655C43.6791 76.3509 40.1466 75.2066 36.8102 74.3995L43.6977 67.3071C42.1728 63.9328 40.3982 61.3886 37.989 59.2625L44.9203 39.535C49.1558 42.2011 54.4027 46.2951 58.6416 51.9185L58.7875 51.7682ZM172.76 98.9844C173.341 98.0409 173.906 97.0428 174.462 95.9844C186.822 75.5426 208.675 91.745 201.397 106.857C199.78 110.215 196.787 115.504 192.346 121.071L172.76 98.9844ZM146.478 115.67C144.873 117.829 143.407 120.693 141.898 123.641C136.937 133.335 131.507 143.942 119.121 133.421C112.382 127.696 107.094 114.691 112.572 104.902C118.049 95.1128 125.201 95.0079 125.201 95.0079L146.478 115.67Z" fill="#827B79"/>
<path d="M95.8769 68.5456C91.8498 72.6925 92.4676 75.3069 94.4716 77.253C96.4756 79.1991 99.9032 78.92 102.127 76.6298" stroke="#5A5351" stroke-width="2" stroke-linecap="round"/>
<path d="M95.8769 68.5456C91.8498 72.6925 89.2185 72.1516 87.2145 70.2055C85.2105 68.2594 85.3889 64.8252 87.613 62.5349" stroke="#5A5351" stroke-width="2" stroke-linecap="round"/>
<ellipse cx="5.05796" cy="3.61283" rx="5.05796" ry="3.61283" transform="matrix(-0.717397 -0.696664 -0.696664 0.717397 104.539 66.8856)" fill="#5A5351"/>
<path d="M154.679 56.7412L148.623 62.9772C148.238 63.3734 147.605 63.3826 147.209 62.9979L137.855 53.9142C137.145 53.2249 137.76 52.0337 138.733 52.2135L154.143 55.0611C154.928 55.2063 155.235 56.1682 154.679 56.7412Z" fill="#FFC0CB"/>
<path d="M106.456 8.90456L100.4 15.1406C100.015 15.5368 100.024 16.1699 100.421 16.5546L109.775 25.6383C110.484 26.3276 111.657 25.6777 111.449 24.7104L108.151 9.39075C107.983 8.60994 107.012 8.33157 106.456 8.90456Z" fill="#FFC0CB"/>
<path d="M82.2143 41.8115C85.5504 38.3761 91.0399 38.2956 94.4753 41.6317C97.9107 44.9679 97.9912 50.4573 94.6551 53.8928" stroke="#8B8483" stroke-width="2" stroke-linecap="round"/>
<path d="M110.206 68.9944C113.542 65.5589 119.032 65.4785 122.467 68.8146C125.903 72.1507 125.983 77.6402 122.647 81.0756" stroke="#5A5351" stroke-width="3" stroke-linecap="round"/>
<line x1="130.491" y1="74.6739" x2="133.63" y2="73.9982" stroke="#5A5351" stroke-width="2" stroke-linecap="round"/>
<path d="M128.729 70.088L130.998 69.5997" stroke="#5A5351" stroke-width="2" stroke-linecap="round"/>
<path d="M94.655 53.8927C97.9912 50.4573 97.9107 44.9678 94.4753 41.6317C91.0398 38.2955 85.5504 38.376 82.2143 41.8115" stroke="#5A5351" stroke-width="3" stroke-linecap="round"/>
<line x1="1" y1="-1" x2="4.21049" y2="-1" transform="matrix(0.18172 -0.98335 -0.98335 -0.18172 87.2181 34.5843)" stroke="#5A5351" stroke-width="2" stroke-linecap="round"/>
<line x1="1" y1="-1" x2="4.21049" y2="-1" transform="matrix(0.18172 -0.98335 -0.98335 -0.18172 91.3351 36.5679)" stroke="#5A5351" stroke-width="2" stroke-linecap="round"/>
</svg>
