<svg width="200" height="180" viewBox="0 0 200 180" fill="none" xmlns="http://www.w3.org/2000/svg">
<path fill-rule="evenodd" clip-rule="evenodd" d="M187.117 11.0075V28.2405H155.172L180.618 7.88403C183.237 5.78879 187.117 7.65349 187.117 11.0075ZM102.464 28.2405V11.2828C102.464 7.88179 106.439 6.03244 109.041 8.22315L132.811 28.2405H102.464ZM102.464 28.2405H187.116V64.9764V71.3653V153.99C187.116 163.931 179.058 171.99 169.116 171.99H66.1839C66.1228 171.998 66.0616 172.006 66.0002 172.014C65.9557 172.006 65.9112 171.998 65.8667 171.99H65.7281V171.965C29.154 165.258 15.2843 123.279 12.4423 110.708C8.31122 92.4347 34.2634 81.9688 42.5636 107.325C45.595 118.886 51.9339 134.763 65.7281 140.03V99.9764C65.7281 80.6465 81.3981 64.9764 100.728 64.9764H102.464V28.2405Z" fill="white"/>
<path fill-rule="evenodd" clip-rule="evenodd" d="M65.7281 139.557V99.9764C65.7281 86.1704 73.7217 74.2315 85.3331 68.5353C92.7074 72.3083 101.33 77.6409 106.236 83.8475C115.472 95.5333 122.208 107.806 119.013 119.785C115.819 131.764 81.6718 142.796 71.9203 142.146C69.3423 141.974 67.3067 141.063 65.7281 139.557ZM16.0812 122.688C14.2425 117.72 13.0719 113.493 12.4423 110.708C8.40561 92.8522 33.0933 82.4511 41.9676 105.643L16.0812 122.688ZM187.116 94.6361V153.99C187.116 158.241 185.643 162.148 183.178 165.228C175.287 166.164 169.39 165.39 168.527 161.312C165.599 147.47 172.705 113.212 179.732 101.712C181.54 98.7541 184.127 96.437 187.116 94.6361ZM187.116 38.2475C179.071 40.0443 165.076 35.1924 154.668 28.2405H187.116V38.2475ZM187.117 28.2405V11.0075C187.117 7.65349 183.237 5.78879 180.618 7.88403L155.172 28.2405H187.117Z" fill="#827B79"/>
<path d="M144.79 72.9625C144.79 79.3513 142.287 82.5458 139.2 82.5458" stroke="#5A5351" stroke-width="2" stroke-linecap="round"/>
<path d="M144.79 72.9625C144.79 79.3513 147.293 82.5458 150.38 82.5458" stroke="#5A5351" stroke-width="2" stroke-linecap="round"/>
<path d="M149.88 68.9694C149.88 69.8687 149.371 70.73 148.452 71.3861C147.535 72.0415 146.242 72.4625 144.79 72.4625C143.339 72.4625 142.045 72.0415 141.128 71.3861C140.209 70.73 139.7 69.8687 139.7 68.9694C139.7 68.0702 140.209 67.2089 141.128 66.5528C142.045 65.8974 143.339 65.4764 144.79 65.4764C146.242 65.4764 147.535 65.8974 148.452 66.5528C149.371 67.2089 149.88 68.0702 149.88 68.9694Z" fill="#5A5351" stroke="#5A5351"/>
<path d="M107.256 18.1299V28.0391C107.256 28.5914 107.703 29.0391 108.256 29.0391H123.119C124.109 29.0391 124.497 27.7558 123.674 27.207L108.81 17.2978C108.146 16.8548 107.256 17.3312 107.256 18.1299Z" fill="#FFC0CB"/>
<path d="M182.325 17.3313V27.2405C182.325 27.7927 181.877 28.2405 181.325 28.2405H166.461C165.471 28.2405 165.083 26.9572 165.906 26.4084L180.77 16.4992C181.435 16.0562 182.325 16.5326 182.325 17.3313Z" fill="#FFC0CB"/>
<path d="M133.388 60.6879C133.388 65.0985 129.455 68.674 124.604 68.674C119.752 68.674 115.819 65.0985 115.819 60.6879" stroke="#5A5351" stroke-width="3" stroke-linecap="round"/>
<line x1="118.736" y1="75.2733" x2="120.821" y2="72.1458" stroke="#5A5351" stroke-width="2" stroke-linecap="round"/>
<line x1="113.944" y1="73.6761" x2="116.029" y2="70.5486" stroke="#5A5351" stroke-width="2" stroke-linecap="round"/>
<path d="M173.319 60.6879C173.319 65.0985 169.386 68.674 164.534 68.674C159.682 68.674 155.749 65.0985 155.749 60.6879" stroke="#5A5351" stroke-width="3" stroke-linecap="round"/>
<line x1="1" y1="-1" x2="4.75884" y2="-1" transform="matrix(-0.5547 -0.83205 -0.83205 0.5547 171.722 76.6601)" stroke="#5A5351" stroke-width="2" stroke-linecap="round"/>
<line x1="1" y1="-1" x2="4.75884" y2="-1" transform="matrix(-0.5547 -0.83205 -0.83205 0.5547 176.513 75.0629)" stroke="#5A5351" stroke-width="2" stroke-linecap="round"/>
</svg>
