<svg width="200" height="180" viewBox="0 0 200 180" fill="none" xmlns="http://www.w3.org/2000/svg">
<path fill-rule="evenodd" clip-rule="evenodd" d="M24.759 8.32245C24.759 4.96843 28.6387 3.10374 31.2578 5.19897L55.6931 24.7471L77.3469 24.7471L100.158 5.53809C102.759 3.34738 106.734 5.19673 106.734 8.59773V24.7471V37.8334C148.131 40.6064 180.973 67.9775 183.2 101.971C188.139 109.745 191 118.97 191 128.863C191 156.595 168.518 179.077 140.786 179.077C135.263 179.077 130.786 174.6 130.786 169.077C130.786 163.554 135.263 159.077 140.786 159.077C157.473 159.077 171 145.55 171 128.863C171 128.025 170.966 127.196 170.899 126.376C160.346 130.399 144.293 128.31 127.622 126.14C117.4 124.81 106.946 123.449 97.3852 123.449C87.3714 123.449 77.2661 124.942 67.8746 126.329C54.9899 128.232 43.4486 129.936 35.3306 127.316H21.192C14.7854 127.316 9.59183 122.123 9.59183 115.716C9.59183 109.309 14.7854 104.116 21.192 104.116H23.2322C23.2196 101.674 23.1798 99.2648 23.1407 96.8935C22.9758 86.8991 22.822 77.5835 24.759 69.4334V24.7471V8.32245Z" fill="white"/>
<path d="M112.079 85.5553C112.079 85.5553 126.115 131.102 179.569 100.163C187.303 80.0555 153.675 37.8901 107.547 37.8901C108.321 69.5973 108.986 70.8617 112.079 85.5553Z" fill="#827B79"/>
<path d="M140.786 179.077C135.263 179.077 130.786 174.6 130.786 169.077C130.786 163.554 135.263 159.077 140.786 159.077V179.077ZM140.786 159.077C148.764 159.077 156.001 155.998 161.409 150.944L175.065 165.556C166.1 173.935 154.032 179.077 140.786 179.077V159.077Z" fill="#827B79"/>
<path d="M24.7592 8.32246V24.7471C24.7592 24.7471 24.0097 42.2478 27.1032 42.2478C40.56 42.2478 55.6932 24.7471 55.6932 24.7471L31.2579 5.19899C28.6389 3.10376 24.7592 4.96845 24.7592 8.32246Z" fill="#827B79"/>
<path d="M102.094 15.0153V24.5203C102.094 25.0726 101.647 25.5203 101.094 25.5203H86.8366C85.8472 25.5203 85.4587 24.2371 86.2819 23.6883L100.54 14.1832C101.204 13.7402 102.094 14.2166 102.094 15.0153Z" fill="#FFC0CB"/>
<path d="M29.3992 14.2419V23.7469C29.3992 24.2992 29.8469 24.7469 30.3992 24.7469H44.6568C45.6462 24.7469 46.0348 23.4637 45.2115 22.9149L30.9539 13.4098C30.2893 12.9668 29.3992 13.4432 29.3992 14.2419Z" fill="#FFC0CB"/>
<path d="M66.3297 62.7826C66.3297 73.1818 66.3297 72.0628 71.7432 72.0628" stroke="#5A5351" stroke-width="2" stroke-linecap="round"/>
<path d="M66.3297 62.7826C66.3297 73.1818 66.3297 72.0628 60.9163 72.0628" stroke="#5A5351" stroke-width="2" stroke-linecap="round"/>
<path d="M61.4162 58.9158C61.4162 59.7802 61.9059 60.6099 62.7924 61.2431C63.678 61.8757 64.927 62.2825 66.3297 62.2825C67.7324 62.2825 68.9814 61.8757 69.867 61.2431C70.7535 60.6099 71.2432 59.7802 71.2432 58.9158C71.2432 58.0514 70.7535 57.2217 69.867 56.5885C68.9814 55.9559 67.7324 55.5491 66.3297 55.5491C64.927 55.5491 63.678 55.9559 62.7924 56.5885C61.9059 57.2217 61.4162 58.0514 61.4162 58.9158Z" fill="#5A5351" stroke="#5A5351"/>
<path d="M77.3709 50.8961C77.3709 55.1672 81.1796 58.6296 85.8778 58.6296C90.576 58.6296 94.3846 55.1672 94.3846 50.8961" stroke="#5A5351" stroke-width="3" stroke-linecap="round"/>
<line x1="1" y1="-1" x2="4.5767" y2="-1" transform="matrix(-0.554702 -0.832049 -0.832052 0.554698 91.2914 66.3632)" stroke="#5A5351" stroke-width="2" stroke-linecap="round"/>
<line x1="1" y1="-1" x2="4.5767" y2="-1" transform="matrix(-0.554702 -0.832049 -0.832052 0.554698 95.9314 64.8165)" stroke="#5A5351" stroke-width="2" stroke-linecap="round"/>
<path d="M38.7033 50.8961C38.7033 55.1672 42.512 58.6296 47.2102 58.6296C51.9084 58.6296 55.717 55.1672 55.717 50.8961" stroke="#5A5351" stroke-width="3" stroke-linecap="round"/>
<line x1="1" y1="-1" x2="4.5767" y2="-1" transform="matrix(0.554702 -0.832049 0.832052 0.554698 40.25 66.3632)" stroke="#5A5351" stroke-width="2" stroke-linecap="round"/>
<line x1="1" y1="-1" x2="4.5767" y2="-1" transform="matrix(0.554702 -0.832049 0.832052 0.554698 35.61 64.8165)" stroke="#5A5351" stroke-width="2" stroke-linecap="round"/>
</svg>
