<svg width="204" height="173" viewBox="0 0 204 173" fill="none" xmlns="http://www.w3.org/2000/svg">
<path fill-rule="evenodd" clip-rule="evenodd" d="M182.594 4.8554V20.5131L182.594 60.9797L182.594 108.95C197.898 118.119 202.513 136.007 203.533 142.923C205.303 154.914 186.74 161.39 182.611 144.628C181.444 138.246 179.166 134.091 174.5 129.951C172.137 131.512 169.385 132.53 166.42 132.829C168.49 149.117 159.299 163.262 155.145 168.4C147.524 177.827 130.185 168.562 139.716 154.168C144.647 147.619 145.763 142.175 144.597 132.92H95.0494C99.6974 144.687 98.2619 156.98 97.1187 162.296C94.5697 174.146 74.9152 173.699 76.928 156.554C78.4883 147.85 76.6671 142.297 70.3987 133.518C63.2778 150.833 45.0755 157.626 38.0894 159.41C26.3446 162.409 17.986 144.615 34.2321 138.777C41.1551 136.752 45.1991 133.647 49.2038 127.402V90.7015L49.1917 90.7132C14.7201 84.7181 3.02572 51.1147 0.384439 39.4119C-3.44543 22.4427 22.4175 11.1676 30.1398 34.7083C33.3884 47.0972 39.1872 53.2298 52.9167 60.9797L103.159 60.9797V20.5131V5.13069C103.159 1.72968 107.134 -0.119658 109.736 2.07105L131.636 20.5131H152.618L176.095 1.73194C178.714 -0.363306 182.594 1.50138 182.594 4.8554Z" fill="white"/>
<path fill-rule="evenodd" clip-rule="evenodd" d="M152.807 20.3621L176.095 1.73194C178.714 -0.363306 182.594 1.50138 182.594 4.8554V20.5131V30.9871C174.323 31.3406 161.72 26.6305 152.807 20.3621ZM182.594 77.5723C173.893 78.2802 162.427 81.2195 157.393 89.4562C153.694 95.5098 161.763 103.095 170.046 110.882C176.528 116.976 183.141 123.194 184.348 128.896C186.238 137.834 196.171 137.665 202.184 136.69C199.842 128.28 194.397 116.022 182.594 108.95L182.594 77.5723ZM32.3361 41.2198C31.4841 39.2435 30.7647 37.0917 30.1398 34.7083C22.4175 11.1676 -3.44543 22.4427 0.384439 39.4119C1.18874 42.9755 2.83253 48.57 5.70333 54.7973L32.3361 41.2198ZM101.939 60.9797L56.0098 60.9797C56.4006 74.2322 60.5375 92.7411 78.7083 93.9525C87.8586 94.5625 101.19 88.7068 104.187 77.4661C107.185 66.2254 101.939 60.9797 101.939 60.9797Z" fill="#827B79"/>
<path d="M142.877 62.4785C142.877 68.4736 140.528 69.9723 137.631 69.9723C134.734 69.9723 132.385 67.2883 132.385 63.9773" stroke="#5A5351" stroke-width="3" stroke-linecap="round"/>
<path d="M142.877 62.4785C142.877 68.4736 145.225 69.9723 148.122 69.9723C151.02 69.9723 153.368 67.2883 153.368 63.9773" stroke="#5A5351" stroke-width="3" stroke-linecap="round"/>
<ellipse cx="142.877" cy="58.7315" rx="5.24567" ry="3.74691" fill="#5A5351"/>
<path d="M107.656 11.1407V20.2623C107.656 20.8146 108.103 21.2623 108.656 21.2623H122.338C123.328 21.2623 123.716 19.9791 122.893 19.4303L109.21 10.3087C108.546 9.86565 107.656 10.342 107.656 11.1407Z" fill="#FFC0CB"/>
<path d="M178.098 10.3915V19.513C178.098 20.0653 177.65 20.513 177.098 20.513H163.415C162.426 20.513 162.037 19.2298 162.861 18.681L176.543 9.55942C177.208 9.11638 178.098 9.59277 178.098 10.3915Z" fill="#FFC0CB"/>
<path d="M172.358 52.4591C172.358 47.4927 168.332 43.4666 163.365 43.4666C158.399 43.4666 154.373 47.4927 154.373 52.4591" stroke="#8B8483" stroke-width="2" stroke-linecap="round"/>
<path d="M131.891 52.4591C131.891 47.4927 127.865 43.4666 122.898 43.4666C117.932 43.4666 113.906 47.4927 113.906 52.4591" stroke="#5A5351" stroke-width="2" stroke-linecap="round"/>
<line x1="1" y1="-1" x2="4.40386" y2="-1" transform="matrix(-0.5547 -0.832051 -0.83205 0.554701 112.407 43.4666)" stroke="#5A5351" stroke-width="2" stroke-linecap="round"/>
<path d="M117.319 39.8894L115.985 37.8872" stroke="#5A5351" stroke-width="2" stroke-linecap="round"/>
<path d="M154.373 52.4591C154.373 47.4927 158.399 43.4666 163.365 43.4666C168.332 43.4666 172.358 47.4927 172.358 52.4591" stroke="#5A5351" stroke-width="2" stroke-linecap="round"/>
<line x1="173.579" y1="42.0798" x2="175.467" y2="39.2476" stroke="#5A5351" stroke-width="2" stroke-linecap="round"/>
<line x1="1" y1="-1" x2="4.40386" y2="-1" transform="matrix(0.554701 -0.83205 0.832051 0.5547 169.36 41.9678)" stroke="#5A5351" stroke-width="2" stroke-linecap="round"/>
</svg>
