<svg width="200" height="180" viewBox="0 0 200 180" fill="none" xmlns="http://www.w3.org/2000/svg">
<path fill-rule="evenodd" clip-rule="evenodd" d="M18.9452 11.0075V26.2533V66.0248V118.73C18.9452 125.325 22.4925 131.092 27.7833 134.227V164.082C27.7833 168.5 31.3651 172.082 35.7833 172.082H41.8786C46.2969 172.082 49.8786 168.5 49.8786 164.082V136.73H54.2976V164.082C54.2976 168.5 57.8793 172.082 62.2976 172.082H68.3929C72.8112 172.082 76.3929 168.5 76.3929 164.082V136.73H102.907V164.082C102.907 168.5 106.489 172.082 110.907 172.082H117.002C121.421 172.082 125.002 168.5 125.002 164.082V136.73H127.949V164.082C127.949 168.5 131.53 172.082 135.949 172.082H142.044C146.462 172.082 150.044 168.5 150.044 164.082V136.73V129.365L150.044 89.593C176.558 74.8629 181.384 42.4565 180.977 30.6723C180.388 13.5853 152.99 9.31359 151.517 33.6184C151.517 46.8755 147.098 54.2406 134.577 66.0248H97.0151V26.2533V11.2828C97.0151 7.88178 93.0401 6.03244 90.4386 8.22315L69.0278 26.2533L48.4056 26.2533L25.444 7.88404C22.825 5.78879 18.9452 7.65348 18.9452 11.0075Z" fill="white"/>
<path fill-rule="evenodd" clip-rule="evenodd" d="M151.781 31.0597C154.963 9.64402 180.41 14.2117 180.977 30.6723C181.044 32.6117 180.969 35.1096 180.679 37.9954L151.781 31.0597ZM18.9453 82.4428V118.73C18.9453 125.325 22.4926 131.092 27.7834 134.227V158.998C34.6613 155.834 41.2888 151.357 42.5135 145.568C45.2141 132.802 48.9948 104.618 42.5135 94.0121C37.7946 86.2901 27.3232 83.3055 18.9453 82.4428ZM47.6542 25.6522L25.4441 7.88404C22.825 5.78879 18.9453 7.65348 18.9453 11.0075V26.2533V36.5633C27.2631 36.4438 39.2787 31.7379 47.6542 25.6522ZM141.985 58.4582C139.916 60.8299 137.462 63.3101 134.577 66.0248L97.0152 66.0248C97.0152 66.0248 91.8596 71.1803 94.8056 82.2279C97.7517 93.2756 110.854 99.0307 119.847 98.4311C141.608 96.9804 142.89 70.2886 141.985 58.4582Z" fill="#827B79"/>
<circle cx="12.5206" cy="12.5206" r="12.5206" transform="matrix(-1 0 0 1 51.3516 42.4565)" fill="#96DBB9"/>
<circle cx="8.8381" cy="8.8381" r="8.8381" transform="matrix(-1 0 0 1 48.4056 46.8755)" fill="#22201D"/>
<line x1="1" y1="-1" x2="4.31104" y2="-1" transform="matrix(-0.5547 -0.83205 -0.83205 0.5547 27.8062 42.9205)" stroke="#5A5351" stroke-width="2" stroke-linecap="round"/>
<line x1="1" y1="-1" x2="4.31104" y2="-1" transform="matrix(-0.5547 -0.83205 -0.83205 0.5547 32.2252 41.4474)" stroke="#5A5351" stroke-width="2" stroke-linecap="round"/>
<circle cx="12.5206" cy="12.5206" r="12.5206" transform="matrix(-1 0 0 1 89.6501 42.4565)" fill="#96DBB9"/>
<circle cx="8.8381" cy="8.8381" r="8.8381" transform="matrix(-1 0 0 1 85.231 46.8755)" fill="#22201D"/>
<line x1="89.3956" y1="41.5337" x2="91.2322" y2="38.7788" stroke="#5A5351" stroke-width="2" stroke-linecap="round"/>
<line x1="84.9765" y1="40.0607" x2="86.8131" y2="37.3057" stroke="#5A5351" stroke-width="2" stroke-linecap="round"/>
<path d="M57.9802 67.4978C57.9802 73.3898 60.2884 74.8629 63.1358 74.8629C65.9831 74.8629 68.2913 72.2249 68.2913 68.9708" stroke="#5A5351" stroke-width="2" stroke-linecap="round"/>
<path d="M57.9802 67.4978C57.9802 73.3898 55.672 74.8629 52.8246 74.8629C49.9773 74.8629 47.6691 72.2249 47.6691 68.9708" stroke="#5A5351" stroke-width="2" stroke-linecap="round"/>
<ellipse cx="5.15556" cy="3.68254" rx="5.15556" ry="3.68254" transform="matrix(-1 0 0 1 63.1357 60.1327)" fill="#5A5351"/>
<path d="M92.5961 17.0742V25.9898C92.5961 26.5421 92.1484 26.9898 91.5961 26.9898H78.2227C77.2333 26.9898 76.8448 25.7066 77.668 25.1577L91.0414 16.2421C91.706 15.7991 92.5961 16.2755 92.5961 17.0742Z" fill="#FFC0CB"/>
<path d="M23.3643 16.3377V25.2533C23.3643 25.8056 23.812 26.2533 24.3643 26.2533H37.7377C38.7271 26.2533 39.1156 24.9701 38.2924 24.4212L24.919 15.5056C24.2544 15.0626 23.3643 15.539 23.3643 16.3377Z" fill="#FFC0CB"/>
</svg>
