<svg width="204" height="173" viewBox="0 0 204 173" fill="none" xmlns="http://www.w3.org/2000/svg">
<path fill-rule="evenodd" clip-rule="evenodd" d="M21.0582 4.8554V20.5131L21.0582 60.9797L21.0582 108.95C5.75374 118.119 1.13928 136.007 0.118759 142.923C-1.65091 154.914 16.9116 161.39 21.0405 144.628C22.2083 138.246 24.4862 134.091 29.1516 129.951C31.5146 131.512 34.2671 132.53 37.232 132.829C35.162 149.117 44.3525 163.262 48.507 168.4C56.1279 177.827 73.4673 168.562 63.9362 154.168C59.0052 147.619 57.8893 142.175 59.0551 132.92H108.602C103.954 144.687 105.39 156.98 106.533 162.296C109.082 174.146 128.737 173.699 126.724 156.554C125.164 147.85 126.985 142.297 133.253 133.518C140.374 150.833 158.576 157.626 165.562 159.41C177.307 162.409 185.666 144.615 169.42 138.777C162.497 136.752 158.453 133.647 154.448 127.402V90.7015L154.46 90.7132C188.932 84.7181 200.626 51.1147 203.267 39.4119C207.097 22.4427 181.234 11.1676 173.512 34.7083C170.263 47.0972 164.465 53.2298 150.735 60.9797L100.493 60.9797V20.5131V5.13069C100.493 1.72968 96.5175 -0.119658 93.916 2.07105L72.0161 20.5131H51.0334L27.5569 1.73194C24.9379 -0.363306 21.0582 1.50138 21.0582 4.8554Z" fill="white"/>
<path fill-rule="evenodd" clip-rule="evenodd" d="M50.8447 20.3621L27.5569 1.73194C24.9379 -0.363306 21.0582 1.50138 21.0582 4.8554V20.5131V30.9871C29.3289 31.3406 41.9318 26.6305 50.8447 20.3621ZM21.0582 77.5723C29.7591 78.2802 41.225 81.2195 46.2586 89.4562C49.958 95.5098 41.889 103.095 33.606 110.882C27.1237 116.976 20.5104 123.194 19.3041 128.896C17.4134 137.834 7.48073 137.665 1.46823 136.69C3.8098 128.28 9.25465 116.022 21.0582 108.95L21.0582 77.5723ZM171.316 41.2198C172.168 39.2435 172.887 37.0917 173.512 34.7083C181.234 11.1676 207.097 22.4427 203.267 39.4119C202.463 42.9755 200.819 48.57 197.949 54.7973L171.316 41.2198ZM101.713 60.9797L147.642 60.9797C147.251 74.2322 143.114 92.7411 124.944 93.9525C115.793 94.5625 102.462 88.7068 99.4646 77.4661C96.4671 66.2254 101.713 60.9797 101.713 60.9797Z" fill="#827B79"/>
<path d="M60.7753 62.4785C60.7753 68.4736 63.1238 69.9723 66.0209 69.9723C68.918 69.9723 71.2666 67.2883 71.2666 63.9773" stroke="#5A5351" stroke-width="3" stroke-linecap="round"/>
<path d="M60.775 62.4785C60.775 68.4736 58.4265 69.9723 55.5294 69.9723C52.6323 69.9723 50.2837 67.2883 50.2837 63.9773" stroke="#5A5351" stroke-width="3" stroke-linecap="round"/>
<ellipse cx="5.24567" cy="3.74691" rx="5.24567" ry="3.74691" transform="matrix(-1 0 0 1 66.021 54.9846)" fill="#5A5351"/>
<path d="M95.9961 11.1407V20.2623C95.9961 20.8146 95.5484 21.2623 94.9961 21.2623H81.3137C80.3243 21.2623 79.9358 19.9791 80.759 19.4303L94.4414 10.3087C95.1059 9.86565 95.9961 10.342 95.9961 11.1407Z" fill="#FFC0CB"/>
<path d="M25.5542 10.3915V19.513C25.5542 20.0653 26.0019 20.513 26.5542 20.513H40.2366C41.226 20.513 41.6145 19.2298 40.7913 18.681L27.1089 9.55942C26.4443 9.11638 25.5542 9.59277 25.5542 10.3915Z" fill="#FFC0CB"/>
<path d="M31.2941 52.4591C31.2941 47.4927 35.3203 43.4666 40.2867 43.4666C45.2532 43.4666 49.2793 47.4927 49.2793 52.4591" stroke="#8B8483" stroke-width="2" stroke-linecap="round"/>
<path d="M71.7609 52.4591C71.7609 47.4927 75.7871 43.4666 80.7535 43.4666C85.72 43.4666 89.7461 47.4927 89.7461 52.4591" stroke="#5A5351" stroke-width="2" stroke-linecap="round"/>
<line x1="1" y1="-1" x2="4.40386" y2="-1" transform="matrix(0.5547 -0.832051 0.83205 0.554701 91.2446 43.4666)" stroke="#5A5351" stroke-width="2" stroke-linecap="round"/>
<path d="M86.3325 39.8894L87.6673 37.8872" stroke="#5A5351" stroke-width="2" stroke-linecap="round"/>
<path d="M49.2791 52.4591C49.2791 47.4927 45.253 43.4666 40.2865 43.4666C35.3201 43.4666 31.2939 47.4927 31.2939 52.4591" stroke="#5A5351" stroke-width="2" stroke-linecap="round"/>
<line x1="1" y1="-1" x2="4.40387" y2="-1" transform="matrix(-0.5547 -0.83205 -0.832051 0.5547 29.7954 43.4666)" stroke="#5A5351" stroke-width="2" stroke-linecap="round"/>
<line x1="1" y1="-1" x2="4.40386" y2="-1" transform="matrix(-0.554701 -0.83205 -0.832051 0.5547 34.2915 41.9678)" stroke="#5A5351" stroke-width="2" stroke-linecap="round"/>
</svg>
