<svg width="200" height="180" viewBox="0 0 200 180" fill="none" xmlns="http://www.w3.org/2000/svg">
<path fill-rule="evenodd" clip-rule="evenodd" d="M175.241 8.32245C175.241 4.96843 171.361 3.10374 168.742 5.19897L144.307 24.7471L122.653 24.7471L99.8423 5.53809C97.2408 3.34738 93.2657 5.19673 93.2657 8.59773V24.7471V37.8334C51.869 40.6064 19.0268 67.9775 16.8004 101.971C11.8608 109.745 9 118.97 9 128.863C9 156.595 31.4817 179.077 59.2143 179.077C64.7371 179.077 69.2143 174.6 69.2143 169.077C69.2143 163.554 64.7371 159.077 59.2143 159.077C42.5273 159.077 29 145.55 29 128.863C29 128.025 29.0341 127.196 29.1009 126.376C39.6543 130.399 55.7072 128.31 72.3776 126.14C82.5998 124.81 93.0541 123.449 102.615 123.449C112.629 123.449 122.734 124.942 132.125 126.329C145.01 128.232 156.551 129.936 164.669 127.316H178.808C185.215 127.316 190.408 122.123 190.408 115.716C190.408 109.309 185.215 104.116 178.808 104.116H176.768C176.78 101.674 176.82 99.2648 176.859 96.8935C177.024 86.8991 177.178 77.5835 175.241 69.4334V24.7471V8.32245Z" fill="white"/>
<path d="M87.9211 85.5553C87.9211 85.5553 73.885 131.102 20.4309 100.163C12.6973 80.0555 46.3249 37.8901 92.4528 37.8901C91.6795 69.5973 91.0145 70.8617 87.9211 85.5553Z" fill="#827B79"/>
<path d="M59.2143 179.077C64.7372 179.077 69.2143 174.6 69.2143 169.077C69.2143 163.554 64.7372 159.077 59.2143 159.077V179.077ZM59.2143 159.077C51.2358 159.077 43.9987 155.998 38.5907 150.944L24.9351 165.556C33.9005 173.935 45.9679 179.077 59.2143 179.077V159.077Z" fill="#827B79"/>
<path d="M175.241 8.32246V24.7471C175.241 24.7471 175.99 42.2478 172.897 42.2478C159.44 42.2478 144.307 24.7471 144.307 24.7471L168.742 5.19899C171.361 3.10376 175.241 4.96845 175.241 8.32246Z" fill="#827B79"/>
<path d="M97.9058 15.0153V24.5203C97.9058 25.0726 98.3535 25.5203 98.9058 25.5203H113.163C114.153 25.5203 114.541 24.2371 113.718 23.6883L99.4605 14.1832C98.796 13.7402 97.9058 14.2166 97.9058 15.0153Z" fill="#FFC0CB"/>
<path d="M170.601 14.2419V23.7469C170.601 24.2992 170.153 24.7469 169.601 24.7469H155.343C154.354 24.7469 153.965 23.4637 154.789 22.9149L169.046 13.4098C169.711 12.9668 170.601 13.4432 170.601 14.2419Z" fill="#FFC0CB"/>
<path d="M133.67 62.7826C133.67 73.1818 133.67 72.0628 128.257 72.0628" stroke="#5A5351" stroke-width="2" stroke-linecap="round"/>
<path d="M133.67 62.7826C133.67 73.1818 133.67 72.0628 139.084 72.0628" stroke="#5A5351" stroke-width="2" stroke-linecap="round"/>
<path d="M138.584 58.9158C138.584 59.7802 138.094 60.6099 137.208 61.2431C136.322 61.8757 135.073 62.2825 133.67 62.2825C132.268 62.2825 131.019 61.8757 130.133 61.2431C129.247 60.6099 128.757 59.7802 128.757 58.9158C128.757 58.0514 129.247 57.2217 130.133 56.5885C131.019 55.9559 132.268 55.5491 133.67 55.5491C135.073 55.5491 136.322 55.9559 137.208 56.5885C138.094 57.2217 138.584 58.0514 138.584 58.9158Z" fill="#5A5351" stroke="#5A5351"/>
<path d="M122.629 50.8961C122.629 55.1672 118.82 58.6296 114.122 58.6296C109.424 58.6296 105.615 55.1672 105.615 50.8961" stroke="#5A5351" stroke-width="3" stroke-linecap="round"/>
<line x1="1" y1="-1" x2="4.5767" y2="-1" transform="matrix(0.554702 -0.832049 0.832052 0.554698 108.709 66.3632)" stroke="#5A5351" stroke-width="2" stroke-linecap="round"/>
<line x1="1" y1="-1" x2="4.5767" y2="-1" transform="matrix(0.554702 -0.832049 0.832052 0.554698 104.069 64.8165)" stroke="#5A5351" stroke-width="2" stroke-linecap="round"/>
<path d="M161.297 50.8961C161.297 55.1672 157.488 58.6296 152.79 58.6296C148.092 58.6296 144.283 55.1672 144.283 50.8961" stroke="#5A5351" stroke-width="3" stroke-linecap="round"/>
<line x1="1" y1="-1" x2="4.5767" y2="-1" transform="matrix(-0.554702 -0.832049 -0.832052 0.554698 159.75 66.3632)" stroke="#5A5351" stroke-width="2" stroke-linecap="round"/>
<line x1="1" y1="-1" x2="4.5767" y2="-1" transform="matrix(-0.554702 -0.832049 -0.832052 0.554698 164.39 64.8165)" stroke="#5A5351" stroke-width="2" stroke-linecap="round"/>
</svg>
