<svg width="169" height="170" viewBox="0 0 169 170" fill="none" xmlns="http://www.w3.org/2000/svg">
<g id="Dia">
<g id="Cat_Body">
<path id="Union" fill-rule="evenodd" clip-rule="evenodd" d="M168.2 6.12697V17.8649V59.1444V105.01C168.2 113.161 164.656 120.484 159.026 125.523V157.757C159.026 164.089 153.893 169.223 147.56 169.223C141.227 169.223 136.093 164.089 136.093 157.757V132.53H131.507V157.757C131.507 164.089 126.373 169.223 120.04 169.223C113.707 169.223 108.574 164.089 108.574 157.757V132.53H81.054V157.757C81.054 164.089 75.9203 169.223 69.5875 169.223C63.2547 169.223 58.121 164.089 58.121 157.757V132.53H55.0632V157.757C55.0632 164.089 49.9295 169.223 43.5967 169.223C37.2639 169.223 32.1302 164.089 32.1302 157.757V132.53V124.886V83.6061L32.1299 83.6062C4.6103 68.3175 -0.398115 34.6823 0.0236505 22.4513C0.635199 4.71645 29.0722 0.282725 30.6011 25.5091C30.6011 39.2689 35.1877 46.9133 48.1831 59.1442L48.1832 59.1444L87.1695 59.1444V17.8649V6.54784C87.1695 1.34814 93.2469 -1.47927 97.2242 1.87004L116.218 17.8649H137.622L158.264 1.35157C162.268 -1.85178 168.2 0.999096 168.2 6.12697Z" fill="white"/>
</g>
<path id="Intersect" fill-rule="evenodd" clip-rule="evenodd" d="M30.3272 22.8537C27.0248 0.62565 0.612781 5.36655 0.0236505 22.4513C-0.0457636 24.4643 0.031907 27.0571 0.332808 30.0523L30.3272 22.8537ZM168.2 76.1851V105.01C168.2 113.161 164.656 120.484 159.026 125.523V155.643C151.888 152.359 145.009 147.713 143.738 141.703C140.935 128.453 137.011 99.2009 143.738 88.193C148.636 80.1782 159.504 77.0804 168.2 76.1851ZM138.402 17.241L158.264 1.35157C162.268 -1.85178 168.2 0.999096 168.2 6.12697V17.8649V28.5659C159.566 28.4419 147.095 23.5575 138.402 17.241ZM40.4941 51.291C42.642 53.7526 45.1895 56.3267 48.1831 59.1442L48.1832 59.1444L87.1695 59.1445C87.1695 59.1445 92.5206 64.4955 89.4628 75.962C86.4051 87.4286 72.8062 93.4019 63.472 92.7796C40.8862 91.2739 39.5556 63.57 40.4941 51.291Z" fill="#827B79"/>
<g id="Face">
<g id="Eye_Right_Open">
<circle id="Ellipse 2" cx="147.56" cy="47.678" r="12.9954" fill="#96DBB9"/>
<circle id="Ellipse 3" cx="146.795" cy="48.4423" r="9.17322" fill="#22201D"/>
<line id="Line 1" x1="158.578" y1="33.0439" x2="159.94" y2="31.0015" stroke="#5A5351" stroke-width="3.05774" stroke-linecap="round"/>
<line id="Line 2" x1="153.992" y1="31.5151" x2="155.354" y2="29.4727" stroke="#5A5351" stroke-width="3.05774" stroke-linecap="round"/>
</g>
<g id="Eye_Left_Open">
<circle id="Ellipse 2_2" cx="107.809" cy="47.678" r="12.9954" fill="#96DBB9"/>
<circle id="Ellipse 3_2" cx="108.574" cy="48.4423" r="9.17322" fill="#22201D"/>
<line id="Line 3" x1="1.52887" y1="-1.52887" x2="3.98355" y2="-1.52887" transform="matrix(-0.5547 -0.83205 -0.83205 0.5547 94.79 35.1641)" stroke="#5A5351" stroke-width="3.05774" stroke-linecap="round"/>
<line id="Line 4" x1="1.52887" y1="-1.52887" x2="3.98355" y2="-1.52887" transform="matrix(-0.5547 -0.83205 -0.83205 0.5547 99.3765 33.6353)" stroke="#5A5351" stroke-width="3.05774" stroke-linecap="round"/>
</g>
<g id="Muzzle">
<path id="Ellipse 5" d="M127.685 60.6733C127.685 66.7888 125.289 68.3177 122.333 68.3177C119.378 68.3177 116.982 65.5797 116.982 62.2022" stroke="#5A5351" stroke-width="3" stroke-linecap="round"/>
<path id="Ellipse 6" d="M127.685 60.6733C127.685 66.7888 130.08 68.3177 133.036 68.3177C135.991 68.3177 138.387 65.5797 138.387 62.2022" stroke="#5A5351" stroke-width="3" stroke-linecap="round"/>
<ellipse id="Ellipse 7" cx="127.685" cy="56.8512" rx="5.35105" ry="3.82218" fill="#5A5351"/>
</g>
<g id="Ears">
<path id="Vector 5" d="M91.7563 9.25516V17.1005C91.7563 17.9449 92.4408 18.6294 93.2852 18.6294H105.053C106.566 18.6294 107.16 16.6675 105.901 15.8284L94.1333 7.98306C93.1173 7.30572 91.7563 8.03406 91.7563 9.25516Z" fill="#FFC0CB"/>
<path id="Vector 6" d="M163.613 8.49076V16.3361C163.613 17.1805 162.929 17.865 162.084 17.865H150.316C148.804 17.865 148.21 15.9031 149.468 15.064L161.236 7.21866C162.252 6.54131 163.613 7.26965 163.613 8.49076Z" fill="#FFC0CB"/>
</g>
</g>
</g>
</svg>
