<svg width="183" height="173" viewBox="0 0 183 173" fill="none" xmlns="http://www.w3.org/2000/svg">
<path fill-rule="evenodd" clip-rule="evenodd" d="M-1.44383e-07 4.11737V22.5325L7.61496e-05 60.9789V67.6653V154.975C7.61496e-05 164.916 8.05894 172.975 18.0001 172.975H126.377C126.441 172.984 126.505 172.992 126.569 173C126.615 172.992 126.662 172.983 126.708 172.975H126.853V172.949C165.074 165.93 179.568 121.996 182.538 108.84C186.855 89.7157 159.734 78.7625 151.06 105.3C147.893 117.398 141.268 134.015 126.853 139.527V95.9789C126.853 76.649 111.183 60.9789 91.8532 60.9789H88.4634V22.5325V4.39316C88.4634 0.990781 84.4856 -0.858087 81.8846 1.33539L56.7501 22.5325H33.3824L6.50102 0.995703C3.88243 -1.10226 -1.44383e-07 0.762006 -1.44383e-07 4.11737Z" fill="white"/>
<path fill-rule="evenodd" clip-rule="evenodd" d="M-1.1787e-07 22.5325V4.11733C-1.1787e-07 3.36569 0.194824 2.68888 0.526626 2.11466L7.67262 1.93433L33.3824 22.5325H33.9097C23.0325 29.8081 8.4079 34.886 1.51409e-05 33.0054L-1.1787e-07 22.5325ZM7.61761e-05 92.0196C3.1245 93.9044 5.82738 96.3293 7.71658 99.4253C15.0607 111.461 22.4863 147.313 19.4263 161.8C18.508 166.148 12.1289 166.908 3.64896 165.841C1.35893 162.822 7.61761e-05 159.057 7.61761e-05 154.975V92.0196ZM178.735 121.377L151.683 103.539C160.957 79.2672 186.756 90.1526 182.538 108.84C181.88 111.754 180.657 116.179 178.735 121.377ZM126.853 139.033C125.203 140.608 123.076 141.562 120.382 141.741C110.192 142.422 74.5072 130.876 71.169 118.339C67.8308 105.802 74.87 92.9586 84.5219 80.7286C89.7814 74.0645 99.1296 68.3631 106.963 64.3994C118.728 70.039 126.853 82.0601 126.853 95.9789V139.033Z" fill="#827B79"/>
<path d="M44.2318 69.3367C44.2318 76.023 46.8473 79.3662 50.0737 79.3662" stroke="#5A5351" stroke-width="2" stroke-linecap="round"/>
<path d="M44.2316 69.3367C44.2316 76.023 41.6161 79.3662 38.3896 79.3662" stroke="#5A5351" stroke-width="2" stroke-linecap="round"/>
<path d="M38.8899 65.1577C38.8899 66.1087 39.4279 67.0164 40.3919 67.706C41.3549 68.395 42.711 68.8367 44.2318 68.8367C45.7527 68.8367 47.1087 68.395 48.0718 67.706C49.0358 67.0164 49.5737 66.1087 49.5737 65.1577C49.5737 64.2068 49.0358 63.299 48.0718 62.6094C47.1087 61.9205 45.7527 61.4788 44.2318 61.4788C42.711 61.4788 41.3549 61.9205 40.3919 62.6094C39.4279 63.299 38.8899 64.2068 38.8899 65.1577Z" fill="#5A5351" stroke="#5A5351"/>
<path d="M83.4561 11.8654V22.368C83.4561 22.9203 83.0083 23.368 82.4561 23.368H66.7253C65.7363 23.368 65.3475 22.0855 66.1701 21.5364L81.9008 11.0337C82.5653 10.5901 83.4561 11.0664 83.4561 11.8654Z" fill="#FFC0CB"/>
<path d="M5.00732 11.0297V21.5323C5.00732 22.0846 5.45504 22.5323 6.00733 22.5323H21.738C22.7271 22.5323 23.1159 21.2499 22.2933 20.7007L6.56259 10.198C5.89808 9.75438 5.00732 10.2307 5.00732 11.0297Z" fill="#FFC0CB"/>
<path d="M56.147 56.4907C56.147 61.1067 60.2571 64.8486 65.3272 64.8486C70.3972 64.8486 74.5073 61.1067 74.5073 56.4907" stroke="#5A5351" stroke-width="2" stroke-linecap="round"/>
<line x1="1" y1="-1" x2="5.02425" y2="-1" transform="matrix(-0.554134 -0.832427 -0.831673 0.555266 71.1689 73.2065)" stroke="#5A5351" stroke-width="2" stroke-linecap="round"/>
<line x1="1" y1="-1" x2="5.02425" y2="-1" transform="matrix(-0.554133 -0.832428 -0.831672 0.555267 76.1763 71.5349)" stroke="#5A5351" stroke-width="2" stroke-linecap="round"/>
<path d="M14.419 56.4907C14.419 61.1067 18.5291 64.8486 23.5991 64.8486C28.6692 64.8486 32.7793 61.1067 32.7793 56.4907" stroke="#5A5351" stroke-width="2" stroke-linecap="round"/>
<line x1="1" y1="-1" x2="5.02425" y2="-1" transform="matrix(0.554134 -0.832427 0.831673 0.555266 16.0879 73.2065)" stroke="#5A5351" stroke-width="2" stroke-linecap="round"/>
<line x1="1" y1="-1" x2="5.02424" y2="-1" transform="matrix(0.554132 -0.832429 0.831671 0.555268 11.0806 71.5349)" stroke="#5A5351" stroke-width="2" stroke-linecap="round"/>
</svg>
