<svg width="204" height="212" viewBox="0 0 204 212" fill="none" xmlns="http://www.w3.org/2000/svg">
<path fill-rule="evenodd" clip-rule="evenodd" d="M97.0966 2.22045L107.407 12.8376L134.59 40.8294L145.358 51.9185C151.6 43.6384 160.027 38.6741 164.193 36.7018C174.757 31.7004 185.945 47.0027 171.643 55.5205C166.024 58.4223 162.822 61.7314 160.302 67.3071L170.375 77.6794C170.389 77.6942 170.404 77.7091 170.418 77.7239C179.614 74.2462 188.782 74.2771 193.181 74.6819C204.82 75.7529 206.663 94.6191 190.018 94.6731C182.832 94.261 178.073 95.8967 172.144 100.637C171.518 101.517 170.804 102.353 170.002 103.133L134.278 137.823C145.487 142.822 152.808 152.359 155.601 156.824C161.798 166.734 147.903 179.627 137.778 166.415C132.873 159.144 127.733 156.582 116.891 154.708L105.473 165.797C112.598 182.744 104.427 199.99 100.752 205.985C94.642 215.949 76.9072 209.255 84.2231 194.303C87.6521 188.252 88.3638 183.388 86.939 176.378L56.0314 144.551C24.6086 144.262 7.44342 116.907 2.60311 106.857C-4.6755 91.7451 17.1774 75.5427 29.5383 95.9845C35.3602 107.077 42.2514 111.552 57.2718 115.913L79.6429 94.1883L52.4601 66.1965L42.3416 55.7768C39.9722 53.3369 41.5355 49.2409 44.928 49.0002L72.158 47.0679L86.6723 32.973L90.2584 4.50714C90.6776 1.17942 94.76 -0.185722 97.0966 2.22045Z" fill="white"/>
<path fill-rule="evenodd" clip-rule="evenodd" d="M86.7015 32.7418L90.2584 4.50712C90.6776 1.1794 94.76 -0.185743 97.0966 2.22043L107.407 12.8376L114.443 20.0827C108.959 25.883 97.0773 31.0907 86.7015 32.7418ZM145.213 51.7682C139.608 60.6284 134.819 70.9605 136.287 77.4553C137.693 83.6811 146.9 80.6985 156.88 77.4655L156.88 77.4655C160.321 76.3509 163.853 75.2066 167.19 74.3995L160.302 67.3071C161.827 63.9328 163.602 61.3886 166.011 59.2625L159.08 39.535C154.844 42.2011 149.597 46.2951 145.358 51.9185L145.213 51.7682ZM31.2401 98.9844C30.6591 98.0409 30.0938 97.0428 29.5384 95.9844C17.1775 75.5426 -4.6754 91.745 2.60321 106.857C4.22041 110.215 7.21345 115.504 11.6544 121.071L31.2401 98.9844ZM57.5219 115.67C59.127 117.829 60.5929 120.693 62.102 123.641C67.0633 133.335 72.4926 143.942 84.8785 133.421C91.6178 127.696 96.9058 114.691 91.4285 104.902C85.9512 95.1128 78.7989 95.0079 78.7989 95.0079L57.5219 115.67Z" fill="#827B79"/>
<path d="M108.123 68.5456C112.15 72.6925 111.532 75.3069 109.528 77.253C107.524 79.1991 104.097 78.92 101.873 76.6298" stroke="#5A5351" stroke-width="2" stroke-linecap="round"/>
<path d="M108.123 68.5456C112.15 72.6925 114.781 72.1516 116.785 70.2055C118.789 68.2594 118.611 64.8252 116.387 62.5349" stroke="#5A5351" stroke-width="2" stroke-linecap="round"/>
<ellipse cx="105.606" cy="65.9538" rx="5.05796" ry="3.61283" transform="rotate(-44.16 105.606 65.9538)" fill="#5A5351"/>
<path d="M49.3212 56.7412L55.377 62.9772C55.7617 63.3734 56.3948 63.3826 56.791 62.9979L66.145 53.9142C66.8548 53.2249 66.2396 52.0337 65.2666 52.2135L49.8569 55.0611C49.0715 55.2063 48.7648 56.1682 49.3212 56.7412Z" fill="#FFC0CB"/>
<path d="M97.5443 8.90456L103.6 15.1406C103.985 15.5368 103.976 16.1699 103.579 16.5546L94.2253 25.6383C93.5155 26.3276 92.3428 25.6777 92.5511 24.7104L95.8493 9.39075C96.0174 8.60994 96.9879 8.33157 97.5443 8.90456Z" fill="#FFC0CB"/>
<path d="M121.786 41.8115C118.45 38.3761 112.96 38.2956 109.525 41.6317C106.089 44.9679 106.009 50.4573 109.345 53.8928" stroke="#8B8483" stroke-width="2" stroke-linecap="round"/>
<path d="M93.794 68.9944C90.4578 65.5589 84.9684 65.4785 81.533 68.8146C78.0975 72.1507 78.017 77.6402 81.3532 81.0756" stroke="#5A5351" stroke-width="3" stroke-linecap="round"/>
<line x1="1" y1="-1" x2="4.21049" y2="-1" transform="matrix(-0.9776 -0.210471 -0.210471 0.9776 74.2758 75.8619)" stroke="#5A5351" stroke-width="2" stroke-linecap="round"/>
<path d="M75.2706 70.088L73.0024 69.5997" stroke="#5A5351" stroke-width="2" stroke-linecap="round"/>
<path d="M109.345 53.8927C106.009 50.4573 106.089 44.9678 109.525 41.6317C112.96 38.2955 118.45 38.376 121.786 41.8115" stroke="#5A5351" stroke-width="3" stroke-linecap="round"/>
<line x1="115.617" y1="33.7827" x2="115.033" y2="30.6256" stroke="#5A5351" stroke-width="2" stroke-linecap="round"/>
<line x1="111.5" y1="35.7662" x2="110.916" y2="32.6092" stroke="#5A5351" stroke-width="2" stroke-linecap="round"/>
</svg>
