<svg width="169" height="170" viewBox="0 0 169 170" fill="none" xmlns="http://www.w3.org/2000/svg">
<g id="Dia">
<g id="Cat_Body">
<path id="Union" fill-rule="evenodd" clip-rule="evenodd" d="M0.503891 6.58888V18.3268V59.6063V105.472C0.503891 113.623 4.04706 120.946 9.67711 125.985V158.218C9.67711 164.551 14.8109 169.685 21.1436 169.685C27.4764 169.685 32.6102 164.551 32.6102 158.218V132.992H37.1968V158.218C37.1968 164.551 42.3305 169.685 48.6633 169.685C54.9961 169.685 60.1298 164.551 60.1298 158.218V132.992H87.6495V158.218C87.6495 164.551 92.7833 169.685 99.1161 169.685C105.449 169.685 110.583 164.551 110.583 158.218V132.992H113.64V158.218C113.64 164.551 118.774 169.685 125.107 169.685C131.44 169.685 136.573 164.551 136.573 158.218V132.992V125.348V84.0681L136.573 84.0681C164.093 68.7794 169.101 35.1442 168.68 22.9133C168.068 5.17836 139.631 0.744639 138.102 25.971C138.102 39.7308 133.516 47.3752 120.52 59.6062L120.52 59.6063L81.534 59.6063V18.3268V7.00976C81.534 1.81005 75.4567 -1.01736 71.4793 2.33195L52.4855 18.3268H31.0813L10.4397 1.81349C6.43549 -1.38987 0.503891 1.46101 0.503891 6.58888Z" fill="white"/>
</g>
<path id="Intersect" fill-rule="evenodd" clip-rule="evenodd" d="M138.376 23.3156C141.679 1.08757 168.091 5.82848 168.68 22.9133C168.749 24.9262 168.671 27.5189 168.371 30.5142L138.376 23.3156ZM0.503891 76.647V105.472C0.503891 113.623 4.04706 120.946 9.67711 125.985V156.105C16.8159 152.821 23.6947 148.175 24.9658 142.165C27.7688 128.915 31.6929 99.6628 24.9658 88.6549C20.0679 80.6402 9.19945 77.5423 0.503891 76.647ZM30.3015 17.7029L10.4397 1.81349C6.43549 -1.38987 0.503891 1.46101 0.503891 6.58888V18.3268V29.0279C9.1371 28.9038 21.6084 24.0194 30.3015 17.7029ZM128.209 51.7527C126.061 54.2143 123.514 56.7885 120.52 59.6062L120.52 59.6063L81.534 59.6064C81.534 59.6064 76.183 64.9574 79.2407 76.4239C82.2985 87.8905 95.8974 93.8638 105.232 93.2415C127.817 91.7358 129.148 64.0316 128.209 51.7527Z" fill="#827B79"/>
<g id="Face">
<g id="Eye_Right_Open">
<circle id="Ellipse 2" cx="12.9954" cy="12.9954" r="12.9954" transform="matrix(-1 0 0 1 34.139 35.1445)" fill="#96DBB9"/>
<circle id="Ellipse 3" cx="9.17322" cy="9.17322" r="9.17322" transform="matrix(-1 0 0 1 31.0813 39.731)" fill="#22201D"/>
<line id="Line 1" x1="1.52887" y1="-1.52887" x2="3.98355" y2="-1.52887" transform="matrix(-0.5547 -0.83205 -0.83205 0.5547 9.70081 35.626)" stroke="#5A5351" stroke-width="3.05774" stroke-linecap="round"/>
<line id="Line 2" x1="1.52887" y1="-1.52887" x2="3.98355" y2="-1.52887" transform="matrix(-0.5547 -0.83205 -0.83205 0.5547 14.2875 34.0972)" stroke="#5A5351" stroke-width="3.05774" stroke-linecap="round"/>
</g>
<g id="Eye_Left_Open">
<circle id="Ellipse 2_2" cx="12.9954" cy="12.9954" r="12.9954" transform="matrix(-1 0 0 1 73.8896 35.1445)" fill="#96DBB9"/>
<circle id="Ellipse 3_2" cx="9.17322" cy="9.17322" r="9.17322" transform="matrix(-1 0 0 1 69.3031 39.731)" fill="#22201D"/>
<line id="Line 3" x1="73.4893" y1="33.5058" x2="74.8509" y2="31.4634" stroke="#5A5351" stroke-width="3.05774" stroke-linecap="round"/>
<line id="Line 4" x1="68.9027" y1="31.977" x2="70.2644" y2="29.9346" stroke="#5A5351" stroke-width="3.05774" stroke-linecap="round"/>
</g>
<g id="Muzzle">
<path id="Ellipse 5" d="M41.019 61.1353C41.019 67.2507 43.4147 68.7796 46.37 68.7796C49.3253 68.7796 51.7211 66.0416 51.7211 62.6641" stroke="#5A5351" stroke-width="3.05774" stroke-linecap="round"/>
<path id="Ellipse 6" d="M41.019 61.1353C41.019 67.2507 38.6232 68.7796 35.6679 68.7796C32.7126 68.7796 30.3169 66.0416 30.3169 62.6641" stroke="#5A5351" stroke-width="3.05774" stroke-linecap="round"/>
<ellipse id="Ellipse 7" cx="5.35105" cy="3.82218" rx="5.35105" ry="3.82218" transform="matrix(-1 0 0 1 46.37 53.491)" fill="#5A5351"/>
</g>
<g id="Ears">
<path id="Vector 5" d="M76.9474 9.71707V17.5624C76.9474 18.4068 76.2629 19.0913 75.4185 19.0913H63.6505C62.1378 19.0913 61.5438 17.1294 62.8024 16.2903L74.5705 8.44498C75.5865 7.76763 76.9474 8.49597 76.9474 9.71707Z" fill="#FFC0CB"/>
<path id="Vector 6" d="M5.09045 8.95267V16.798C5.09045 17.6424 5.77495 18.3269 6.61933 18.3269H18.3874C19.9001 18.3269 20.4941 16.365 19.2355 15.5259L7.46739 7.68057C6.45137 7.00323 5.09045 7.73157 5.09045 8.95267Z" fill="#FFC0CB"/>
</g>
</g>
</g>
</svg>
