<svg width="200" height="180" viewBox="0 0 200 180" fill="none" xmlns="http://www.w3.org/2000/svg">
<path fill-rule="evenodd" clip-rule="evenodd" d="M178.06 11.0075V25.8071V64.8256V111.079C192.816 119.92 197.266 137.168 198.25 143.836C199.956 155.399 182.058 161.643 178.077 145.48C176.935 139.239 174.692 135.207 170.063 131.159C167.83 132.654 165.243 133.663 162.456 134.034C164.487 149.769 155.605 163.44 151.593 168.402C144.245 177.491 127.526 168.558 136.716 154.679C141.471 148.365 142.547 143.116 141.423 134.192H93.6482C98.1298 145.538 96.7457 157.391 95.6434 162.516C93.1857 173.942 74.2345 173.512 76.1752 156.98C77.6797 148.588 75.9236 143.233 69.8796 134.769C63.0135 151.464 45.4625 158.014 38.7264 159.734C27.4019 162.626 19.3424 145.468 35.0071 139.839C41.6824 137.887 45.5817 134.893 49.4431 128.871V93.4839L49.4314 93.4951C16.1934 87.7146 4.91744 55.3137 2.37068 44.0296C-1.32213 27.6677 23.6153 16.796 31.0612 39.4943C34.1936 51.4399 39.7849 57.353 53.0231 64.8256L101.468 64.8256V25.8071V11.2828C101.468 7.88179 105.443 6.03244 108.044 8.22315L128.925 25.8071H149.157L171.561 7.88403C174.18 5.78879 178.06 7.65349 178.06 11.0075Z" fill="white"/>
<path fill-rule="evenodd" clip-rule="evenodd" d="M149.339 25.6615L171.561 7.88403C174.18 5.78879 178.06 7.65349 178.06 11.0075V25.8071V35.9063C170.085 36.2472 157.933 31.7055 149.339 25.6615ZM178.06 80.8244C169.67 81.507 158.615 84.3412 153.761 92.2831C150.194 98.12 157.974 105.434 165.961 112.942C172.211 118.818 178.588 124.813 179.751 130.312C181.574 138.929 191.151 138.767 196.949 137.827C194.691 129.717 189.441 117.898 178.06 111.079V80.8244ZM33.179 45.7728C32.3574 43.8672 31.6638 41.7924 31.0612 39.4943C23.6153 16.796 -1.32213 27.6677 2.37068 44.0296C3.1462 47.4657 4.73117 52.86 7.49923 58.8645L33.179 45.7728ZM100.291 64.8256L56.0056 64.8256C56.3824 77.6039 60.3713 95.4505 77.8918 96.6185C86.7147 97.2067 99.5687 91.5605 102.459 80.722C105.349 69.8836 100.291 64.8256 100.291 64.8256Z" fill="#827B79"/>
<path d="M139.764 66.2707C139.764 72.0512 137.499 73.4964 134.706 73.4964C131.912 73.4964 129.648 70.9083 129.648 67.7159" stroke="#5A5351" stroke-width="2" stroke-linecap="round"/>
<path d="M139.764 66.2707C139.764 72.0512 142.028 73.4964 144.822 73.4964C147.615 73.4964 149.88 70.9083 149.88 67.7159" stroke="#5A5351" stroke-width="2" stroke-linecap="round"/>
<ellipse cx="139.764" cy="62.6579" rx="5.05796" ry="3.61283" fill="#5A5351"/>
<path d="M105.803 16.8371V25.5296C105.803 26.0819 106.251 26.5296 106.803 26.5296H119.842C120.831 26.5296 121.22 25.2464 120.397 24.6976L107.358 16.0051C106.693 15.562 105.803 16.0384 105.803 16.8371Z" fill="#FFC0CB"/>
<path d="M173.724 16.1146V24.8071C173.724 25.3594 173.277 25.8071 172.724 25.8071H159.686C158.696 25.8071 158.308 24.5239 159.131 23.975L172.17 15.2825C172.834 14.8395 173.724 15.3159 173.724 16.1146Z" fill="#FFC0CB"/>
<path d="M168.19 56.6101C168.19 51.8213 164.308 47.9393 159.519 47.9393C154.73 47.9393 150.848 51.8213 150.848 56.6101" stroke="#8B8483" stroke-width="2" stroke-linecap="round"/>
<path d="M129.171 56.6101C129.171 51.8213 125.289 47.9393 120.501 47.9393C115.712 47.9393 111.83 51.8213 111.83 56.6101" stroke="#5A5351" stroke-width="3" stroke-linecap="round"/>
<line x1="1" y1="-1" x2="4.21049" y2="-1" transform="matrix(-0.5547 -0.83205 -0.83205 0.5547 110.385 47.9393)" stroke="#5A5351" stroke-width="2" stroke-linecap="round"/>
<path d="M115.121 44.4901L113.834 42.5596" stroke="#5A5351" stroke-width="2" stroke-linecap="round"/>
<path d="M150.848 56.61C150.848 51.8213 154.73 47.9392 159.519 47.9392C164.308 47.9392 168.19 51.8213 168.19 56.61" stroke="#5A5351" stroke-width="3" stroke-linecap="round"/>
<line x1="169.358" y1="46.5525" x2="171.139" y2="43.8812" stroke="#5A5351" stroke-width="2" stroke-linecap="round"/>
<line x1="165.022" y1="45.1074" x2="166.803" y2="42.4361" stroke="#5A5351" stroke-width="2" stroke-linecap="round"/>
</svg>
