<svg width="200" height="180" viewBox="0 0 200 180" fill="none" xmlns="http://www.w3.org/2000/svg">
<path fill-rule="evenodd" clip-rule="evenodd" d="M12.8835 11.0075V28.2405H44.8278L19.3823 7.88403C16.7632 5.78879 12.8835 7.65349 12.8835 11.0075ZM97.536 28.2405V11.2828C97.536 7.88179 93.5609 6.03244 90.9594 8.22315L67.1889 28.2405H97.536ZM97.536 28.2405H12.8835V64.9764V71.3653V153.99C12.8835 163.931 20.9424 171.99 30.8835 171.99H133.816C133.877 171.998 133.938 172.006 134 172.014C134.044 172.006 134.089 171.998 134.133 171.99H134.272V171.965C170.846 165.258 184.716 123.279 187.558 110.708C191.689 92.4347 165.737 81.9688 157.436 107.325C154.405 118.886 148.066 134.763 134.272 140.03V99.9764C134.272 80.6465 118.602 64.9764 99.2719 64.9764H97.536V28.2405Z" fill="white"/>
<path fill-rule="evenodd" clip-rule="evenodd" d="M134.272 139.557V99.9764C134.272 86.1704 126.278 74.2315 114.667 68.5353C107.293 72.3083 98.6698 77.6409 93.7643 83.8475C84.5281 95.5333 77.7922 107.806 80.9866 119.785C84.181 131.764 118.328 142.796 128.08 142.146C130.658 141.974 132.693 141.063 134.272 139.557ZM183.919 122.688C185.757 117.72 186.928 113.493 187.558 110.708C191.594 92.8522 166.907 82.4511 158.032 105.643L183.919 122.688ZM12.8835 94.6361V153.99C12.8835 158.241 14.3575 162.148 16.8222 165.228C24.7133 166.164 30.6104 165.39 31.4729 161.312C34.4011 147.47 27.2954 113.212 20.2676 101.712C18.4598 98.7541 15.8734 96.437 12.8835 94.6361ZM12.8835 38.2475C20.9292 40.0443 34.9238 35.1924 45.3323 28.2405H12.8835V38.2475ZM12.8835 28.2405V11.0075C12.8835 7.65349 16.7632 5.78879 19.3823 7.88403L44.8278 28.2405H12.8835Z" fill="#827B79"/>
<path d="M55.2098 72.9625C55.2098 79.3513 57.7126 82.5458 60.8 82.5458" stroke="#5A5351" stroke-width="2" stroke-linecap="round"/>
<path d="M55.2098 72.9625C55.2098 79.3513 52.7069 82.5458 49.6195 82.5458" stroke="#5A5351" stroke-width="2" stroke-linecap="round"/>
<path d="M50.1195 68.9694C50.1195 69.8687 50.629 70.73 51.5475 71.3861C52.4651 72.0415 53.7583 72.4625 55.2098 72.4625C56.6613 72.4625 57.9545 72.0415 58.8721 71.3861C59.7906 70.73 60.3 69.8687 60.3 68.9694C60.3 68.0702 59.7906 67.2089 58.8721 66.5528C57.9545 65.8974 56.6613 65.4764 55.2098 65.4764C53.7583 65.4764 52.4651 65.8974 51.5475 66.5528C50.629 67.2089 50.1195 68.0702 50.1195 68.9694Z" fill="#5A5351" stroke="#5A5351"/>
<path d="M92.7444 18.1299V28.0391C92.7444 28.5914 92.2967 29.0391 91.7444 29.0391H76.8806C75.8912 29.0391 75.5026 27.7558 76.3259 27.207L91.1897 17.2978C91.8542 16.8548 92.7444 17.3312 92.7444 18.1299Z" fill="#FFC0CB"/>
<path d="M17.6753 17.3313V27.2405C17.6753 27.7927 18.123 28.2405 18.6753 28.2405H33.5391C34.5285 28.2405 34.917 26.9572 34.0938 26.4084L19.23 16.4992C18.5654 16.0562 17.6753 16.5326 17.6753 17.3313Z" fill="#FFC0CB"/>
<path d="M66.6117 60.6879C66.6117 65.0985 70.5447 68.674 75.3963 68.674C80.248 68.674 84.181 65.0985 84.181 60.6879" stroke="#5A5351" stroke-width="3" stroke-linecap="round"/>
<line x1="1" y1="-1" x2="4.75884" y2="-1" transform="matrix(-0.5547 -0.83205 -0.83205 0.5547 80.9866 76.6601)" stroke="#5A5351" stroke-width="2" stroke-linecap="round"/>
<line x1="1" y1="-1" x2="4.75884" y2="-1" transform="matrix(-0.5547 -0.83205 -0.83205 0.5547 85.7782 75.0629)" stroke="#5A5351" stroke-width="2" stroke-linecap="round"/>
<path d="M26.6812 60.6879C26.6812 65.0985 30.6143 68.674 35.4659 68.674C40.3176 68.674 44.2506 65.0985 44.2506 60.6879" stroke="#5A5351" stroke-width="3" stroke-linecap="round"/>
<line x1="28.0011" y1="75.2733" x2="30.0861" y2="72.1458" stroke="#5A5351" stroke-width="2" stroke-linecap="round"/>
<line x1="23.2095" y1="73.6761" x2="25.2945" y2="70.5486" stroke="#5A5351" stroke-width="2" stroke-linecap="round"/>
</svg>
