<svg width="200" height="180" viewBox="0 0 200 180" fill="none" xmlns="http://www.w3.org/2000/svg">
<path fill-rule="evenodd" clip-rule="evenodd" d="M181.055 11.0075V26.2533V66.0248V118.73C181.055 125.325 177.507 131.092 172.217 134.227V164.082C172.217 168.5 168.635 172.082 164.217 172.082H158.121C153.703 172.082 150.121 168.5 150.121 164.082V136.73H145.702V164.082C145.702 168.5 142.121 172.082 137.702 172.082H131.607C127.189 172.082 123.607 168.5 123.607 164.082V136.73H97.0927V164.082C97.0927 168.5 93.511 172.082 89.0927 172.082H82.9975C78.5792 172.082 74.9975 168.5 74.9975 164.082V136.73H72.0514V164.082C72.0514 168.5 68.4697 172.082 64.0514 172.082H57.9562C53.5379 172.082 49.9562 168.5 49.9562 164.082V136.73V129.365L49.9562 89.593C23.4419 74.8629 18.6164 42.4565 19.0228 30.6723C19.612 13.5853 47.0101 9.31359 48.4832 33.6184C48.4832 46.8755 52.9022 54.2406 65.4228 66.0248H102.985V26.2533V11.2828C102.985 7.88178 106.96 6.03244 109.561 8.22315L130.972 26.2533L151.594 26.2533L174.556 7.88404C177.175 5.78879 181.055 7.65348 181.055 11.0075Z" fill="white"/>
<path fill-rule="evenodd" clip-rule="evenodd" d="M48.2192 31.0597C45.0373 9.64402 19.5904 14.2117 19.0228 30.6723C18.9559 32.6117 19.0307 35.1096 19.3206 37.9954L48.2192 31.0597ZM181.055 82.4428V118.73C181.055 125.325 177.507 131.092 172.217 134.227V158.998C165.339 155.834 158.711 151.357 157.486 145.568C154.786 132.802 151.005 104.618 157.486 94.0121C162.205 86.2901 172.677 83.3055 181.055 82.4428ZM152.346 25.6522L174.556 7.88404C177.175 5.78879 181.055 7.65348 181.055 11.0075V26.2533V36.5633C172.737 36.4438 160.721 31.7379 152.346 25.6522ZM58.0146 58.4582C60.0841 60.8299 62.5385 63.3101 65.4228 66.0248L102.985 66.0248C102.985 66.0248 108.14 71.1803 105.194 82.2279C102.248 93.2756 89.1462 99.0307 80.1531 98.4311C58.3924 96.9804 57.1104 70.2886 58.0146 58.4582Z" fill="#827B79"/>
<circle cx="161.169" cy="54.9771" r="12.5206" fill="#96DBB9"/>
<circle cx="160.433" cy="55.7136" r="8.8381" fill="#22201D"/>
<line x1="171.916" y1="41.5337" x2="173.753" y2="38.7788" stroke="#5A5351" stroke-width="2" stroke-linecap="round"/>
<line x1="167.497" y1="40.0607" x2="169.334" y2="37.3057" stroke="#5A5351" stroke-width="2" stroke-linecap="round"/>
<circle cx="122.871" cy="54.9771" r="12.5206" fill="#96DBB9"/>
<circle cx="123.607" cy="55.7136" r="8.8381" fill="#22201D"/>
<line x1="1" y1="-1" x2="4.31104" y2="-1" transform="matrix(-0.5547 -0.83205 -0.83205 0.5547 110.327 42.9205)" stroke="#5A5351" stroke-width="2" stroke-linecap="round"/>
<line x1="1" y1="-1" x2="4.31104" y2="-1" transform="matrix(-0.5547 -0.83205 -0.83205 0.5547 114.746 41.4474)" stroke="#5A5351" stroke-width="2" stroke-linecap="round"/>
<path d="M142.02 67.4978C142.02 73.3898 139.712 74.8629 136.864 74.8629C134.017 74.8629 131.709 72.2249 131.709 68.9708" stroke="#5A5351" stroke-width="2" stroke-linecap="round"/>
<path d="M142.02 67.4978C142.02 73.3898 144.328 74.8629 147.175 74.8629C150.023 74.8629 152.331 72.2249 152.331 68.9708" stroke="#5A5351" stroke-width="2" stroke-linecap="round"/>
<ellipse cx="142.02" cy="63.8152" rx="5.15556" ry="3.68254" fill="#5A5351"/>
<path d="M107.404 17.0742V25.9898C107.404 26.5421 107.852 26.9898 108.404 26.9898H121.777C122.767 26.9898 123.155 25.7066 122.332 25.1577L108.959 16.2421C108.294 15.7991 107.404 16.2755 107.404 17.0742Z" fill="#FFC0CB"/>
<path d="M176.636 16.3377V25.2533C176.636 25.8056 176.188 26.2533 175.636 26.2533H162.262C161.273 26.2533 160.884 24.9701 161.708 24.4212L175.081 15.5056C175.746 15.0626 176.636 15.539 176.636 16.3377Z" fill="#FFC0CB"/>
</svg>
