<svg width="200" height="180" viewBox="0 0 200 180" fill="none" xmlns="http://www.w3.org/2000/svg">
<path fill-rule="evenodd" clip-rule="evenodd" d="M21.9402 11.0075V25.8071V64.8256V111.079C7.1835 119.92 2.73416 137.168 1.75015 143.836C0.0438085 155.399 17.942 161.643 21.9233 145.48C23.0653 139.239 25.3084 135.207 29.9374 131.159C32.1703 132.654 34.7565 133.663 37.5443 134.034C35.5132 149.769 44.3951 163.44 48.4069 168.402C55.7551 177.491 72.474 168.558 63.284 154.679C58.5294 148.365 57.4534 143.116 58.5774 134.192H106.352C101.87 145.538 103.254 157.391 104.357 162.516C106.814 173.942 125.766 173.512 123.825 156.98C122.32 148.588 124.076 143.233 130.12 134.769C136.987 151.464 154.538 158.014 161.274 159.734C172.598 162.626 180.658 145.468 164.993 139.839C158.318 137.887 154.418 134.893 150.557 128.871V93.4839L150.569 93.4951C183.807 87.7146 195.083 55.3137 197.629 44.0296C201.322 27.6677 176.385 16.796 168.939 39.4943C165.806 51.4399 160.215 57.353 146.977 64.8256L98.5322 64.8256V25.8071V11.2828C98.5322 7.88179 94.5571 6.03244 91.9556 8.22315L71.0747 25.8071H50.8429L28.439 7.88403C25.82 5.78879 21.9402 7.65349 21.9402 11.0075Z" fill="white"/>
<path fill-rule="evenodd" clip-rule="evenodd" d="M50.6609 25.6615L28.439 7.88403C25.82 5.78879 21.9402 7.65349 21.9402 11.0075V25.8071V35.9063C29.9151 36.2472 42.067 31.7055 50.6609 25.6615ZM21.9402 80.8244C30.3298 81.507 41.3855 84.3412 46.2389 92.2831C49.8059 98.12 42.0257 105.434 34.0391 112.942C27.7888 118.818 21.4121 124.813 20.2489 130.312C18.4259 138.929 8.84868 138.767 3.05133 137.827C5.30911 129.717 10.5591 117.898 21.9402 111.079V80.8244ZM166.821 45.7728C167.643 43.8672 168.336 41.7924 168.939 39.4943C176.385 16.796 201.322 27.6677 197.629 44.0296C196.854 47.4657 195.269 52.86 192.501 58.8645L166.821 45.7728ZM99.7087 64.8256L143.994 64.8256C143.618 77.6039 139.629 95.4505 122.108 96.6185C113.285 97.2067 100.431 91.5605 97.541 80.722C94.6508 69.8836 99.7087 64.8256 99.7087 64.8256Z" fill="#827B79"/>
<path d="M60.2363 66.2707C60.2363 72.0512 62.5008 73.4964 65.2942 73.4964C68.0876 73.4964 70.3522 70.9083 70.3522 67.7159" stroke="#5A5351" stroke-width="2" stroke-linecap="round"/>
<path d="M60.2363 66.2707C60.2363 72.0512 57.9718 73.4964 55.1783 73.4964C52.3849 73.4964 50.1204 70.9083 50.1204 67.7159" stroke="#5A5351" stroke-width="2" stroke-linecap="round"/>
<ellipse cx="5.05796" cy="3.61283" rx="5.05796" ry="3.61283" transform="matrix(-1 0 0 1 65.2942 59.0451)" fill="#5A5351"/>
<path d="M94.1968 16.8371V25.5296C94.1968 26.0819 93.7491 26.5296 93.1968 26.5296H80.158C79.1686 26.5296 78.78 25.2464 79.6033 24.6976L92.6421 16.0051C93.3066 15.562 94.1968 16.0384 94.1968 16.8371Z" fill="#FFC0CB"/>
<path d="M26.2756 16.1146V24.8071C26.2756 25.3594 26.7234 25.8071 27.2756 25.8071H40.3144C41.3038 25.8071 41.6924 24.5239 40.8691 23.975L27.8303 15.2825C27.1658 14.8395 26.2756 15.3159 26.2756 16.1146Z" fill="#FFC0CB"/>
<path d="M31.81 56.6101C31.81 51.8213 35.6921 47.9393 40.4808 47.9393C45.2696 47.9393 49.1516 51.8213 49.1516 56.6101" stroke="#8B8483" stroke-width="2" stroke-linecap="round"/>
<path d="M70.8285 56.6101C70.8285 51.8213 74.7105 47.9393 79.4993 47.9393C84.288 47.9393 88.17 51.8213 88.17 56.6101" stroke="#5A5351" stroke-width="3" stroke-linecap="round"/>
<line x1="89.3379" y1="46.5525" x2="91.1187" y2="43.8812" stroke="#5A5351" stroke-width="2" stroke-linecap="round"/>
<path d="M84.879 44.4901L86.1661 42.5596" stroke="#5A5351" stroke-width="2" stroke-linecap="round"/>
<path d="M49.1515 56.61C49.1515 51.8213 45.2695 47.9392 40.4807 47.9392C35.692 47.9392 31.8099 51.8213 31.8099 56.61" stroke="#5A5351" stroke-width="3" stroke-linecap="round"/>
<line x1="1" y1="-1" x2="4.21049" y2="-1" transform="matrix(-0.5547 -0.83205 -0.83205 0.5547 30.3649 47.9392)" stroke="#5A5351" stroke-width="2" stroke-linecap="round"/>
<line x1="1" y1="-1" x2="4.21049" y2="-1" transform="matrix(-0.5547 -0.83205 -0.83205 0.5547 34.7003 46.4941)" stroke="#5A5351" stroke-width="2" stroke-linecap="round"/>
</svg>
