<svg width="220" height="200" viewBox="0 0 220 200" fill="none" xmlns="http://www.w3.org/2000/svg">
<path fill-rule="evenodd" clip-rule="evenodd" d="M187.496 7.77848C187.496 4.85109 184.539 3.05552 182.043 4.04452C181.686 4.1858 181.339 4.38392 181.012 4.64368L155.705 24.701L133.451 24.7009L109.812 4.97918C107.207 2.80594 103.25 4.65821 103.25 8.05061V24.7009V24.701V38.025C65.7046 40.5167 35.0064 62.5143 26.7387 91.4381C16.9533 101.634 10.9268 115.443 10.9268 130.709C10.9268 162.299 36.7345 187.654 68.2551 187.654C77.0917 187.654 84.2551 180.49 84.2551 171.654C84.2551 162.817 77.0917 155.654 68.2551 155.654C54.1257 155.654 42.9268 144.345 42.9268 130.709C42.9268 130.369 42.9337 130.03 42.9475 129.693C53.4669 131.587 67.4014 129.791 81.7831 127.937C92.2885 126.582 103.032 125.197 112.858 125.197C123.149 125.197 133.534 126.716 143.186 128.129L143.186 128.129C156.428 130.066 168.288 131.802 176.631 129.134H211.263C215.681 129.134 219.263 125.552 219.263 121.134V113.512C219.263 109.094 215.681 105.512 211.263 105.512H189.065C189.078 103.026 189.119 100.573 189.159 98.1583C189.329 87.9823 189.487 78.4974 187.496 70.1991L187.496 24.701V7.77848Z" fill="white"/>
<path d="M97.7573 86.6142C97.7573 86.6142 81.1625 136.226 26.2275 104.724C18.2797 84.252 55.1202 39.3701 102.526 39.3701C101.731 71.6536 100.936 71.6536 97.7573 86.6142Z" fill="#827B79"/>
<path d="M68.2549 187.654C77.0915 187.654 84.2549 180.49 84.2549 171.654C84.2549 162.817 77.0915 155.654 68.2549 155.654V187.654ZM68.2549 155.654C61.5169 155.654 55.444 153.085 50.913 148.89L29.1729 172.371C39.4135 181.852 53.1801 187.654 68.2549 187.654V155.654Z" fill="#827B79"/>
<path d="M187.496 7.77847V24.701C187.496 24.701 188.266 42.5198 185.087 42.5198C171.258 42.5198 155.705 24.701 155.705 24.701L181.012 4.64367C183.633 2.56559 187.496 4.43289 187.496 7.77847Z" fill="#827B79"/>
<path d="M203.367 129.134C203.367 129.134 192.022 129.956 188.266 125.197C182.263 117.59 203.367 105.512 203.367 105.512H211.262C215.681 105.512 219.262 109.094 219.262 113.512V121.134C219.262 125.552 215.681 129.134 211.262 129.134H203.367Z" fill="#827B79"/>
<path d="M108.019 14.7486V24.4881C108.019 25.0404 108.466 25.4881 109.019 25.4881H123.765C124.756 25.4881 125.143 24.2002 124.316 23.6537L109.57 13.9141C108.905 13.475 108.019 13.9518 108.019 14.7486Z" fill="#FFC0CB"/>
<path d="M182.728 13.9612V23.7007C182.728 24.253 182.28 24.7007 181.728 24.7007H166.981C165.99 24.7007 165.603 23.4128 166.43 22.8663L181.176 13.1268C181.841 12.6877 182.728 13.1645 182.728 13.9612Z" fill="#FFC0CB"/>
<path d="M144.774 63.4275C144.774 74.0157 144.774 72.8763 139.21 72.8763" stroke="#5A5351" stroke-width="3" stroke-linecap="round"/>
<path d="M144.774 63.4275C144.774 74.0157 144.774 72.8763 150.337 72.8763" stroke="#5A5351" stroke-width="3" stroke-linecap="round"/>
<path d="M149.837 59.4905C149.837 60.3722 149.333 61.2194 148.419 61.8662C147.506 62.5122 146.219 62.9275 144.774 62.9275C143.329 62.9275 142.042 62.5122 141.129 61.8662C140.215 61.2194 139.71 60.3722 139.71 59.4905C139.71 58.6088 140.215 57.7616 141.129 57.1147C142.042 56.4688 143.329 56.0535 144.774 56.0535C146.219 56.0535 147.506 56.4688 148.419 57.1147C149.333 57.7616 149.837 58.6088 149.837 59.4905Z" fill="#5A5351" stroke="#5A5351"/>
<path d="M133.426 51.3252C133.426 55.6739 129.512 59.1992 124.684 59.1992C119.856 59.1992 115.941 55.6739 115.941 51.3252" stroke="#5A5351" stroke-width="2" stroke-linecap="round"/>
<line x1="1" y1="-1" x2="4.69445" y2="-1" transform="matrix(0.558282 -0.829651 0.834425 0.551121 119.121 67.0732)" stroke="#5A5351" stroke-width="2" stroke-linecap="round"/>
<line x1="1" y1="-1" x2="4.69445" y2="-1" transform="matrix(0.558282 -0.829651 0.834425 0.551121 114.352 65.4985)" stroke="#5A5351" stroke-width="2" stroke-linecap="round"/>
<path d="M173.166 51.3252C173.166 55.6739 169.252 59.1992 164.423 59.1992C159.595 59.1992 155.681 55.6739 155.681 51.3252" stroke="#5A5351" stroke-width="2" stroke-linecap="round"/>
<line x1="1" y1="-1" x2="4.69445" y2="-1" transform="matrix(-0.558282 -0.829651 -0.834425 0.551121 171.576 67.0732)" stroke="#5A5351" stroke-width="2" stroke-linecap="round"/>
<line x1="1" y1="-1" x2="4.69445" y2="-1" transform="matrix(-0.558282 -0.829651 -0.834425 0.551121 176.345 65.4985)" stroke="#5A5351" stroke-width="2" stroke-linecap="round"/>
</svg>
