<svg width="48" height="45" viewBox="0 0 48 45" fill="none" xmlns="http://www.w3.org/2000/svg">
<rect x="12.9412" y="12.9412" width="31.7647" height="15.7647" fill="#FFC453"/>
<rect x="9.64709" y="3.29412" width="3.29412" height="3.29412" fill="#BA2F27"/>
<rect x="32" y="6.58823" width="3.29412" height="3.29412" fill="#BA2F27"/>
<rect x="35.0588" y="9.64706" width="3.29412" height="3.29412" fill="#BA2F27"/>
<rect x="38.3529" y="19.0588" width="3.29412" height="3.29412" fill="black"/>
<rect x="3.29407" y="12.7059" width="3.29412" height="3.52941" fill="#F47533"/>
<rect x="9.64709" y="19.0588" width="3.29412" height="3.29412" fill="#F47533"/>
<rect x="12.7059" y="15.7647" width="3.29412" height="3.29412" fill="#F47533"/>
<rect x="12.7059" y="16" width="3.29412" height="3.29412" fill="#F47533"/>
<rect x="16" y="9.64706" width="19.2941" height="6.35294" fill="#F47533"/>
<rect x="22.3529" y="3.29412" width="9.64706" height="6.35294" fill="#F47533"/>
<rect x="12.7059" y="22.3529" width="3.29412" height="3.29412" fill="#F47533"/>
<rect x="12.7059" y="22.3529" width="3.29412" height="3.29412" fill="#F47533"/>
<rect x="38.3529" y="15.7647" width="3.29412" height="3.29412" fill="white"/>
<rect x="25.4117" y="32" width="6.58824" height="3.29412" fill="#F47533"/>
<rect x="16" y="25.4118" width="19.2941" height="3.29412" fill="#F47533"/>
<rect x="3.29407" y="25.6471" width="3.29412" height="3.29412" fill="#F47533"/>
<rect x="6.35291" y="15.7647" width="3.29412" height="9.88235" fill="#F47533"/>
<rect x="28.7059" y="19.0588" width="3.29412" height="6.58824" fill="#F47533"/>
<rect x="35.2941" y="15.7647" width="3.29412" height="6.58824" fill="black"/>
<rect x="22.3529" y="32" width="3.29412" height="3.29412" fill="#BA2F27"/>
<rect x="12.7059" y="25.6471" width="3.29412" height="3.29412" fill="#BA2F27"/>
<rect x="9.64709" y="22.3529" width="3.29412" height="3.29412" fill="#BA2F27"/>
<rect x="6.58826" y="25.6471" width="3.05882" height="3.29412" fill="#BA2F27"/>
<rect x="3.05884" y="28.9412" width="3.52941" height="3.29412" fill="#BA2F27"/>
<rect y="25.4118" width="3.29412" height="9.88235" fill="#BA2F27"/>
<rect x="3.29407" y="16.2353" width="3.29412" height="9.41177" fill="#BA2F27"/>
<rect x="19.0588" y="41.6471" width="3.29412" height="3.29412" fill="#BA2F27"/>
<rect x="32" y="32" width="3.29412" height="3.29412" fill="#BA2F27"/>
<rect x="25.6471" y="35.0588" width="6.35294" height="3.29412" fill="#BA2F27"/>
<rect x="22.3529" y="38.3529" width="6.35294" height="3.29412" fill="#BA2F27"/>
<rect x="38.3529" y="25.6471" width="6.35294" height="3.29412" fill="#BA2F27"/>
<rect x="16" y="28.7059" width="22.3529" height="3.29412" fill="#BA2F27"/>
<rect x="44.7059" y="16" width="3.29412" height="9.64706" fill="#BA2F27"/>
<rect x="38.3529" y="12.7059" width="6.35294" height="3.29412" fill="#BA2F27"/>
<rect x="22.3529" y="9.64706" width="9.64706" height="3.29412" fill="#BA2F27"/>
<rect x="19.0588" y="3.29412" width="3.29412" height="6.35294" fill="#BA2F27"/>
<rect x="12.7059" width="16.2353" height="3.29412" fill="#BA2F27"/>
<rect x="9.64709" y="16" width="3.29412" height="3.29412" fill="#BA2F27"/>
<rect x="3.29407" y="9.41177" width="3.29412" height="3.29412" fill="#BA2F27"/>
<rect y="6.35294" width="3.29412" height="9.88235" fill="#BA2F27"/>
<rect x="6.58826" y="12.7059" width="3.05882" height="3.52941" fill="#BA2F27"/>
<rect x="16" y="9.64706" width="3.29412" height="3.29412" fill="#BA2F27"/>
<rect x="12.7059" y="12.7059" width="3.29412" height="3.52941" fill="#BA2F27"/>
<rect x="28.7059" y="3.29412" width="3.29412" height="3.29412" fill="#BA2F27"/>
</svg>
