<svg width="40" height="34" viewBox="0 0 40 34" fill="none" xmlns="http://www.w3.org/2000/svg">
<rect x="6.57568" y="3.01367" width="12.3288" height="18.6301" fill="#DADADA"/>
<rect x="21.918" y="3.28711" width="11.7808" height="18.3562" fill="#DADADA"/>
<rect x="12.6025" y="6.02686" width="15.0685" height="21.3699" fill="#DADADA"/>
<rect x="18.356" y="27.397" width="3.56164" height="3.28767" fill="#DADADA"/>
<rect x="33.6987" y="6.02686" width="3.28767" height="9.58904" fill="#DADADA"/>
<rect x="3.56152" y="6.02686" width="3.28767" height="9.58904" fill="#DADADA"/>
<rect x="6.30127" width="9.58904" height="3.28767" fill="black"/>
<rect x="3.2876" y="3.01367" width="3.28767" height="3.28767" fill="black"/>
<rect x="15.6162" y="3.01367" width="3.28767" height="3.28767" fill="black"/>
<rect x="18.6299" y="6.02734" width="3.28767" height="3.28767" fill="black"/>
<rect x="21.644" y="3.01367" width="3.28767" height="3.28767" fill="black"/>
<rect x="33.6987" y="3.01367" width="3.28767" height="3.28767" fill="black"/>
<rect x="33.6987" y="15.3428" width="3.28767" height="3.28767" fill="black"/>
<rect x="30.6846" y="18.356" width="3.28767" height="3.28767" fill="black"/>
<rect x="27.6714" y="21.3701" width="3.28767" height="3.28767" fill="black"/>
<rect x="24.6572" y="24.3838" width="3.28767" height="3.28767" fill="black"/>
<rect x="21.644" y="27.3975" width="3.28767" height="3.28767" fill="black"/>
<rect x="18.356" y="30.4111" width="3.56164" height="3.28767" fill="black"/>
<rect x="15.3428" y="27.3975" width="3.28767" height="3.28767" fill="black"/>
<rect x="12.3286" y="24.3838" width="3.28767" height="3.28767" fill="black"/>
<rect x="9.31543" y="21.3701" width="3.28767" height="3.28767" fill="black"/>
<rect x="6.30127" y="18.356" width="3.28767" height="3.28767" fill="black"/>
<rect x="3.2876" y="15.3428" width="3.28767" height="3.28767" fill="black"/>
<rect x="24.6572" width="9.58904" height="3.28767" fill="black"/>
<rect x="36.7124" y="6.02734" width="3.28767" height="9.58904" fill="black"/>
<rect y="6.02734" width="3.56164" height="9.58904" fill="black"/>
</svg>
