<svg width="48" height="41" viewBox="0 0 48 41" fill="none" xmlns="http://www.w3.org/2000/svg">
<rect x="7.89038" y="3.61644" width="14.7945" height="22.3562" fill="#FF051D"/>
<rect x="26.3014" y="3.94521" width="14.137" height="22.0274" fill="#FF051D"/>
<rect x="15.1233" y="7.23288" width="18.0822" height="25.6438" fill="#FF051D"/>
<rect x="22.0273" y="32.8767" width="4.27397" height="3.94521" fill="#FF051D"/>
<rect x="40.4384" y="7.23288" width="3.94521" height="11.5068" fill="#FF051D"/>
<rect x="4.27393" y="7.23288" width="3.94521" height="11.5068" fill="#FF051D"/>
<rect x="33.2054" y="7.56164" width="3.94521" height="3.94521" fill="white"/>
<rect x="36.8219" y="11.1781" width="3.94521" height="3.94521" fill="white"/>
<rect x="7.56165" width="11.5068" height="3.94521" fill="black"/>
<rect x="3.94519" y="3.61644" width="3.94521" height="3.94521" fill="black"/>
<rect x="18.7397" y="3.61644" width="3.94521" height="3.94521" fill="black"/>
<rect x="22.3562" y="7.23288" width="3.94521" height="3.94521" fill="black"/>
<rect x="25.9727" y="3.61644" width="3.94521" height="3.94521" fill="black"/>
<rect x="40.4384" y="3.61644" width="3.94521" height="3.94521" fill="black"/>
<rect x="40.4384" y="18.411" width="3.94521" height="3.94521" fill="black"/>
<rect x="36.8219" y="22.0274" width="3.94521" height="3.94521" fill="black"/>
<rect x="33.2054" y="25.6438" width="3.94521" height="3.94521" fill="black"/>
<rect x="29.589" y="29.2603" width="3.94521" height="3.94521" fill="black"/>
<rect x="25.9727" y="32.8767" width="3.94521" height="3.94521" fill="black"/>
<rect x="22.0273" y="36.4931" width="4.27397" height="3.94521" fill="black"/>
<rect x="18.411" y="32.8767" width="3.94521" height="3.94521" fill="black"/>
<rect x="14.7946" y="29.2603" width="3.94521" height="3.94521" fill="black"/>
<rect x="11.1781" y="25.6438" width="3.94521" height="3.94521" fill="black"/>
<rect x="7.56165" y="22.0274" width="3.94521" height="3.94521" fill="black"/>
<rect x="3.94519" y="18.411" width="3.94521" height="3.94521" fill="black"/>
<rect x="29.589" width="11.5068" height="3.94521" fill="black"/>
<rect x="44.0548" y="7.23288" width="3.94521" height="11.5068" fill="black"/>
<rect y="7.23288" width="4.27397" height="11.5068" fill="black"/>
</svg>
