<svg width="205" height="213" viewBox="0 0 205 213" fill="none" xmlns="http://www.w3.org/2000/svg">
<path fill-rule="evenodd" clip-rule="evenodd" d="M97.3958 2.29741L107.74 12.9496L87.0053 33.0852L90.5977 4.57074C91.0145 1.26257 95.0729 -0.0945891 97.3958 2.29741ZM52.7931 66.3086L42.6394 55.8528C40.284 53.4273 41.8382 49.3553 45.2108 49.116L72.4912 47.1798L52.7931 66.3086ZM52.7933 66.309L107.74 12.9498L134.923 40.9412L79.9757 94.3004L52.7933 66.309ZM57.6057 116.025L134.924 40.9415L145.692 52.0304C151.933 43.7505 160.36 38.7863 164.526 36.8139C175.09 31.8125 186.278 47.1146 171.977 55.6325C166.357 58.5343 163.155 61.8432 160.636 67.4188L170.752 77.8358C179.947 74.3581 189.115 74.3889 193.515 74.7937C205.153 75.8645 206.996 94.731 190.351 94.7852C183.184 94.3742 178.432 96.0001 172.526 100.711C171.907 101.578 171.202 102.402 170.411 103.17L134.611 137.935C145.82 142.933 153.141 152.47 155.934 156.936C162.131 166.846 148.235 179.739 138.111 166.527C133.206 159.256 128.066 156.694 117.224 154.82L105.806 165.908C112.931 182.855 104.76 200.102 101.085 206.097C94.9749 216.061 77.2402 209.367 84.5562 194.415C87.9851 188.365 88.6969 183.501 87.2724 176.491L56.3637 144.663C24.9412 144.373 7.77639 117.019 2.93618 106.97C-4.34232 91.8576 17.5109 75.655 29.8716 96.0966C35.6936 107.189 42.5848 111.664 57.6057 116.025Z" fill="white"/>
<path fill-rule="evenodd" clip-rule="evenodd" d="M87.0342 32.8539L90.5976 4.57047C91.0144 1.2623 95.0727 -0.0948614 97.3956 2.29714L107.74 12.9493L87.2847 32.8133C87.2011 32.8271 87.1176 32.8406 87.0342 32.8539ZM114.776 20.1946C109.336 25.9483 97.6013 31.1188 87.2854 32.8133L107.74 12.9495L114.776 20.1946ZM145.546 51.8797C139.941 60.7399 135.152 71.0719 136.62 77.5667C138.026 83.7925 147.233 80.8099 157.213 77.5768C160.654 76.4622 164.186 75.3178 167.523 74.5107L160.635 67.4185C162.16 64.0442 163.935 61.5001 166.344 59.3741L159.413 39.6468C155.178 42.3128 149.931 46.4068 145.692 52.0301L145.546 51.8797ZM31.5733 99.0965C30.9922 98.1529 30.427 97.1547 29.8715 96.0963C17.5108 75.6547 -4.34243 91.8573 2.93608 106.969C4.55328 110.327 7.54633 115.616 11.9873 121.183L31.5733 99.0965ZM57.8549 115.782C59.4599 117.941 60.9256 120.805 62.4346 123.753C67.3959 133.447 72.825 144.054 85.2111 133.533C91.9504 127.808 97.2385 114.803 91.7613 105.014C86.3134 95.2772 79.2085 95.1212 79.1324 95.1199L57.8549 115.782Z" fill="#827B79"/>
<path d="M108.456 68.6576C112.483 72.8045 111.866 75.4189 109.862 77.365C107.858 79.3111 104.43 79.0321 102.206 76.7418" stroke="#5A5351" stroke-width="2" stroke-linecap="round"/>
<path d="M108.456 68.6578C112.483 72.8047 115.114 72.2638 117.118 70.3177C119.122 68.3716 118.944 64.9373 116.72 62.6471" stroke="#5A5351" stroke-width="2" stroke-linecap="round"/>
<ellipse cx="105.939" cy="66.0656" rx="5.058" ry="3.61279" transform="matrix(0.717397 -0.696678 0.696651 0.717397 -16.0859 92.476)" fill="#5A5351"/>
<path d="M49.6456 56.8458L55.7131 63.0938C56.0956 63.4877 56.7249 63.4969 57.1188 63.1144L66.491 54.013C67.1967 53.3278 66.585 52.1435 65.6178 52.3223L50.1782 55.1756C49.3974 55.3199 49.0925 56.2762 49.6456 56.8458Z" fill="#FFC0CB"/>
<path d="M97.8693 9.00885L103.937 15.2569C104.319 15.6507 104.31 16.2801 103.916 16.6626L94.5439 25.764C93.8383 26.4492 92.6724 25.8031 92.8795 24.8416L96.1842 9.4922C96.3513 8.71598 97.3161 8.43924 97.8693 9.00885Z" fill="#FFC0CB"/>
<path d="M122.119 41.9362C118.776 38.4936 113.283 38.4043 109.852 41.7369C106.42 45.0694 106.348 50.5618 109.691 54.0044" stroke="#8B8483" stroke-width="2" stroke-linecap="round"/>
<path d="M94.1279 69.1063C90.7918 65.6709 85.3024 65.5905 81.8669 68.9266C78.4315 72.2628 78.3509 77.7522 81.687 81.1876" stroke="#5A5351" stroke-width="3" stroke-linecap="round"/>
<line x1="1" y1="-1" x2="4.24121" y2="-1" transform="matrix(-0.971871 -0.209237 -0.20923 0.971838 74.6094 75.9736)" stroke="#5A5351" stroke-width="2" stroke-linecap="round"/>
<path d="M75.6045 70.1997L73.3362 69.7114" stroke="#5A5351" stroke-width="2" stroke-linecap="round"/>
<path d="M109.678 54.0043C106.342 50.5689 106.422 45.0795 109.858 41.7433C113.293 38.4071 118.783 38.4876 122.119 41.923" stroke="#5A5351" stroke-width="3" stroke-linecap="round"/>
<line x1="1" y1="-1" x2="4.24143" y2="-1" transform="matrix(-0.180648 -0.977547 0.977595 -0.180655 117.114 34.6958)" stroke="#5A5351" stroke-width="2" stroke-linecap="round"/>
<line x1="1" y1="-1" x2="4.24143" y2="-1" transform="matrix(-0.180648 -0.977547 0.977595 -0.180655 112.998 36.6797)" stroke="#5A5351" stroke-width="2" stroke-linecap="round"/>
</svg>
