<svg width="208" height="211" viewBox="0 0 208 211" fill="none" xmlns="http://www.w3.org/2000/svg">
<path fill-rule="evenodd" clip-rule="evenodd" d="M75.6546 32.8941L72.3639 41.5418L92.7302 49.2919L82.7157 32.2969C81.0423 29.4571 76.8269 29.8136 75.6546 32.8941ZM126.333 62.079L129.528 53.6842C130.716 50.5605 127.712 47.4725 124.556 48.5753L106.985 54.7164L126.333 62.079ZM126.333 62.0805L72.363 41.5429L61.9014 69.0346L115.872 89.5722L126.333 62.0805ZM139.455 98.5493L61.8999 69.0367L57.2372 81.2897C49.3448 73.9187 38.5213 72.4402 34.0546 72.2837C25.248 71.975 22.0715 85.9079 34.5154 87.5352C41.3317 88.0097 44.9605 90.5452 50.5716 97.404C50.6485 97.4981 50.8024 97.5724 51.021 97.6251L49.5927 101.379C49.3868 101.92 49.2092 102.465 49.0592 103.012C40.0909 101.142 31.4956 103.651 27.8359 105.111C19.6512 108.376 22.357 122.408 34.4021 118.885C40.832 116.573 45.1748 117.432 53.0737 121.449C53.3177 121.573 53.8788 121.448 54.6198 121.112C56.1259 122.401 57.876 123.457 59.8354 124.203L100.973 139.857C95.5427 146.451 93.5499 154.424 92.9863 158.11C91.6543 166.82 105.124 171.598 108.189 159.429C109.315 153.456 111.767 150.178 117.552 146.166L121.901 147.821C121.979 161.732 132.825 171.269 137.169 174.329C144.373 179.403 154.653 169.475 145.124 161.308C139.676 157.183 138.025 153.076 137.078 144.266C137.075 144.239 137.068 144.21 137.058 144.181L146.499 119.371C146.539 119.395 146.58 119.418 146.62 119.442C169.95 109.308 172.461 83.5665 172.324 74.8466C172.126 62.2027 151.923 58.6624 150.496 76.615C150.325 85.7144 147.409 91.0071 139.455 98.5493Z" fill="#22201D"/>
<path d="M88.7253 79.8822C87.1754 83.9551 88.3837 85.5805 90.3521 86.3296C92.3205 87.0786 94.6101 85.8623 95.466 83.6129" stroke="#FFF6E4" stroke-width="2" stroke-linecap="round"/>
<path d="M88.7259 79.882C87.176 83.9548 85.1928 84.3658 83.2244 83.6168C81.256 82.8678 80.3542 80.437 81.2102 78.1877" stroke="#FFF6E4" stroke-width="2" stroke-linecap="round"/>
<path d="M86.589 76.1548C86.3926 76.6709 86.4904 77.2926 86.8978 77.9051C87.3045 78.5166 88.0004 79.0803 88.8999 79.4226C89.7994 79.7649 90.6939 79.8064 91.4043 79.62C92.1158 79.4333 92.6022 79.0339 92.7986 78.5178C92.995 78.0016 92.8972 77.3799 92.4898 76.7674C92.083 76.1559 91.3872 75.5922 90.4877 75.2499C89.5882 74.9076 88.6937 74.8661 87.9833 75.0525C87.2718 75.2392 86.7854 75.6386 86.589 76.1548Z" fill="#FFF6E4" stroke="#FFF6E4"/>
<path d="M125.758 54.5555L123.661 60.0666C123.468 60.5739 122.9 60.8286 122.393 60.6356L114.125 57.4895C113.217 57.1437 113.308 55.8293 114.256 55.6129L124.621 53.2479C125.386 53.0733 126.037 53.8219 125.758 54.5555Z" fill="#FFF6E4"/>
<path d="M78.0921 35.8343L75.9949 41.3455C75.8019 41.8527 76.0566 42.4204 76.5639 42.6135L84.8314 45.7595C85.7402 46.1053 86.5456 45.0626 85.9812 44.2707L79.8109 35.6136C79.3554 34.9743 78.3712 35.1008 78.0921 35.8343Z" fill="#FFF6E4"/>
<path d="M73.6028 66.9671C74.8916 63.5807 78.6669 61.8745 82.0351 63.156C85.4033 64.4376 87.089 68.2218 85.8002 71.6082" stroke="#8B8483" stroke-width="2" stroke-linecap="round"/>
<path d="M101.089 77.4139C102.373 74.0398 106.15 72.3455 109.524 73.6296C112.898 74.9136 114.593 78.6898 113.309 82.0639" stroke="#8B8483" stroke-width="3" stroke-linecap="round"/>
<line x1="116.881" y1="74.9711" x2="118.48" y2="73.832" stroke="#FFF6E4" stroke-width="2" stroke-linecap="round"/>
<line x1="1" y1="-1" x2="2.99712" y2="-1" transform="matrix(0.80033 -0.570372 0.570353 0.800302 113.984 74.1611)" stroke="#FFF6E4" stroke-width="2" stroke-linecap="round"/>
<path d="M85.8158 71.6011C87.0997 68.227 85.4051 64.4509 82.0307 63.1668C78.6564 61.8827 74.8801 63.577 73.5961 66.9511" stroke="#8B8483" stroke-width="3" stroke-linecap="round"/>
<line x1="1" y1="-1" x2="2.9974" y2="-1" transform="matrix(-0.218664 -0.958073 -0.958175 0.218686 74.9023 60.4546)" stroke="#FFF6E4" stroke-width="2" stroke-linecap="round"/>
<line x1="1" y1="-1" x2="2.9974" y2="-1" transform="matrix(-0.218664 -0.958073 -0.958175 0.218686 78.3447 60.5986)" stroke="#FFF6E4" stroke-width="2" stroke-linecap="round"/>
</svg>
