<svg width="169" height="170" viewBox="0 0 169 170" fill="none" xmlns="http://www.w3.org/2000/svg">
<g id="Nit">
<g id="Cat_Body">
<g id="Union">
<mask id="path-1-inside-1_19_2549" fill="white">
<path fill-rule="evenodd" clip-rule="evenodd" d="M168.199 6.12697V17.8649V59.1444V105.01C168.199 113.161 164.656 120.484 159.026 125.523V157.757C159.026 164.089 153.893 169.223 147.56 169.223C141.227 169.223 136.093 164.089 136.093 157.757V132.53H131.507V157.757C131.507 164.089 126.373 169.223 120.04 169.223C113.707 169.223 108.574 164.089 108.574 157.757V132.53H81.0538V157.757C81.0538 164.089 75.9201 169.223 69.5873 169.223C63.2545 169.223 58.1208 164.089 58.1208 157.757V132.53H55.063V157.757C55.063 164.089 49.9293 169.223 43.5965 169.223C37.2637 169.223 32.13 164.089 32.13 157.757V132.53V124.886V83.6061L32.1299 83.6062C4.6103 68.3175 -0.398115 34.6823 0.0236505 22.4513C0.635199 4.71645 29.0722 0.282725 30.6011 25.5091C30.6011 39.2689 35.1877 46.9133 48.1831 59.1442L48.1832 59.1444L87.1693 59.1444V17.8649V6.54784C87.1693 1.34814 93.2467 -1.47927 97.224 1.87004L116.218 17.8649H137.622L158.264 1.35157C162.268 -1.85178 168.199 0.999096 168.199 6.12697Z"/>
</mask>
<path fill-rule="evenodd" clip-rule="evenodd" d="M168.199 6.12697V17.8649V59.1444V105.01C168.199 113.161 164.656 120.484 159.026 125.523V157.757C159.026 164.089 153.893 169.223 147.56 169.223C141.227 169.223 136.093 164.089 136.093 157.757V132.53H131.507V157.757C131.507 164.089 126.373 169.223 120.04 169.223C113.707 169.223 108.574 164.089 108.574 157.757V132.53H81.0538V157.757C81.0538 164.089 75.9201 169.223 69.5873 169.223C63.2545 169.223 58.1208 164.089 58.1208 157.757V132.53H55.063V157.757C55.063 164.089 49.9293 169.223 43.5965 169.223C37.2637 169.223 32.13 164.089 32.13 157.757V132.53V124.886V83.6061L32.1299 83.6062C4.6103 68.3175 -0.398115 34.6823 0.0236505 22.4513C0.635199 4.71645 29.0722 0.282725 30.6011 25.5091C30.6011 39.2689 35.1877 46.9133 48.1831 59.1442L48.1832 59.1444L87.1693 59.1444V17.8649V6.54784C87.1693 1.34814 93.2467 -1.47927 97.224 1.87004L116.218 17.8649H137.622L158.264 1.35157C162.268 -1.85178 168.199 0.999096 168.199 6.12697Z" fill="#22201D"/>
<path d="M159.026 125.523L156.987 123.244L155.969 124.156V125.523H159.026ZM136.093 132.53H139.151V129.472H136.093V132.53ZM131.507 132.53V129.472H128.449V132.53H131.507ZM108.574 132.53H111.631V129.472H108.574V132.53ZM81.0538 132.53V129.472H77.9961V132.53H81.0538ZM58.1208 132.53H61.1785V129.472H58.1208V132.53ZM55.063 132.53V129.472H52.0053V132.53H55.063ZM32.13 83.6061H35.1877V78.1341L30.5274 81.002L32.13 83.6061ZM32.1299 83.6062L30.645 86.2791L32.2089 87.148L33.7325 86.2103L32.1299 83.6062ZM0.0236505 22.4513L3.07958 22.5567L3.07958 22.5567L0.0236505 22.4513ZM30.6011 25.5091H33.6588V25.4165L33.6532 25.3241L30.6011 25.5091ZM48.1831 59.1442L50.2844 56.9229L50.2788 56.9176L48.1831 59.1442ZM48.1832 59.1444L46.0819 61.3657L46.9661 62.2021L48.1832 62.2021L48.1832 59.1444ZM87.1693 59.1444L87.1693 62.2021L90.2271 62.2021V59.1444H87.1693ZM97.224 1.87004L99.1936 -0.46886L99.1936 -0.468861L97.224 1.87004ZM116.218 17.8649L114.248 20.2038L115.102 20.9226H116.218V17.8649ZM137.622 17.8649V20.9226H138.695L139.532 20.2526L137.622 17.8649ZM158.264 1.35157L156.354 -1.03612L156.354 -1.03612L158.264 1.35157ZM171.257 17.8649V6.12697H165.142V17.8649H171.257ZM171.257 59.1444V17.8649H165.142V59.1444H171.257ZM171.257 105.01V59.1444H165.142V105.01H171.257ZM161.066 127.801C167.316 122.207 171.257 114.067 171.257 105.01H165.142C165.142 112.255 161.996 118.761 156.987 123.244L161.066 127.801ZM155.969 125.523V157.757H162.084V125.523H155.969ZM155.969 157.757C155.969 162.401 152.204 166.165 147.56 166.165V172.281C155.581 172.281 162.084 165.778 162.084 157.757H155.969ZM147.56 166.165C142.916 166.165 139.151 162.401 139.151 157.757H133.035C133.035 165.778 139.538 172.281 147.56 172.281V166.165ZM139.151 157.757V132.53H133.035V157.757H139.151ZM131.507 135.588H136.093V129.472H131.507V135.588ZM134.564 157.757V132.53H128.449V157.757H134.564ZM120.04 172.281C128.062 172.281 134.564 165.778 134.564 157.757H128.449C128.449 162.401 124.684 166.165 120.04 166.165V172.281ZM105.516 157.757C105.516 165.778 112.019 172.281 120.04 172.281V166.165C115.396 166.165 111.631 162.401 111.631 157.757H105.516ZM105.516 132.53V157.757H111.631V132.53H105.516ZM81.0538 135.588H108.574V129.472H81.0538V135.588ZM84.1116 157.757V132.53H77.9961V157.757H84.1116ZM69.5873 172.281C77.6088 172.281 84.1116 165.778 84.1116 157.757H77.9961C77.9961 162.401 74.2314 166.165 69.5873 166.165V172.281ZM55.063 157.757C55.063 165.778 61.5658 172.281 69.5873 172.281V166.165C64.9433 166.165 61.1785 162.401 61.1785 157.757H55.063ZM55.063 132.53V157.757H61.1785V132.53H55.063ZM55.063 135.588H58.1208V129.472H55.063V135.588ZM58.1208 157.757V132.53H52.0053V157.757H58.1208ZM43.5965 172.281C51.618 172.281 58.1208 165.778 58.1208 157.757H52.0053C52.0053 162.401 48.2406 166.165 43.5965 166.165V172.281ZM29.0722 157.757C29.0722 165.778 35.575 172.281 43.5965 172.281V166.165C38.9525 166.165 35.1877 162.401 35.1877 157.757H29.0722ZM29.0722 132.53V157.757H35.1877V132.53H29.0722ZM29.0722 124.886V132.53H35.1877V124.886H29.0722ZM29.0722 83.6061V124.886H35.1877V83.6061H29.0722ZM33.7325 86.2103L33.7325 86.2103L30.5274 81.002L30.5274 81.002L33.7325 86.2103ZM-3.03227 22.346C-3.25659 28.8509 -2.04951 40.7353 2.7515 52.9969C7.56433 65.2888 16.0854 78.1904 30.645 86.2791L33.6149 80.9332C20.6549 73.7332 12.9119 62.1729 8.44603 50.7673C3.96837 39.3314 2.88212 28.2828 3.07958 22.5567L-3.03227 22.346ZM33.6532 25.3241C33.2358 18.4358 30.9499 13.2124 27.413 9.71938C23.8787 6.22886 19.3354 4.70935 14.8971 4.81283C6.15046 5.01677 -2.66244 11.6208 -3.03227 22.346L3.07958 22.5567C3.32129 15.547 9.03267 11.0667 15.0397 10.9267C17.9782 10.8581 20.869 11.8517 23.1158 14.0706C25.3599 16.2869 27.202 19.9692 27.549 25.6941L33.6532 25.3241ZM50.2788 56.9176C43.8438 50.8612 39.7437 46.1662 37.2127 41.4533C34.7318 36.8338 33.6588 32.0051 33.6588 25.5091H27.5434C27.5434 32.7729 28.7637 38.6463 31.825 44.3467C34.8361 49.9537 39.527 55.1964 46.0874 61.3709L50.2788 56.9176ZM50.2845 56.923L50.2844 56.9229L46.0818 61.3656L46.0819 61.3657L50.2845 56.923ZM87.1693 56.0866L48.1832 56.0866L48.1832 62.2021L87.1693 62.2021L87.1693 56.0866ZM84.1116 17.8649V59.1444H90.2271V17.8649H84.1116ZM84.1116 6.54784V17.8649H90.2271V6.54784H84.1116ZM99.1936 -0.468861C93.2276 -5.49283 84.1116 -1.25171 84.1116 6.54784H90.2271C90.2271 3.94799 93.2658 2.53428 95.2544 4.20894L99.1936 -0.468861ZM118.187 15.526L99.1936 -0.46886L95.2544 4.20894L114.248 20.2038L118.187 15.526ZM137.622 14.8071H116.218V20.9226H137.622V14.8071ZM156.354 -1.03612L135.712 15.4772L139.532 20.2526L160.174 3.73927L156.354 -1.03612ZM171.257 6.12697C171.257 -1.56483 162.36 -5.84116 156.354 -1.03612L160.174 3.73927C162.176 2.13759 165.142 3.56303 165.142 6.12697H171.257Z" fill="#22201D" mask="url(#path-1-inside-1_19_2549)"/>
</g>
</g>
<g id="Face">
<g id="Eye_Right_Open">
<circle id="Ellipse 2" cx="147.56" cy="47.678" r="12.9954" fill="#FED23E"/>
<circle id="Ellipse 3" cx="146.795" cy="48.4423" r="9.17322" fill="#22201D"/>
<line id="Line 1" x1="158.579" y1="33.0439" x2="159.94" y2="31.0015" stroke="#FFF6E4" stroke-width="3.05774" stroke-linecap="round"/>
<line id="Line 2" x1="153.992" y1="31.5151" x2="155.353" y2="29.4727" stroke="#FFF6E4" stroke-width="3.05774" stroke-linecap="round"/>
</g>
<g id="Eye_Left_Open">
<circle id="Ellipse 2_2" cx="107.809" cy="47.678" r="12.9954" fill="#FED23E"/>
<circle id="Ellipse 3_2" cx="108.573" cy="48.4423" r="9.17322" fill="#22201D"/>
<line id="Line 3" x1="1.52887" y1="-1.52887" x2="3.98355" y2="-1.52887" transform="matrix(-0.5547 -0.83205 -0.83205 0.5547 94.79 35.1641)" stroke="#FFF6E4" stroke-width="3.05774" stroke-linecap="round"/>
<line id="Line 4" x1="1.52887" y1="-1.52887" x2="3.98355" y2="-1.52887" transform="matrix(-0.5547 -0.83205 -0.83205 0.5547 99.3766 33.6353)" stroke="#FFF6E4" stroke-width="3.05774" stroke-linecap="round"/>
</g>
<g id="Muzzle">
<path id="Ellipse 5" d="M127.684 60.6733C127.684 66.7888 125.289 68.3177 122.333 68.3177C119.378 68.3177 116.982 65.5797 116.982 62.2022" stroke="#FFF6E4" stroke-width="3.05774" stroke-linecap="round"/>
<path id="Ellipse 6" d="M127.684 60.6733C127.684 66.7888 130.08 68.3177 133.035 68.3177C135.991 68.3177 138.386 65.5797 138.386 62.2022" stroke="#FFF6E4" stroke-width="3.05774" stroke-linecap="round"/>
<path id="Ellipse 7" d="M132.271 56.8512C132.271 57.5957 131.85 58.3419 131.024 58.9319C130.199 59.5208 129.021 59.909 127.684 59.909C126.348 59.909 125.169 59.5208 124.345 58.9319C123.519 58.3419 123.098 57.5957 123.098 56.8512C123.098 56.1067 123.519 55.3606 124.345 54.7706C125.169 54.1817 126.348 53.7935 127.684 53.7935C129.021 53.7935 130.199 54.1817 131.024 54.7706C131.85 55.3606 132.271 56.1067 132.271 56.8512Z" fill="#FFF6E4" stroke="#FFF6E4" stroke-width="1.52887"/>
</g>
<g id="Ears">
<path id="Vector 5" d="M91.756 9.25516V17.1005C91.756 17.9449 92.4405 18.6294 93.2849 18.6294H105.053C106.566 18.6294 107.16 16.6675 105.901 15.8284L94.1329 7.98306C93.1169 7.30572 91.756 8.03406 91.756 9.25516Z" fill="#FFF6E4"/>
<path id="Vector 6" d="M163.613 8.49076V16.3361C163.613 17.1805 162.928 17.865 162.084 17.865H150.316C148.803 17.865 148.209 15.9031 149.468 15.064L161.236 7.21866C162.252 6.54131 163.613 7.26965 163.613 8.49076Z" fill="#FFF6E4"/>
</g>
</g>
</g>
</svg>
