<svg width="169" height="170" viewBox="0 0 169 170" fill="none" xmlns="http://www.w3.org/2000/svg">
<g id="Nit">
<g id="Cat_Body">
<g id="Union">
<mask id="path-1-inside-1_203_4774" fill="white">
<path fill-rule="evenodd" clip-rule="evenodd" d="M4.57762e-05 6.12697V17.8649V59.1444V105.01C4.57762e-05 113.161 3.54321 120.484 9.17326 125.523V157.757C9.17326 164.089 14.307 169.223 20.6398 169.223C26.9726 169.223 32.1063 164.089 32.1063 157.757V132.53H36.6929V157.757C36.6929 164.089 41.8267 169.223 48.1595 169.223C54.4923 169.223 59.626 164.089 59.626 157.757V132.53H87.1457V157.757C87.1457 164.089 92.2794 169.223 98.6122 169.223C104.945 169.223 110.079 164.089 110.079 157.757V132.53H113.136V157.757C113.136 164.089 118.27 169.223 124.603 169.223C130.936 169.223 136.07 164.089 136.07 157.757V132.53V124.886V83.6064L136.07 83.6066C163.589 68.3178 168.598 34.6827 168.176 22.4517C167.565 4.71682 139.127 0.283099 137.599 25.5095C137.599 39.2692 133.012 46.9136 120.017 59.1444L81.0302 59.1444V17.8649V6.54784C81.0302 1.34814 74.9528 -1.47927 70.9755 1.87004L51.9816 17.8649H30.5775L9.93584 1.35157C5.93164 -1.85178 4.57762e-05 0.999096 4.57762e-05 6.12697Z"/>
</mask>
<path fill-rule="evenodd" clip-rule="evenodd" d="M4.57762e-05 6.12697V17.8649V59.1444V105.01C4.57762e-05 113.161 3.54321 120.484 9.17326 125.523V157.757C9.17326 164.089 14.307 169.223 20.6398 169.223C26.9726 169.223 32.1063 164.089 32.1063 157.757V132.53H36.6929V157.757C36.6929 164.089 41.8267 169.223 48.1595 169.223C54.4923 169.223 59.626 164.089 59.626 157.757V132.53H87.1457V157.757C87.1457 164.089 92.2794 169.223 98.6122 169.223C104.945 169.223 110.079 164.089 110.079 157.757V132.53H113.136V157.757C113.136 164.089 118.27 169.223 124.603 169.223C130.936 169.223 136.07 164.089 136.07 157.757V132.53V124.886V83.6064L136.07 83.6066C163.589 68.3178 168.598 34.6827 168.176 22.4517C167.565 4.71682 139.127 0.283099 137.599 25.5095C137.599 39.2692 133.012 46.9136 120.017 59.1444L81.0302 59.1444V17.8649V6.54784C81.0302 1.34814 74.9528 -1.47927 70.9755 1.87004L51.9816 17.8649H30.5775L9.93584 1.35157C5.93164 -1.85178 4.57762e-05 0.999096 4.57762e-05 6.12697Z" fill="#22201D"/>
<path d="M9.17326 125.523L11.2125 123.244L12.231 124.156V125.523H9.17326ZM32.1063 132.53H29.0486V129.472H32.1063V132.53ZM36.6929 132.53V129.472H39.7507V132.53H36.6929ZM59.626 132.53H56.5683V129.472H59.626V132.53ZM87.1457 132.53V129.472H90.2034V132.53H87.1457ZM110.079 132.53H107.021V129.472H110.079V132.53ZM113.136 132.53V129.472H116.194V132.53H113.136ZM136.07 83.6064H133.012V78.4423L137.54 80.9254L136.07 83.6064ZM136.07 83.6066L137.555 86.2795L136.079 87.0992L134.6 86.2876L136.07 83.6066ZM168.176 22.4517L165.12 22.5571L165.12 22.5571L168.176 22.4517ZM137.599 25.5095H134.541V25.4169L134.546 25.3245L137.599 25.5095ZM120.017 59.1444L122.113 61.371L121.23 62.2021L120.017 62.2021L120.017 59.1444ZM81.0302 59.1444L81.0302 62.2021L77.9724 62.2021V59.1444H81.0302ZM70.9755 1.87004L69.0059 -0.46886L69.0059 -0.468861L70.9755 1.87004ZM51.9816 17.8649L53.9512 20.2038L53.0976 20.9226H51.9816V17.8649ZM30.5775 17.8649V20.9226H29.5049L28.6673 20.2526L30.5775 17.8649ZM9.93584 1.35157L11.846 -1.03612L11.846 -1.03612L9.93584 1.35157ZM-3.0577 17.8649V6.12697H3.05779V17.8649H-3.0577ZM-3.0577 59.1444V17.8649H3.05779V59.1444H-3.0577ZM-3.0577 105.01V59.1444H3.05779V105.01H-3.0577ZM7.13401 127.801C0.883287 122.207 -3.0577 114.067 -3.0577 105.01H3.05779C3.05779 112.255 6.20314 118.761 11.2125 123.244L7.13401 127.801ZM12.231 125.523V157.757H6.11552V125.523H12.231ZM12.231 157.757C12.231 162.401 15.9957 166.165 20.6398 166.165V172.281C12.6183 172.281 6.11552 165.778 6.11552 157.757H12.231ZM20.6398 166.165C25.2838 166.165 29.0486 162.401 29.0486 157.757H35.1641C35.1641 165.778 28.6613 172.281 20.6398 172.281V166.165ZM29.0486 157.757V132.53H35.1641V157.757H29.0486ZM36.6929 135.588H32.1063V129.472H36.6929V135.588ZM33.6352 157.757V132.53H39.7507V157.757H33.6352ZM48.1595 172.281C40.1379 172.281 33.6352 165.778 33.6352 157.757H39.7507C39.7507 162.401 43.5154 166.165 48.1595 166.165V172.281ZM62.6837 157.757C62.6837 165.778 56.181 172.281 48.1595 172.281V166.165C52.8035 166.165 56.5683 162.401 56.5683 157.757H62.6837ZM62.6837 132.53V157.757H56.5683V132.53H62.6837ZM87.1457 135.588H59.626V129.472H87.1457V135.588ZM84.0879 157.757V132.53H90.2034V157.757H84.0879ZM98.6122 172.281C90.5907 172.281 84.0879 165.778 84.0879 157.757H90.2034C90.2034 162.401 93.9682 166.165 98.6122 166.165V172.281ZM113.136 157.757C113.136 165.778 106.634 172.281 98.6122 172.281V166.165C103.256 166.165 107.021 162.401 107.021 157.757H113.136ZM113.136 132.53V157.757H107.021V132.53H113.136ZM113.136 135.588H110.079V129.472H113.136V135.588ZM110.079 157.757V132.53H116.194V157.757H110.079ZM124.603 172.281C116.581 172.281 110.079 165.778 110.079 157.757H116.194C116.194 162.401 119.959 166.165 124.603 166.165V172.281ZM139.127 157.757C139.127 165.778 132.625 172.281 124.603 172.281V166.165C129.247 166.165 133.012 162.401 133.012 157.757H139.127ZM139.127 132.53V157.757H133.012V132.53H139.127ZM139.127 124.886V132.53H133.012V124.886H139.127ZM139.127 83.6064V124.886H133.012V83.6064H139.127ZM134.6 86.2876L134.599 86.2875L137.54 80.9254L137.54 80.9255L134.6 86.2876ZM171.232 22.3463C171.456 28.8512 170.249 40.7357 165.448 52.9973C160.635 65.2892 152.114 78.1908 137.555 86.2795L134.585 80.9336C147.545 73.7336 155.288 62.1733 159.754 50.7676C164.231 39.3318 165.318 28.2832 165.12 22.5571L171.232 22.3463ZM134.546 25.3245C134.964 18.4361 137.25 13.2128 140.787 9.71975C144.321 6.22924 148.864 4.70972 153.303 4.81321C162.049 5.01714 170.862 11.6212 171.232 22.3463L165.12 22.5571C164.878 15.5474 159.167 11.0671 153.16 10.927C150.222 10.8585 147.331 11.8521 145.084 14.0709C142.84 16.2873 140.998 19.9696 140.651 25.6944L134.546 25.3245ZM117.921 56.9177C124.356 50.8614 128.456 46.1665 130.987 41.4536C133.468 36.8341 134.541 32.0055 134.541 25.5095H140.656C140.656 32.7732 139.436 38.6466 136.375 44.347C133.364 49.9539 128.673 55.1966 122.113 61.371L117.921 56.9177ZM81.0302 56.0866L120.017 56.0866L120.017 62.2021L81.0302 62.2021L81.0302 56.0866ZM84.0879 17.8649V59.1444H77.9724V17.8649H84.0879ZM84.0879 6.54784V17.8649H77.9724V6.54784H84.0879ZM69.0059 -0.468861C74.9719 -5.49283 84.0879 -1.25171 84.0879 6.54784H77.9724C77.9724 3.94799 74.9338 2.53428 72.9451 4.20894L69.0059 -0.468861ZM50.012 15.526L69.0059 -0.46886L72.9451 4.20894L53.9512 20.2038L50.012 15.526ZM30.5775 14.8071H51.9816V20.9226H30.5775V14.8071ZM11.846 -1.03612L32.4876 15.4772L28.6673 20.2526L8.02568 3.73927L11.846 -1.03612ZM-3.0577 6.12697C-3.0577 -1.56483 5.8397 -5.84116 11.846 -1.03612L8.02568 3.73927C6.02359 2.13759 3.05779 3.56303 3.05779 6.12697H-3.0577Z" fill="#22201D" mask="url(#path-1-inside-1_203_4774)"/>
</g>
</g>
<g id="Face">
<g id="Eye_Right_Open">
<circle id="Ellipse 2" cx="12.9954" cy="12.9954" r="12.9954" transform="matrix(-1 0 0 1 33.6353 34.6826)" fill="#FED23E"/>
<circle id="Ellipse 3" cx="9.17322" cy="9.17322" r="9.17322" transform="matrix(-1 0 0 1 30.5776 39.269)" fill="#22201D"/>
<line id="Line 1" x1="1.52887" y1="-1.52887" x2="3.98355" y2="-1.52887" transform="matrix(-0.5547 -0.83205 -0.83205 0.5547 9.19727 35.1641)" stroke="#FFF6E4" stroke-width="3.05774" stroke-linecap="round"/>
<line id="Line 2" x1="1.52887" y1="-1.52887" x2="3.98355" y2="-1.52887" transform="matrix(-0.5547 -0.83205 -0.83205 0.5547 13.7837 33.6353)" stroke="#FFF6E4" stroke-width="3.05774" stroke-linecap="round"/>
</g>
<g id="Eye_Left_Open">
<circle id="Ellipse 2_2" cx="12.9954" cy="12.9954" r="12.9954" transform="matrix(-1 0 0 1 73.3857 34.6826)" fill="#FED23E"/>
<circle id="Ellipse 3_2" cx="9.17322" cy="9.17322" r="9.17322" transform="matrix(-1 0 0 1 68.7993 39.269)" fill="#22201D"/>
<line id="Line 3" x1="72.9856" y1="33.0439" x2="74.3472" y2="31.0015" stroke="#FFF6E4" stroke-width="3.05774" stroke-linecap="round"/>
<line id="Line 4" x1="68.3992" y1="31.5151" x2="69.7608" y2="29.4727" stroke="#FFF6E4" stroke-width="3.05774" stroke-linecap="round"/>
</g>
<g id="Muzzle">
<path id="Ellipse 5" d="M40.5152 60.6733C40.5152 66.7888 42.9109 68.3177 45.8662 68.3177C48.8215 68.3177 51.2173 65.5797 51.2173 62.2022" stroke="#FFF6E4" stroke-width="3" stroke-linecap="round"/>
<path id="Ellipse 6" d="M40.5151 60.6733C40.5151 66.7888 38.1193 68.3177 35.164 68.3177C32.2087 68.3177 29.813 65.5797 29.813 62.2022" stroke="#FFF6E4" stroke-width="3" stroke-linecap="round"/>
<path id="Ellipse 7" d="M35.9286 56.851C35.9286 57.5955 36.3497 58.3416 37.1757 58.9316C38.0002 59.5206 39.1785 59.9087 40.5152 59.9087C41.8519 59.9087 43.0301 59.5206 43.8546 58.9316C44.6806 58.3416 45.1018 57.5955 45.1018 56.851C45.1018 56.1065 44.6806 55.3603 43.8546 54.7703C43.0301 54.1814 41.8519 53.7932 40.5152 53.7932C39.1785 53.7932 38.0002 54.1814 37.1757 54.7703C36.3497 55.3603 35.9286 56.1065 35.9286 56.851Z" fill="#FFF6E4" stroke="#FFF6E4" stroke-width="1.52887"/>
</g>
<g id="Ears">
<path id="Vector 5" d="M76.4434 9.25516V17.1005C76.4434 17.9449 75.7589 18.6294 74.9145 18.6294H63.1464C61.6338 18.6294 61.0397 16.6675 62.2984 15.8284L74.0664 7.98306C75.0824 7.30572 76.4434 8.03406 76.4434 9.25516Z" fill="#FFF6E4"/>
<path id="Vector 6" d="M4.58643 8.49051V16.3359C4.58643 17.1803 5.27093 17.8648 6.1153 17.8648H17.8834C19.396 17.8648 19.99 15.9029 18.7314 15.0638L6.96336 7.21841C5.94734 6.54107 4.58643 7.26941 4.58643 8.49051Z" fill="#FFF6E4"/>
</g>
</g>
</g>
</svg>
