<svg width="200" height="180" viewBox="0 0 200 180" fill="none" xmlns="http://www.w3.org/2000/svg">
<mask id="path-1-inside-1_229_7648" fill="white">
<path fill-rule="evenodd" clip-rule="evenodd" d="M17.998 10.0075V25.5365V65.7858L17.9981 119.34C17.9981 125.98 21.5929 131.78 26.9424 134.9V165.117C26.9424 169.536 30.5241 173.117 34.9424 173.117H41.3031C45.7214 173.117 49.3031 169.536 49.3031 165.117V137.34H53.7753V165.117C53.7753 169.536 57.357 173.117 61.7753 173.117H68.136C72.5543 173.117 76.136 169.536 76.136 165.117V137.34H102.969V165.117C102.969 169.536 106.551 173.117 110.969 173.117H117.33C121.748 173.117 125.33 169.536 125.33 165.117V137.34H128.311V165.117C128.311 169.536 131.893 173.117 136.311 173.117H142.672C147.09 173.117 150.672 169.536 150.672 165.117V137.34V129.887L150.672 89.6373C177.505 74.7301 182.388 41.9344 181.977 30.0086C181.381 12.7163 153.653 8.39323 152.163 32.9901C152.163 46.4065 147.69 53.8601 135.019 65.7858H97.006V25.5365V10.2828C97.006 6.88179 93.031 5.03244 90.4295 7.22315L68.6824 25.5365H47.8124L24.4968 6.88403C21.8778 4.78879 17.998 6.65349 17.998 10.0075Z"/>
</mask>
<path fill-rule="evenodd" clip-rule="evenodd" d="M17.998 10.0075V25.5365V65.7858L17.9981 119.34C17.9981 125.98 21.5929 131.78 26.9424 134.9V165.117C26.9424 169.536 30.5241 173.117 34.9424 173.117H41.3031C45.7214 173.117 49.3031 169.536 49.3031 165.117V137.34H53.7753V165.117C53.7753 169.536 57.357 173.117 61.7753 173.117H68.136C72.5543 173.117 76.136 169.536 76.136 165.117V137.34H102.969V165.117C102.969 169.536 106.551 173.117 110.969 173.117H117.33C121.748 173.117 125.33 169.536 125.33 165.117V137.34H128.311V165.117C128.311 169.536 131.893 173.117 136.311 173.117H142.672C147.09 173.117 150.672 169.536 150.672 165.117V137.34V129.887L150.672 89.6373C177.505 74.7301 182.388 41.9344 181.977 30.0086C181.381 12.7163 153.653 8.39323 152.163 32.9901C152.163 46.4065 147.69 53.8601 135.019 65.7858H97.006V25.5365V10.2828C97.006 6.88179 93.031 5.03244 90.4295 7.22315L68.6824 25.5365H47.8124L24.4968 6.88403C21.8778 4.78879 17.998 6.65349 17.998 10.0075Z" fill="#22201D"/>
<path d="M17.998 65.7858L15.998 65.7858V65.7858H17.998ZM17.9981 119.34L19.9981 119.34V119.34H17.9981ZM26.9424 134.9L27.95 133.172L28.9424 133.751V134.9H26.9424ZM49.3031 137.34H47.3031V135.34H49.3031V137.34ZM53.7753 137.34V135.34H55.7753V137.34H53.7753ZM76.136 137.34H74.136V135.34H76.136V137.34ZM102.969 137.34V135.34H104.969V137.34H102.969ZM125.33 137.34H123.33V135.34H125.33V137.34ZM128.311 137.34V135.34H130.311V137.34H128.311ZM150.672 129.887L148.672 129.887L148.672 129.887L150.672 129.887ZM150.672 89.6373L148.672 89.6373L148.672 88.4605L149.701 87.889L150.672 89.6373ZM181.977 30.0086L179.978 30.0775L179.978 30.0775L181.977 30.0086ZM152.163 32.9901H150.163V32.9295L150.166 32.8691L152.163 32.9901ZM135.019 65.7858L136.39 67.2422L135.813 67.7858H135.019V65.7858ZM97.006 65.7858V67.7858H95.006V65.7858H97.006ZM90.4295 7.22315L89.1412 5.69333L89.1412 5.69333L90.4295 7.22315ZM68.6824 25.5365L69.9707 27.0663L69.4124 27.5365H68.6824V25.5365ZM47.8124 25.5365V27.5365H47.1108L46.563 27.0982L47.8124 25.5365ZM24.4968 6.88403L23.2474 8.44577L23.2474 8.44577L24.4968 6.88403ZM15.998 25.5365V10.0075H19.998V25.5365H15.998ZM15.998 65.7858V25.5365H19.998V65.7858H15.998ZM15.9981 119.34L15.998 65.7858L19.998 65.7858L19.9981 119.34L15.9981 119.34ZM25.9347 136.627C19.9961 133.164 15.9981 126.72 15.9981 119.34H19.9981C19.9981 125.24 23.1897 130.396 27.95 133.172L25.9347 136.627ZM28.9424 134.9V165.117H24.9424V134.9H28.9424ZM28.9424 165.117C28.9424 168.431 31.6286 171.117 34.9424 171.117V175.117C29.4195 175.117 24.9424 170.64 24.9424 165.117H28.9424ZM34.9424 171.117H41.3031V175.117H34.9424V171.117ZM41.3031 171.117C44.6168 171.117 47.3031 168.431 47.3031 165.117H51.3031C51.3031 170.64 46.826 175.117 41.3031 175.117V171.117ZM47.3031 165.117V137.34H51.3031V165.117H47.3031ZM53.7753 139.34H49.3031V135.34H53.7753V139.34ZM51.7753 165.117V137.34H55.7753V165.117H51.7753ZM61.7753 175.117C56.2524 175.117 51.7753 170.64 51.7753 165.117H55.7753C55.7753 168.431 58.4615 171.117 61.7753 171.117V175.117ZM68.136 175.117H61.7753V171.117H68.136V175.117ZM78.136 165.117C78.136 170.64 73.6589 175.117 68.136 175.117V171.117C71.4497 171.117 74.136 168.431 74.136 165.117H78.136ZM78.136 137.34V165.117H74.136V137.34H78.136ZM102.969 139.34H76.136V135.34H102.969V139.34ZM100.969 165.117V137.34H104.969V165.117H100.969ZM110.969 175.117C105.446 175.117 100.969 170.64 100.969 165.117H104.969C104.969 168.431 107.655 171.117 110.969 171.117V175.117ZM117.33 175.117H110.969V171.117H117.33V175.117ZM127.33 165.117C127.33 170.64 122.853 175.117 117.33 175.117V171.117C120.643 171.117 123.33 168.431 123.33 165.117H127.33ZM127.33 137.34V165.117H123.33V137.34H127.33ZM128.311 139.34H125.33V135.34H128.311V139.34ZM126.311 165.117V137.34H130.311V165.117H126.311ZM136.311 175.117C130.788 175.117 126.311 170.64 126.311 165.117H130.311C130.311 168.431 132.997 171.117 136.311 171.117V175.117ZM142.672 175.117H136.311V171.117H142.672V175.117ZM152.672 165.117C152.672 170.64 148.195 175.117 142.672 175.117V171.117C145.986 171.117 148.672 168.431 148.672 165.117H152.672ZM152.672 137.34V165.117H148.672V137.34H152.672ZM152.672 129.887V137.34H148.672V129.887H152.672ZM152.672 89.6373L152.672 129.887L148.672 129.887L148.672 89.6373L152.672 89.6373ZM183.976 29.9397C184.19 36.1573 183.033 47.611 178.403 59.4341C173.766 71.277 165.583 83.6414 151.643 91.3856L149.701 87.889C162.594 80.726 170.269 69.239 174.679 57.9757C179.096 46.6928 180.175 35.7857 179.978 30.0775L183.976 29.9397ZM150.166 32.8691C150.562 26.3393 152.72 21.4937 155.961 18.2927C159.2 15.0934 163.365 13.6962 167.452 13.7915C175.54 13.9801 183.636 20.0785 183.976 29.9397L179.978 30.0775C179.722 22.6465 173.655 17.9372 167.359 17.7904C164.253 17.718 161.169 18.7711 158.771 21.1387C156.376 23.5046 154.509 27.3424 154.159 33.111L150.166 32.8691ZM133.649 64.3294C139.943 58.4052 144.036 53.7395 146.581 49.0007C149.093 44.323 150.163 39.4472 150.163 32.9901H154.163C154.163 39.9494 152.996 45.5086 150.105 50.8932C147.246 56.2168 142.767 61.2407 136.39 67.2422L133.649 64.3294ZM97.006 63.7858H135.019V67.7858H97.006V63.7858ZM99.006 25.5365V65.7858H95.006V25.5365H99.006ZM99.006 10.2828V25.5365H95.006V10.2828H99.006ZM89.1412 5.69333C93.0434 2.40725 99.006 5.18129 99.006 10.2828H95.006C95.006 8.58229 93.0185 7.65762 91.7178 8.75297L89.1412 5.69333ZM67.3941 24.0067L89.1412 5.69333L91.7178 8.75297L69.9707 27.0663L67.3941 24.0067ZM47.8124 23.5365H68.6824V27.5365H47.8124V23.5365ZM25.7462 5.32229L49.0618 23.9747L46.563 27.0982L23.2474 8.44577L25.7462 5.32229ZM15.998 10.0075C15.998 4.97649 21.8176 2.17942 25.7462 5.3223L23.2474 8.44577C21.9379 7.39816 19.998 8.33049 19.998 10.0075H15.998Z" fill="#22201D" mask="url(#path-1-inside-1_229_7648)"/>
<circle cx="12.6711" cy="12.6711" r="12.6711" transform="matrix(-1 0 0 1 50.7938 41.9343)" fill="#FED23E"/>
<circle cx="8.9443" cy="8.9443" r="8.9443" transform="matrix(-1 0 0 1 47.8124 46.4065)" fill="#22201D"/>
<line x1="1" y1="-1" x2="4.37486" y2="-1" transform="matrix(-0.5547 -0.83205 -0.83205 0.5547 26.9655 42.4039)" stroke="#FFF6E4" stroke-width="2" stroke-linecap="round"/>
<line x1="1" y1="-1" x2="4.37486" y2="-1" transform="matrix(-0.5547 -0.83205 -0.83205 0.5547 31.4376 40.9132)" stroke="#FFF6E4" stroke-width="2" stroke-linecap="round"/>
<circle cx="12.6711" cy="12.6711" r="12.6711" transform="matrix(-1 0 0 1 89.5525 41.9343)" fill="#FED23E"/>
<circle cx="8.9443" cy="8.9443" r="8.9443" transform="matrix(-1 0 0 1 85.0803 46.4065)" fill="#22201D"/>
<line x1="89.2982" y1="41.0171" x2="91.1702" y2="38.2091" stroke="#FFF6E4" stroke-width="2" stroke-linecap="round"/>
<line x1="84.826" y1="39.5264" x2="86.6981" y2="36.7184" stroke="#FFF6E4" stroke-width="2" stroke-linecap="round"/>
<path d="M57.502 67.2765C57.502 73.2394 59.838 74.7301 62.7195 74.7301C65.6011 74.7301 67.937 72.0604 67.937 68.7672" stroke="#FFF6E4" stroke-width="2" stroke-linecap="round"/>
<path d="M57.502 67.2765C57.502 73.2394 55.1661 74.7301 52.2845 74.7301C49.403 74.7301 47.067 72.0604 47.067 68.7672" stroke="#FFF6E4" stroke-width="2" stroke-linecap="round"/>
<path d="M52.7845 63.5497C52.7845 64.3755 53.2522 65.1702 54.1033 65.7781C54.9534 66.3853 56.1534 66.7765 57.502 66.7765C58.8506 66.7765 60.0506 66.3853 60.9007 65.7781C61.7518 65.1702 62.2195 64.3755 62.2195 63.5497C62.2195 62.724 61.7518 61.9293 60.9007 61.3214C60.0506 60.7141 58.8506 60.3229 57.502 60.3229C56.1534 60.3229 54.9534 60.7141 54.1033 61.3214C53.2522 61.9293 52.7845 62.724 52.7845 63.5497Z" fill="#FFF6E4" stroke="#FFF6E4"/>
<path d="M92.5339 16.2246V25.2818C92.5339 25.8341 92.0862 26.2818 91.5339 26.2818H77.9481C76.9587 26.2818 76.5702 24.9986 77.3934 24.4498L90.9792 15.3925C91.6438 14.9495 92.5339 15.4259 92.5339 16.2246Z" fill="#FFF6E4"/>
<path d="M22.4702 15.4792V24.5365C22.4702 25.0887 22.9179 25.5365 23.4702 25.5365H37.056C38.0454 25.5365 38.434 24.2532 37.6107 23.7044L24.0249 14.6472C23.3604 14.2042 22.4702 14.6805 22.4702 15.4792Z" fill="#FFF6E4"/>
</svg>
