<svg width="200" height="180" viewBox="0 0 200 180" fill="none" xmlns="http://www.w3.org/2000/svg">
<path fill-rule="evenodd" clip-rule="evenodd" d="M24.2258 11.0075V25.5069L24.2258 64.0189L24.2258 114.485C24.2258 124.426 32.2847 132.485 42.2258 132.485H151.173V92.3051C151.177 92.3089 151.18 92.3126 151.184 92.3163C183.991 86.6108 195.12 54.6305 197.634 43.4929C201.279 27.3433 176.665 16.6128 169.316 39.0165C166.224 50.807 160.706 56.6433 147.639 64.0189H99.8234V25.5069V11.2828C99.8234 7.88179 95.8483 6.03244 93.2469 8.22315L72.7224 25.5069H52.7532L30.7246 7.88403C28.1055 5.78879 24.2258 7.65349 24.2258 11.0075Z" fill="#22201D"/>
<path d="M147.642 120.951C152.903 131.291 156.836 135.548 165.421 138.058C180.883 143.615 172.928 160.549 161.75 157.695C154.042 155.727 131.984 147.35 128.65 124.388C134.717 118.395 146.886 119.465 147.642 120.951Z" fill="#22201D"/>
<path d="M132.18 131.437C125.267 140.754 123.209 146.172 124.788 154.977C126.703 171.294 107.998 171.719 105.572 160.441C103.899 152.663 101.569 129.183 120.64 115.967C128.708 118.728 133.173 130.098 132.18 131.437Z" fill="#22201D"/>
<path d="M39.388 124.175C29.6466 130.476 25.8191 134.828 24.209 143.627C20.2795 159.579 2.61358 153.417 4.29776 142.004C5.45926 134.133 11.5124 111.328 34.0074 105.64C40.5945 111.056 40.7876 123.27 39.388 124.175Z" fill="#22201D"/>
<path d="M61.0106 128.363C59.0446 139.797 59.652 145.56 65.0328 152.706C74.1035 166.404 57.6016 175.222 50.3488 166.251C45.3469 160.064 32.6748 140.161 43.7326 119.762C52.1786 118.587 61.293 126.72 61.0106 128.363Z" fill="#22201D"/>
<path d="M62.0247 65.4453C62.0247 71.1508 64.2598 72.5772 67.017 72.5772C69.7742 72.5772 72.0093 70.0227 72.0093 66.8717" stroke="#FFF6E4" stroke-width="2" stroke-linecap="round"/>
<path d="M62.0248 65.4453C62.0248 71.1508 59.7896 72.5772 57.0325 72.5772C54.2753 72.5772 52.0402 70.0227 52.0402 66.8717" stroke="#FFF6E4" stroke-width="2" stroke-linecap="round"/>
<path d="M57.5324 61.8794C57.5324 62.6607 57.9749 63.4152 58.7852 63.994C59.5946 64.5721 60.7383 64.9453 62.0247 64.9453C63.3111 64.9453 64.4548 64.5721 65.2641 63.994C66.0744 63.4152 66.517 62.6607 66.517 61.8794C66.517 61.0981 66.0744 60.3435 65.2641 59.7647C64.4548 59.1866 63.3111 58.8134 62.0247 58.8134C60.7383 58.8134 59.5946 59.1866 58.7852 59.7647C57.9749 60.3435 57.5324 61.0981 57.5324 61.8794Z" fill="#FFF6E4" stroke="#FFF6E4"/>
<path d="M95.5444 16.6777V25.2201C95.5444 25.7724 95.0967 26.2201 94.5444 26.2201H81.7308C80.7414 26.2201 80.3528 24.9369 81.1761 24.3881L93.9897 15.8456C94.6543 15.4026 95.5444 15.879 95.5444 16.6777Z" fill="#FFF6E4"/>
<path d="M28.505 15.9645V24.5069C28.505 25.0592 28.9527 25.5069 29.505 25.5069H42.3187C43.3081 25.5069 43.6966 24.2237 42.8734 23.6749L30.0597 15.1324C29.3952 14.6894 28.505 15.1658 28.505 15.9645Z" fill="#FFF6E4"/>
<path d="M33.9674 55.91C33.9674 51.1834 37.7991 47.3518 42.5256 47.3518C47.2522 47.3518 51.0839 51.1834 51.0839 55.91" stroke="#8B8483" stroke-width="2" stroke-linecap="round"/>
<path d="M72.4795 55.91C72.4795 51.1834 76.3111 47.3518 81.0377 47.3518C85.7643 47.3518 89.5959 51.1834 89.5959 55.91" stroke="#8B8483" stroke-width="3" stroke-linecap="round"/>
<line x1="90.745" y1="45.965" x2="92.4883" y2="43.35" stroke="#FFF6E4" stroke-width="2" stroke-linecap="round"/>
<line x1="86.4658" y1="44.5387" x2="88.2092" y2="41.9237" stroke="#FFF6E4" stroke-width="2" stroke-linecap="round"/>
<path d="M51.0839 55.91C51.0839 51.1834 47.2522 47.3518 42.5256 47.3518C37.7991 47.3518 33.9674 51.1834 33.9674 55.91" stroke="#8B8483" stroke-width="3" stroke-linecap="round"/>
<line x1="1" y1="-1" x2="4.14285" y2="-1" transform="matrix(-0.5547 -0.83205 -0.83205 0.5547 32.541 47.3518)" stroke="#FFF6E4" stroke-width="2" stroke-linecap="round"/>
<line x1="1" y1="-1" x2="4.14285" y2="-1" transform="matrix(-0.5547 -0.83205 -0.83205 0.5547 36.8201 45.9254)" stroke="#FFF6E4" stroke-width="2" stroke-linecap="round"/>
</svg>
