<svg width="200" height="180" viewBox="0 0 200 180" fill="none" xmlns="http://www.w3.org/2000/svg">
<path fill-rule="evenodd" clip-rule="evenodd" d="M177.188 4.0075C177.188 0.653477 173.309 -1.21121 170.69 0.884036L145.473 21.0575L123.272 21.0574L99.7185 1.22315C97.117 -0.967558 93.142 0.881779 93.142 4.28279V21.0575V34.4744C50.4863 37.3317 16.6895 65.6627 14.7127 100.758C9.82408 108.608 7 117.876 7 127.804C7 156.098 29.9366 179.034 58.2303 179.034C63.7531 179.034 68.2303 174.557 68.2303 169.034C68.2303 163.512 63.7531 159.034 58.2303 159.034C40.9823 159.034 27 145.052 27 127.804C27 126.913 27.0373 126.031 27.1104 125.159C37.926 129.411 54.5048 127.254 71.7261 125.013C82.2066 123.649 92.925 122.254 102.727 122.254C112.994 122.254 123.355 123.784 132.983 125.206C146.193 127.157 158.026 128.905 166.349 126.218H180.827C187.395 126.218 192.72 120.894 192.72 114.325C192.72 107.757 187.395 102.432 180.827 102.432H178.754C178.767 99.9287 178.807 97.4582 178.848 95.0269C179.017 84.7799 179.174 75.2289 177.188 66.8728L177.188 21.0575V4.0075Z" fill="#22201D"/>
<path d="M134.663 63.8735C134.663 70.2166 132.178 73.3881 129.113 73.3881" stroke="#FFF6E4" stroke-width="2" stroke-linecap="round"/>
<path d="M134.663 63.8735C134.663 70.2166 137.148 73.3881 140.213 73.3881" stroke="#FFF6E4" stroke-width="2" stroke-linecap="round"/>
<path d="M139.713 59.909C139.713 60.8003 139.208 61.6545 138.297 62.3054C137.386 62.9556 136.103 63.3734 134.663 63.3734C133.222 63.3734 131.939 62.9556 131.029 62.3054C130.118 61.6545 129.613 60.8003 129.613 59.909C129.613 59.0176 130.118 58.1635 131.029 57.5125C131.939 56.8623 133.222 56.4445 134.663 56.4445C136.103 56.4445 137.386 56.8623 138.297 57.5125C139.208 58.1635 139.713 59.0176 139.713 59.909Z" fill="#FFF6E4" stroke="#FFF6E4"/>
<path d="M97.3969 9.4467V19.2644C97.3969 19.8167 97.8446 20.2644 98.3969 20.2644H113.123C114.113 20.2644 114.501 18.9812 113.678 18.4324L98.9516 8.61465C98.287 8.17162 97.3969 8.64801 97.3969 9.4467Z" fill="#FFF6E4"/>
<path d="M171.928 8.65392V18.4716C171.928 19.0239 171.481 19.4716 170.928 19.4716H156.202C155.212 19.4716 154.824 18.1884 155.647 17.6396L170.374 7.82187C171.038 7.37883 171.928 7.85522 171.928 8.65392Z" fill="#FFF6E4"/>
<path d="M123.343 51.6869C123.343 56.066 119.438 59.6158 114.621 59.6158C109.804 59.6158 105.899 56.066 105.899 51.6869" stroke="#8B8483" stroke-width="3" stroke-linecap="round"/>
<line x1="108.793" y1="66.158" x2="110.855" y2="63.0648" stroke="#FFF6E4" stroke-width="2" stroke-linecap="round"/>
<line x1="104.036" y1="64.5721" x2="106.098" y2="61.4789" stroke="#FFF6E4" stroke-width="2" stroke-linecap="round"/>
<path d="M162.987 51.6869C162.987 56.066 159.082 59.6158 154.265 59.6158C149.448 59.6158 145.543 56.066 145.543 51.6869" stroke="#8B8483" stroke-width="3" stroke-linecap="round"/>
<line x1="1" y1="-1" x2="4.71761" y2="-1" transform="matrix(-0.5547 -0.83205 -0.83205 0.5547 161.401 67.5447)" stroke="#FFF6E4" stroke-width="2" stroke-linecap="round"/>
<line x1="1" y1="-1" x2="4.71761" y2="-1" transform="matrix(-0.5547 -0.83205 -0.83205 0.5547 166.159 65.9589)" stroke="#FFF6E4" stroke-width="2" stroke-linecap="round"/>
</svg>
