<svg width="204" height="212" viewBox="0 0 204 212" fill="none" xmlns="http://www.w3.org/2000/svg">
<path fill-rule="evenodd" clip-rule="evenodd" d="M96.453 2.87492L106.555 13.2764L133.385 40.9039L145.345 53.2186C151.01 40.2639 163.256 32.8748 168.545 30.3709C178.972 25.4346 190.015 40.5383 175.899 48.9454C167.951 53.0495 164.903 57.9788 161.714 69.1334C161.67 69.2868 161.523 69.4564 161.287 69.6336L166.526 75.0281C176.319 68.183 187.899 66.7524 193.04 66.6108C204.572 66.293 208.594 84.5655 192.288 86.5739C183.36 87.1283 178.585 90.4122 171.172 99.337C171.076 99.4529 170.89 99.5449 170.627 99.6111C169.93 100.658 169.111 101.648 168.172 102.56L123.134 146.3C133.079 151.412 139.608 159.963 142.196 164.102C148.314 173.882 134.599 186.609 124.605 173.569C120.155 166.971 115.508 164.302 106.475 162.478L102.102 166.725C109.22 183.488 101.127 200.574 97.4915 206.504C91.4615 216.339 73.9567 209.733 81.1771 194.975C85.5872 187.192 85.443 181.399 82.013 170.316C82.0022 170.281 81.9954 170.242 81.9927 170.2L57.7837 145.272C57.7474 145.322 57.7108 145.372 57.6739 145.422C24.375 145.333 8.00966 115.689 3.653 105.135C-2.66418 89.832 19.7864 75.1028 30.81 95.9454C35.7331 106.795 41.9821 111.647 55.4517 116.591L79.1538 93.5719L52.3229 65.9444L42.4131 55.7404C40.0436 53.3006 41.6068 49.2045 44.9993 48.9637L71.7644 47.0634L86.0898 33.1511L89.6149 5.16185C90.034 1.83411 94.1163 0.468835 96.453 2.87492Z" fill="#22201D"/>
<path d="M106.763 67.8489C110.738 71.9419 110.128 74.5223 108.15 76.4432C106.172 78.3641 102.789 78.0888 100.594 75.8283" stroke="#FFF6E4" stroke-width="2" stroke-linecap="round"/>
<path d="M106.763 67.8489C110.738 71.9419 113.335 71.4079 115.313 69.487C117.291 67.5662 117.114 64.1765 114.919 61.916" stroke="#FFF6E4" stroke-width="2" stroke-linecap="round"/>
<path d="M107.501 62.1611C108.045 62.7216 108.254 63.5712 108.075 64.5509C107.898 65.5295 107.337 66.594 106.414 67.4903C105.492 68.3865 104.411 68.9156 103.428 69.0647C102.443 69.214 101.6 68.9811 101.056 68.4206C100.511 67.8601 100.303 67.0105 100.481 66.0308C100.659 65.0522 101.22 63.9876 102.142 63.0914C103.065 62.1952 104.146 61.6661 105.129 61.517C106.114 61.3676 106.957 61.6006 107.501 62.1611Z" fill="#FFF6E4" stroke="#FFF6E4"/>
<path d="M48.7407 56.2171L54.6922 62.3452C55.0769 62.7414 55.71 62.7507 56.1062 62.3659L65.2984 53.4387C66.0082 52.7494 65.3929 51.5582 64.42 51.738L49.2764 54.537C48.491 54.6822 48.1843 55.6441 48.7407 56.2171Z" fill="#FFF6E4"/>
<path d="M96.3361 8.99985L102.288 15.128C102.672 15.5242 102.663 16.1573 102.267 16.542L93.0746 25.4692C92.3649 26.1585 91.1921 25.5086 91.4003 24.5414L94.6411 9.4861C94.8092 8.70529 95.7796 8.42689 96.3361 8.99985Z" fill="#FFF6E4"/>
<path d="M118.247 44.4613C114.954 41.0706 109.536 40.9913 106.145 44.2843C102.755 47.5772 102.675 52.9954 105.968 56.3861" stroke="#8B8483" stroke-width="2" stroke-linecap="round"/>
<path d="M90.6196 71.2922C87.3266 67.9015 81.9085 67.8223 78.5177 71.1152C75.127 74.4082 75.0478 79.8264 78.3407 83.2171" stroke="#8B8483" stroke-width="3" stroke-linecap="round"/>
<line x1="1" y1="-1" x2="4.14285" y2="-1" transform="matrix(-0.977607 -0.210438 -0.210438 0.977607 71.355 78.0713)" stroke="#FFF6E4" stroke-width="2" stroke-linecap="round"/>
<line x1="1" y1="-1" x2="4.14285" y2="-1" transform="matrix(-0.977607 -0.210438 -0.210438 0.977607 73.431 74.0669)" stroke="#FFF6E4" stroke-width="2" stroke-linecap="round"/>
<path d="M105.968 56.3862C102.675 52.9955 102.755 47.5773 106.145 44.2843C109.536 40.9914 114.954 41.0706 118.247 44.4613" stroke="#8B8483" stroke-width="3" stroke-linecap="round"/>
<line x1="112.143" y1="36.5266" x2="111.572" y2="33.4361" stroke="#FFF6E4" stroke-width="2" stroke-linecap="round"/>
<line x1="108.079" y1="38.4845" x2="107.508" y2="35.394" stroke="#FFF6E4" stroke-width="2" stroke-linecap="round"/>
</svg>
