<svg width="204" height="173" viewBox="0 0 204 173" fill="none" xmlns="http://www.w3.org/2000/svg">
<path fill-rule="evenodd" clip-rule="evenodd" d="M181.083 4.92834V20.0936L181.083 59.5905L181.083 111.807C181.083 121.748 173.024 129.807 163.083 129.807H48.7968V88.6002C48.7928 88.604 48.7888 88.6078 48.7848 88.6116C14.5984 82.7602 3.00069 49.9619 0.381259 38.5395C-3.41692 21.9769 22.2321 10.972 29.8904 33.9486C33.1122 46.0407 38.863 52.0263 52.4789 59.5905H102.306V20.0936V5.19827C102.306 1.81196 106.251 -0.0423404 108.858 2.11852L130.547 20.0936H151.356L174.609 1.78557C177.233 -0.280348 181.083 1.58875 181.083 4.92834Z" fill="#22201D"/>
<path d="M52.4759 117.978C46.994 128.583 42.8957 132.949 33.9489 135.523C17.8373 141.222 26.1267 158.59 37.7743 155.663C45.8072 153.644 68.7929 145.053 72.2665 121.503C65.9444 115.358 53.2636 116.455 52.4759 117.978Z" fill="#22201D"/>
<path d="M68.5886 128.733C75.7918 138.288 77.9364 143.844 76.2915 152.874C74.2953 169.609 93.7872 170.045 96.3151 158.479C98.0584 150.502 100.487 126.421 80.614 112.867C72.2065 115.698 67.5536 127.36 68.5886 128.733Z" fill="#22201D"/>
<path d="M165.283 121.285C175.435 127.747 179.423 132.21 181.101 141.234C185.196 157.595 203.605 151.274 201.85 139.57C200.639 131.498 194.332 108.109 170.89 102.276C164.026 107.83 163.825 120.357 165.283 121.285Z" fill="#22201D"/>
<path d="M142.751 125.58C144.8 137.306 144.167 143.217 138.56 150.546C129.108 164.595 146.304 173.638 153.861 164.437C159.074 158.092 172.279 137.68 160.756 116.76C151.955 115.554 142.457 123.895 142.751 125.58Z" fill="#22201D"/>
<path d="M141.695 61.0532C141.695 66.9046 139.365 68.3675 136.492 68.3675C133.619 68.3675 131.29 65.7477 131.29 62.5161" stroke="#FFF6E4" stroke-width="3" stroke-linecap="round"/>
<path d="M141.695 61.0532C141.695 66.9046 144.024 68.3675 146.897 68.3675C149.77 68.3675 152.099 65.7477 152.099 62.5161" stroke="#FFF6E4" stroke-width="3" stroke-linecap="round"/>
<path d="M146.397 57.3959C146.397 58.1988 145.934 58.976 145.085 59.5728C144.238 60.1687 143.041 60.553 141.694 60.553C140.348 60.553 139.151 60.1687 138.303 59.5728C137.454 58.976 136.992 58.1988 136.992 57.3959C136.992 56.593 137.454 55.8158 138.303 55.219C139.151 54.6231 140.348 54.2388 141.694 54.2388C143.041 54.2388 144.238 54.6231 145.085 55.219C145.934 55.8158 146.397 56.593 146.397 57.3959Z" fill="#FFF6E4" stroke="#FFF6E4"/>
<path d="M106.765 10.9742V19.8249C106.765 20.3772 107.213 20.8249 107.765 20.8249H121.255C122.248 20.8249 122.634 19.5336 121.803 18.9888L108.314 10.1381C107.649 9.7018 106.765 10.1788 106.765 10.9742Z" fill="#FFF6E4"/>
<path d="M176.624 10.2428V19.0934C176.624 19.6457 176.176 20.0934 175.624 20.0934H162.135C161.141 20.0934 160.756 18.8022 161.586 18.2573L175.075 9.40668C175.74 8.97035 176.624 9.4474 176.624 10.2428Z" fill="#FFF6E4"/>
<path d="M170.932 51.2742C170.932 46.4267 166.939 42.4971 162.014 42.4971C157.089 42.4971 153.096 46.4267 153.096 51.2742" stroke="#8B8483" stroke-width="2" stroke-linecap="round"/>
<path d="M130.8 51.2742C130.8 46.4267 126.807 42.4971 121.882 42.4971C116.956 42.4971 112.963 46.4267 112.963 51.2742" stroke="#8B8483" stroke-width="2" stroke-linecap="round"/>
<line x1="1" y1="-1" x2="4.30061" y2="-1" transform="matrix(-0.560827 -0.827933 -0.836097 0.548581 111.477 42.4971)" stroke="#FFF6E4" stroke-width="2" stroke-linecap="round"/>
<line x1="1" y1="-1" x2="4.30061" y2="-1" transform="matrix(-0.560827 -0.827933 -0.836097 0.548581 115.936 41.0342)" stroke="#FFF6E4" stroke-width="2" stroke-linecap="round"/>
<path d="M153.096 51.2742C153.096 46.4267 157.089 42.4971 162.014 42.4971C166.939 42.4971 170.932 46.4267 170.932 51.2742" stroke="#8B8483" stroke-width="2" stroke-linecap="round"/>
<line x1="1" y1="-1" x2="4.30062" y2="-1" transform="matrix(0.560828 -0.827933 0.836098 0.54858 172.418 42.4971)" stroke="#FFF6E4" stroke-width="2" stroke-linecap="round"/>
<line x1="1" y1="-1" x2="4.30061" y2="-1" transform="matrix(0.560826 -0.827934 0.836097 0.548582 167.959 41.0342)" stroke="#FFF6E4" stroke-width="2" stroke-linecap="round"/>
</svg>
