<svg width="200" height="180" viewBox="0 0 200 180" fill="none" xmlns="http://www.w3.org/2000/svg">
<path fill-rule="evenodd" clip-rule="evenodd" d="M12.9692 12.0075V29.228H44.8979L19.468 8.88404C16.8489 6.78879 12.9692 8.65348 12.9692 12.0075ZM97.5803 29.228V12.2828C97.5803 8.8818 93.6052 7.03244 91.0037 9.22315L67.248 29.228H97.5803ZM97.5803 29.228H12.9693V72.3317L12.9693 154.907C12.9693 164.848 21.0282 172.907 30.9693 172.907H133.843C133.904 172.915 133.965 172.923 134.026 172.931C134.071 172.923 134.115 172.915 134.16 172.907H134.298V172.882C170.854 166.179 184.717 124.22 187.558 111.655C191.687 93.3907 165.747 82.93 157.451 108.274C154.421 119.829 148.086 135.698 134.298 140.962V100.946C134.298 81.616 118.628 65.9459 99.2983 65.9459H97.5803V29.228Z" fill="#22201D"/>
<path d="M55.2748 73.9281C55.2748 80.3138 57.7764 83.5067 60.8623 83.5067" stroke="#FFF6E4" stroke-width="2" stroke-linecap="round"/>
<path d="M55.2748 73.9281C55.2748 80.3138 52.7732 83.5067 49.6873 83.5067" stroke="#FFF6E4" stroke-width="2" stroke-linecap="round"/>
<path d="M50.1873 69.937C50.1873 70.8357 50.6964 71.6965 51.6144 72.3523C52.5315 73.0073 53.824 73.4281 55.2748 73.4281C56.7255 73.4281 58.0181 73.0073 58.9351 72.3523C59.8532 71.6965 60.3623 70.8357 60.3623 69.937C60.3623 69.0383 59.8532 68.1775 58.9351 67.5218C58.0181 66.8667 56.7255 66.4459 55.2748 66.4459C53.824 66.4459 52.5315 66.8667 51.6144 67.5218C50.6964 68.1775 50.1873 69.0383 50.1873 69.937Z" fill="#FFF6E4" stroke="#FFF6E4"/>
<path d="M92.791 19.1232V29.0262C92.791 29.5785 92.3433 30.0262 91.791 30.0262H76.9366C75.9472 30.0262 75.5586 28.743 76.3819 28.1941L91.2363 18.2912C91.9009 17.8482 92.791 18.3245 92.791 19.1232Z" fill="#FFF6E4"/>
<path d="M17.7587 18.325V28.228C17.7587 28.7803 18.2064 29.228 18.7587 29.228H33.6131C34.6025 29.228 34.991 27.9448 34.1678 27.3959L19.3134 17.493C18.6488 17.0499 17.7587 17.5263 17.7587 18.325Z" fill="#FFF6E4"/>
<path d="M66.6712 61.6595C66.6712 66.0679 70.6023 69.6417 75.4515 69.6417C80.3008 69.6417 84.2319 66.0679 84.2319 61.6595" stroke="#8B8483" stroke-width="3" stroke-linecap="round"/>
<line x1="1" y1="-1" x2="4.75602" y2="-1" transform="matrix(-0.5547 -0.83205 -0.83205 0.5547 81.0389 77.6238)" stroke="#FFF6E4" stroke-width="2" stroke-linecap="round"/>
<line x1="1" y1="-1" x2="4.75602" y2="-1" transform="matrix(-0.5547 -0.83205 -0.83205 0.5547 85.8282 76.0273)" stroke="#FFF6E4" stroke-width="2" stroke-linecap="round"/>
<path d="M26.7603 61.6595C26.7603 66.0679 30.6914 69.6417 35.5407 69.6417C40.3899 69.6417 44.321 66.0679 44.321 61.6595" stroke="#8B8483" stroke-width="3" stroke-linecap="round"/>
<line x1="28.0793" y1="76.2371" x2="30.1628" y2="73.1119" stroke="#FFF6E4" stroke-width="2" stroke-linecap="round"/>
<line x1="23.29" y1="74.6406" x2="25.3735" y2="71.5154" stroke="#FFF6E4" stroke-width="2" stroke-linecap="round"/>
</svg>
