<svg width="213" height="200" viewBox="0 0 213 200" fill="none" xmlns="http://www.w3.org/2000/svg">
<path fill-rule="evenodd" clip-rule="evenodd" d="M173.361 12.8515C173.361 9.86712 170.302 8.08073 167.798 9.16151C167.44 9.31591 167.093 9.52882 166.769 9.80511L143.982 29.1955L123.416 29.1954L102.175 10.1689C99.5984 7.86134 95.5058 9.68983 95.5058 13.1484V29.1954V29.1955V42.4154C61.4009 44.8454 33.4095 65.974 25.2081 93.948C15.0936 104.374 8.97266 118.846 8.97266 134.375C8.97266 164.703 32.3196 191 63.1658 191C72.0023 191 79.1658 183.837 79.1658 175C79.1658 166.164 72.0023 159 63.1658 159C51.8249 159 40.9727 148.92 40.9727 134.375C40.9727 134.108 40.9763 133.843 40.9835 133.58C50.5509 135.101 62.919 133.389 75.6673 131.625L75.6674 131.625H75.6675C85.3759 130.281 95.3048 128.906 104.385 128.906C113.895 128.906 123.493 130.414 132.412 131.815L132.412 131.815C144.649 133.737 155.61 135.459 163.32 132.813H194.717C199.136 132.813 202.717 129.231 202.717 124.813V117.375C202.717 112.957 199.136 109.375 194.717 109.375H174.811C174.823 106.909 174.861 104.475 174.898 102.079C175.055 91.9824 175.201 82.5716 173.361 74.3382L173.361 29.1955V12.8515Z" fill="#22201D"/>
<path d="M133.968 71.3828C133.968 77.6328 131.666 80.7578 128.827 80.7578" stroke="#8B8483" stroke-width="3" stroke-linecap="round"/>
<path d="M133.968 71.3828C133.968 77.6328 136.27 80.7578 139.109 80.7578" stroke="#8B8483" stroke-width="3" stroke-linecap="round"/>
<path d="M138.609 67.4766C138.609 68.3654 138.136 69.2059 137.301 69.8406C136.465 70.4756 135.289 70.8828 133.968 70.8828C132.648 70.8828 131.471 70.4756 130.635 69.8406C129.8 69.2059 129.327 68.3654 129.327 67.4766C129.327 66.5878 129.8 65.7473 130.635 65.1126C131.471 64.4776 132.648 64.0703 133.968 64.0703C135.289 64.0703 136.465 64.4776 137.301 65.1126C138.136 65.7473 138.609 66.5878 138.609 67.4766Z" fill="#8B8483" stroke="#8B8483"/>
<path d="M99.4473 17.8491V27.4141C99.4473 27.9663 99.895 28.4141 100.447 28.4141H113.936C114.91 28.4141 115.309 27.1621 114.514 26.5983L101.026 17.0334C100.364 16.5638 99.4473 17.0373 99.4473 17.8491Z" fill="#FFF6E4"/>
<path d="M168.489 17.0678V26.6328C168.489 27.1851 168.041 27.6328 167.489 27.6328H154C153.026 27.6328 152.627 26.3808 153.422 25.8171L166.91 16.2521C167.573 15.7825 168.489 16.256 168.489 17.0678Z" fill="#FFF6E4"/>
<path d="M123.481 59.375C123.481 63.6897 119.864 67.1875 115.402 67.1875C110.94 67.1875 107.323 63.6897 107.323 59.375" stroke="#8B8483" stroke-width="2" stroke-linecap="round"/>
<line x1="1" y1="-1" x2="4.53211" y2="-1" transform="matrix(0.53107 -0.847328 0.815723 0.578442 110.261 75)" stroke="#FFF6E4" stroke-width="2" stroke-linecap="round"/>
<line x1="1" y1="-1" x2="4.5321" y2="-1" transform="matrix(0.531069 -0.847329 0.815723 0.578443 105.854 73.4375)" stroke="#FFF6E4" stroke-width="2" stroke-linecap="round"/>
<path d="M160.205 59.375C160.205 63.6897 156.588 67.1875 152.126 67.1875C147.664 67.1875 144.047 63.6897 144.047 59.375" stroke="#8B8483" stroke-width="2" stroke-linecap="round"/>
<line x1="1" y1="-1" x2="4.5321" y2="-1" transform="matrix(-0.531069 -0.847329 -0.815723 0.578443 158.736 75)" stroke="#FFF6E4" stroke-width="2" stroke-linecap="round"/>
<line x1="1" y1="-1" x2="4.53211" y2="-1" transform="matrix(-0.531071 -0.847327 -0.815724 0.578441 163.144 73.4375)" stroke="#FFF6E4" stroke-width="2" stroke-linecap="round"/>
</svg>
