<svg width="204" height="173" viewBox="0 0 204 173" fill="none" xmlns="http://www.w3.org/2000/svg">
<path fill-rule="evenodd" clip-rule="evenodd" d="M22.5686 4.92834V20.0936L22.5686 59.5905L22.5686 111.807C22.5686 121.748 30.6275 129.807 40.5686 129.807H154.855V88.6002C154.859 88.604 154.863 88.6078 154.867 88.6116C189.053 82.7602 200.651 49.9619 203.271 38.5395C207.069 21.9769 181.42 10.972 173.761 33.9486C170.54 46.0407 164.789 52.0263 151.173 59.5905H101.346V20.0936V5.19827C101.346 1.81196 97.4007 -0.0423404 94.7935 2.11852L73.105 20.0936H52.2959L29.0431 1.78557C26.4192 -0.280348 22.5686 1.58875 22.5686 4.92834Z" fill="#22201D"/>
<path d="M151.176 117.978C156.658 128.583 160.756 132.949 169.703 135.523C185.815 141.222 177.525 158.59 165.878 155.663C157.845 153.644 134.859 145.053 131.385 121.503C137.707 115.358 150.388 116.455 151.176 117.978Z" fill="#22201D"/>
<path d="M135.063 128.733C127.86 138.288 125.716 143.844 127.36 152.874C129.357 169.609 109.865 170.045 107.337 158.479C105.593 150.502 103.165 126.421 123.038 112.867C131.445 115.698 136.098 127.36 135.063 128.733Z" fill="#22201D"/>
<path d="M38.3685 121.285C28.2173 127.747 24.2288 132.21 22.551 141.234C18.4562 157.595 0.0472466 151.274 1.80227 139.57C3.01262 131.498 9.32034 108.109 32.7615 102.276C39.6257 107.83 39.8269 120.357 38.3685 121.285Z" fill="#22201D"/>
<path d="M60.9007 125.58C58.852 137.306 59.485 143.217 65.092 150.546C74.5443 164.595 57.3483 173.638 49.7905 164.437C44.5782 158.092 31.3731 137.68 42.896 116.76C51.6972 115.554 61.195 123.895 60.9007 125.58Z" fill="#22201D"/>
<path d="M61.9573 61.0532C61.9573 66.9046 64.2864 68.3675 67.1595 68.3675C70.0327 68.3675 72.3618 65.7477 72.3618 62.5161" stroke="#FFF6E4" stroke-width="3" stroke-linecap="round"/>
<path d="M61.9573 61.0532C61.9573 66.9046 59.6281 68.3675 56.755 68.3675C53.8819 68.3675 51.5527 65.7477 51.5527 62.5161" stroke="#FFF6E4" stroke-width="3" stroke-linecap="round"/>
<path d="M57.2551 57.3959C57.2551 58.1988 57.7174 58.976 58.5664 59.5728C59.4139 60.1687 60.6113 60.553 61.9574 60.553C63.3035 60.553 64.5008 60.1687 65.3484 59.5728C66.1974 58.976 66.6597 58.1988 66.6597 57.3959C66.6597 56.593 66.1974 55.8158 65.3484 55.219C64.5008 54.6231 63.3035 54.2388 61.9574 54.2388C60.6113 54.2388 59.4139 54.6231 58.5664 55.219C57.7174 55.8158 57.2551 56.593 57.2551 57.3959Z" fill="#FFF6E4" stroke="#FFF6E4"/>
<path d="M96.8867 10.9742V19.8249C96.8867 20.3772 96.439 20.8249 95.8867 20.8249H82.3973C81.4041 20.8249 81.0183 19.5336 81.8488 18.9888L95.3381 10.1381C96.0031 9.7018 96.8867 10.1788 96.8867 10.9742Z" fill="#FFF6E4"/>
<path d="M27.0278 10.2428V19.0934C27.0278 19.6457 27.4755 20.0934 28.0278 20.0934H41.5172C42.5104 20.0934 42.8962 18.8022 42.0658 18.2573L28.5764 9.40668C27.9114 8.97035 27.0278 9.4474 27.0278 10.2428Z" fill="#FFF6E4"/>
<path d="M32.7198 51.2742C32.7198 46.4267 36.7126 42.4971 41.638 42.4971C46.5633 42.4971 50.5562 46.4267 50.5562 51.2742" stroke="#8B8483" stroke-width="2" stroke-linecap="round"/>
<path d="M72.8521 51.2742C72.8521 46.4267 76.8449 42.4971 81.7703 42.4971C86.6957 42.4971 90.6885 46.4267 90.6885 51.2742" stroke="#8B8483" stroke-width="2" stroke-linecap="round"/>
<line x1="1" y1="-1" x2="4.30061" y2="-1" transform="matrix(0.560827 -0.827933 0.836097 0.548581 92.1748 42.4971)" stroke="#FFF6E4" stroke-width="2" stroke-linecap="round"/>
<line x1="1" y1="-1" x2="4.30061" y2="-1" transform="matrix(0.560827 -0.827933 0.836097 0.548581 87.7158 41.0342)" stroke="#FFF6E4" stroke-width="2" stroke-linecap="round"/>
<path d="M50.5561 51.2742C50.5561 46.4267 46.5633 42.4971 41.6379 42.4971C36.7125 42.4971 32.7197 46.4267 32.7197 51.2742" stroke="#8B8483" stroke-width="2" stroke-linecap="round"/>
<line x1="1" y1="-1" x2="4.30062" y2="-1" transform="matrix(-0.560828 -0.827933 -0.836098 0.54858 31.2334 42.4971)" stroke="#FFF6E4" stroke-width="2" stroke-linecap="round"/>
<line x1="1" y1="-1" x2="4.30061" y2="-1" transform="matrix(-0.560826 -0.827934 -0.836097 0.548582 35.6924 41.0342)" stroke="#FFF6E4" stroke-width="2" stroke-linecap="round"/>
</svg>
