<svg width="204" height="212" viewBox="0 0 204 212" fill="none" xmlns="http://www.w3.org/2000/svg">
<path fill-rule="evenodd" clip-rule="evenodd" d="M107.547 2.87492L97.4454 13.2764L70.6145 40.9039L58.6549 53.2186C52.9895 40.2639 40.7435 32.8748 35.4548 30.3709C25.0282 25.4346 13.9854 40.5383 28.101 48.9454C36.0491 53.0495 39.0967 57.9788 42.2857 69.1334C42.3295 69.2868 42.4767 69.4564 42.7132 69.6336L37.4742 75.0281C27.6813 68.183 16.1011 66.7524 10.9601 66.6108C-0.571699 66.293 -4.59423 84.5655 11.7121 86.5739C20.64 87.1283 25.4152 90.4122 32.8275 99.337C32.9238 99.4529 33.1102 99.5449 33.3731 99.6111C34.0704 100.658 34.8888 101.648 35.8279 102.56L80.8664 146.3C70.9206 151.412 64.392 159.963 61.8036 164.102C55.6864 173.882 69.4012 186.609 79.3952 173.569C83.8449 166.971 88.4917 164.302 97.5249 162.478L101.898 166.725C94.7805 183.488 102.873 200.574 106.508 206.504C112.538 216.339 130.043 209.733 122.823 194.975C118.413 187.192 118.557 181.399 121.987 170.316C121.998 170.281 122.005 170.242 122.007 170.2L146.216 145.272C146.253 145.322 146.289 145.372 146.326 145.422C179.625 145.333 195.99 115.689 200.347 105.135C206.664 89.832 184.214 75.1028 173.19 95.9454C168.267 106.795 162.018 111.647 148.548 116.591L124.846 93.5719L151.677 65.9444L161.587 55.7404C163.956 53.3006 162.393 49.2045 159.001 48.9637L132.236 47.0634L117.91 33.1511L114.385 5.16185C113.966 1.83411 109.884 0.468835 107.547 2.87492Z" fill="#22201D"/>
<path d="M97.2373 67.8489C93.2624 71.9419 93.8721 74.5223 95.85 76.4432C97.8279 78.3641 101.211 78.0888 103.406 75.8283" stroke="#FFF6E4" stroke-width="2" stroke-linecap="round"/>
<path d="M97.2373 67.8489C93.2623 71.9419 90.6652 71.4079 88.6872 69.487C86.7093 67.5662 86.8855 64.1765 89.0808 61.916" stroke="#FFF6E4" stroke-width="2" stroke-linecap="round"/>
<path d="M96.499 62.1611C95.9547 62.7216 95.7465 63.5712 95.9245 64.5509C96.1024 65.5295 96.6629 66.594 97.5857 67.4903C98.5085 68.3865 99.589 68.9156 100.572 69.0647C101.557 69.214 102.4 68.9811 102.944 68.4206C103.489 67.8601 103.697 67.0105 103.519 66.0308C103.341 65.0522 102.78 63.9876 101.858 63.0914C100.935 62.1952 99.8544 61.6661 98.871 61.517C97.8865 61.3676 97.0434 61.6006 96.499 62.1611Z" fill="#FFF6E4" stroke="#FFF6E4"/>
<path d="M155.259 56.2171L149.308 62.3452C148.923 62.7414 148.29 62.7507 147.894 62.3659L138.702 53.4387C137.992 52.7494 138.607 51.5582 139.58 51.738L154.724 54.537C155.509 54.6822 155.816 55.6441 155.259 56.2171Z" fill="#FFF6E4"/>
<path d="M107.664 8.99985L101.712 15.128C101.328 15.5242 101.337 16.1573 101.733 16.542L110.925 25.4692C111.635 26.1585 112.808 25.5086 112.6 24.5414L109.359 9.4861C109.191 8.70529 108.22 8.42689 107.664 8.99985Z" fill="#FFF6E4"/>
<path d="M85.7528 44.4613C89.0458 41.0706 94.464 40.9913 97.8547 44.2843C101.245 47.5772 101.325 52.9954 98.0317 56.3861" stroke="#8B8483" stroke-width="2" stroke-linecap="round"/>
<path d="M113.38 71.2922C116.673 67.9015 122.092 67.8223 125.482 71.1152C128.873 74.4082 128.952 79.8264 125.659 83.2171" stroke="#8B8483" stroke-width="3" stroke-linecap="round"/>
<line x1="133.412" y1="76.8832" x2="136.485" y2="76.2219" stroke="#FFF6E4" stroke-width="2" stroke-linecap="round"/>
<line x1="131.336" y1="72.8788" x2="134.409" y2="72.2175" stroke="#FFF6E4" stroke-width="2" stroke-linecap="round"/>
<path d="M98.0317 56.3862C101.325 52.9955 101.245 47.5773 97.8547 44.2843C94.4639 40.9914 89.0457 41.0706 85.7528 44.4613" stroke="#8B8483" stroke-width="3" stroke-linecap="round"/>
<line x1="1" y1="-1" x2="4.14285" y2="-1" transform="matrix(0.181753 -0.983344 -0.983344 -0.181753 90.692 37.3282)" stroke="#FFF6E4" stroke-width="2" stroke-linecap="round"/>
<line x1="1" y1="-1" x2="4.14285" y2="-1" transform="matrix(0.181753 -0.983344 -0.983344 -0.181753 94.7555 39.2861)" stroke="#FFF6E4" stroke-width="2" stroke-linecap="round"/>
</svg>
