<svg width="200" height="180" viewBox="0 0 200 180" fill="none" xmlns="http://www.w3.org/2000/svg">
<mask id="path-1-inside-1_229_6696" fill="white">
<path fill-rule="evenodd" clip-rule="evenodd" d="M182.002 10.0075V25.5365V65.7858L182.002 119.34C182.002 125.98 178.407 131.78 173.058 134.9V165.117C173.058 169.536 169.476 173.117 165.058 173.117H158.697C154.279 173.117 150.697 169.536 150.697 165.117V137.34H146.225V165.117C146.225 169.536 142.643 173.117 138.225 173.117H131.864C127.446 173.117 123.864 169.536 123.864 165.117V137.34H97.0311V165.117C97.0311 169.536 93.4494 173.117 89.0311 173.117H82.6703C78.2521 173.117 74.6703 169.536 74.6703 165.117V137.34H71.6889V165.117C71.6889 169.536 68.1072 173.117 63.6889 173.117H57.3282C52.9099 173.117 49.3282 169.536 49.3282 165.117V137.34V129.887L49.3281 89.6373C22.4952 74.7301 17.6118 41.9344 18.0231 30.0086C18.6193 12.7163 46.3467 8.39323 47.8374 32.9901C47.8374 46.4065 52.3096 53.8601 64.9806 65.7858H102.994V25.5365V10.2828C102.994 6.88179 106.969 5.03244 109.571 7.22315L131.318 25.5365H152.188L175.503 6.88403C178.122 4.78879 182.002 6.65349 182.002 10.0075Z"/>
</mask>
<path fill-rule="evenodd" clip-rule="evenodd" d="M182.002 10.0075V25.5365V65.7858L182.002 119.34C182.002 125.98 178.407 131.78 173.058 134.9V165.117C173.058 169.536 169.476 173.117 165.058 173.117H158.697C154.279 173.117 150.697 169.536 150.697 165.117V137.34H146.225V165.117C146.225 169.536 142.643 173.117 138.225 173.117H131.864C127.446 173.117 123.864 169.536 123.864 165.117V137.34H97.0311V165.117C97.0311 169.536 93.4494 173.117 89.0311 173.117H82.6703C78.2521 173.117 74.6703 169.536 74.6703 165.117V137.34H71.6889V165.117C71.6889 169.536 68.1072 173.117 63.6889 173.117H57.3282C52.9099 173.117 49.3282 169.536 49.3282 165.117V137.34V129.887L49.3281 89.6373C22.4952 74.7301 17.6118 41.9344 18.0231 30.0086C18.6193 12.7163 46.3467 8.39323 47.8374 32.9901C47.8374 46.4065 52.3096 53.8601 64.9806 65.7858H102.994V25.5365V10.2828C102.994 6.88179 106.969 5.03244 109.571 7.22315L131.318 25.5365H152.188L175.503 6.88403C178.122 4.78879 182.002 6.65349 182.002 10.0075Z" fill="#22201D"/>
<path d="M182.002 65.7858L184.002 65.7858V65.7858H182.002ZM182.002 119.34L180.002 119.34V119.34H182.002ZM173.058 134.9L172.05 133.172L171.058 133.751V134.9H173.058ZM150.697 137.34H152.697V135.34H150.697V137.34ZM146.225 137.34V135.34H144.225V137.34H146.225ZM123.864 137.34H125.864V135.34H123.864V137.34ZM97.0311 137.34V135.34H95.0311V137.34H97.0311ZM74.6703 137.34H76.6703V135.34H74.6703V137.34ZM71.6889 137.34V135.34H69.6889V137.34H71.6889ZM49.3282 129.887L51.3282 129.887L51.3282 129.887L49.3282 129.887ZM49.3281 89.6373L51.3281 89.6373L51.3281 88.4605L50.2994 87.889L49.3281 89.6373ZM18.0231 30.0086L20.0219 30.0775L20.0219 30.0775L18.0231 30.0086ZM47.8374 32.9901H49.8374V32.9295L49.8338 32.8691L47.8374 32.9901ZM64.9806 65.7858L63.6099 67.2422L64.1875 67.7858H64.9806V65.7858ZM102.994 65.7858V67.7858H104.994V65.7858H102.994ZM109.571 7.22315L110.859 5.69333L110.859 5.69333L109.571 7.22315ZM131.318 25.5365L130.029 27.0663L130.588 27.5365H131.318V25.5365ZM152.188 25.5365V27.5365H152.889L153.437 27.0982L152.188 25.5365ZM175.503 6.88403L176.753 8.44577L176.753 8.44577L175.503 6.88403ZM184.002 25.5365V10.0075H180.002V25.5365H184.002ZM184.002 65.7858V25.5365H180.002V65.7858H184.002ZM184.002 119.34L184.002 65.7858L180.002 65.7858L180.002 119.34L184.002 119.34ZM174.065 136.627C180.004 133.164 184.002 126.72 184.002 119.34H180.002C180.002 125.24 176.81 130.396 172.05 133.172L174.065 136.627ZM171.058 134.9V165.117H175.058V134.9H171.058ZM171.058 165.117C171.058 168.431 168.371 171.117 165.058 171.117V175.117C170.58 175.117 175.058 170.64 175.058 165.117H171.058ZM165.058 171.117H158.697V175.117H165.058V171.117ZM158.697 171.117C155.383 171.117 152.697 168.431 152.697 165.117H148.697C148.697 170.64 153.174 175.117 158.697 175.117V171.117ZM152.697 165.117V137.34H148.697V165.117H152.697ZM146.225 139.34H150.697V135.34H146.225V139.34ZM148.225 165.117V137.34H144.225V165.117H148.225ZM138.225 175.117C143.748 175.117 148.225 170.64 148.225 165.117H144.225C144.225 168.431 141.538 171.117 138.225 171.117V175.117ZM131.864 175.117H138.225V171.117H131.864V175.117ZM121.864 165.117C121.864 170.64 126.341 175.117 131.864 175.117V171.117C128.55 171.117 125.864 168.431 125.864 165.117H121.864ZM121.864 137.34V165.117H125.864V137.34H121.864ZM97.0311 139.34H123.864V135.34H97.0311V139.34ZM99.0311 165.117V137.34H95.0311V165.117H99.0311ZM89.0311 175.117C94.5539 175.117 99.0311 170.64 99.0311 165.117H95.0311C95.0311 168.431 92.3448 171.117 89.0311 171.117V175.117ZM82.6703 175.117H89.0311V171.117H82.6703V175.117ZM72.6703 165.117C72.6703 170.64 77.1475 175.117 82.6703 175.117V171.117C79.3566 171.117 76.6703 168.431 76.6703 165.117H72.6703ZM72.6703 137.34V165.117H76.6703V137.34H72.6703ZM71.6889 139.34H74.6703V135.34H71.6889V139.34ZM73.6889 165.117V137.34H69.6889V165.117H73.6889ZM63.6889 175.117C69.2118 175.117 73.6889 170.64 73.6889 165.117H69.6889C69.6889 168.431 67.0026 171.117 63.6889 171.117V175.117ZM57.3282 175.117H63.6889V171.117H57.3282V175.117ZM47.3282 165.117C47.3282 170.64 51.8053 175.117 57.3282 175.117V171.117C54.0144 171.117 51.3282 168.431 51.3282 165.117H47.3282ZM47.3282 137.34V165.117H51.3282V137.34H47.3282ZM47.3282 129.887V137.34H51.3282V129.887H47.3282ZM47.3281 89.6373L47.3282 129.887L51.3282 129.887L51.3281 89.6373L47.3281 89.6373ZM16.0242 29.9397C15.8098 36.1573 16.9674 47.611 21.5967 59.4341C26.2338 71.277 34.4173 83.6414 48.3568 91.3856L50.2994 87.889C37.4061 80.726 29.7315 69.239 25.3214 57.9757C20.9036 46.6928 19.825 35.7857 20.0219 30.0775L16.0242 29.9397ZM49.8338 32.8691C49.438 26.3393 47.2804 21.4937 44.0392 18.2927C40.7998 15.0934 36.6351 13.6962 32.5482 13.7915C24.4595 13.9801 16.3643 20.0785 16.0242 29.9397L20.0219 30.0775C20.2781 22.6465 26.3447 17.9372 32.6414 17.7904C35.7473 17.718 38.8312 18.7711 41.2285 21.1387C43.6241 23.5046 45.4915 27.3424 45.8411 33.111L49.8338 32.8691ZM66.3514 64.3294C60.0569 58.4052 55.9643 53.7395 53.4194 49.0007C50.9073 44.323 49.8374 39.4472 49.8374 32.9901H45.8374C45.8374 39.9494 47.0036 45.5086 49.8954 50.8932C52.7543 56.2168 57.2333 61.2407 63.6099 67.2422L66.3514 64.3294ZM102.994 63.7858H64.9806V67.7858H102.994V63.7858ZM100.994 25.5365V65.7858H104.994V25.5365H100.994ZM100.994 10.2828V25.5365H104.994V10.2828H100.994ZM110.859 5.69333C106.957 2.40725 100.994 5.18129 100.994 10.2828H104.994C104.994 8.58229 106.982 7.65762 108.282 8.75297L110.859 5.69333ZM132.606 24.0067L110.859 5.69333L108.282 8.75297L130.029 27.0663L132.606 24.0067ZM152.188 23.5365H131.318V27.5365H152.188V23.5365ZM174.254 5.32229L150.938 23.9747L153.437 27.0982L176.753 8.44577L174.254 5.32229ZM184.002 10.0075C184.002 4.97649 178.182 2.17942 174.254 5.3223L176.753 8.44577C178.062 7.39816 180.002 8.33049 180.002 10.0075H184.002Z" fill="#22201D" mask="url(#path-1-inside-1_229_6696)"/>
<circle cx="161.877" cy="54.6054" r="12.6711" fill="#FED23E"/>
<circle cx="161.132" cy="55.3508" r="8.9443" fill="#22201D"/>
<line x1="172.757" y1="41.0171" x2="174.629" y2="38.2091" stroke="#FFF6E4" stroke-width="2" stroke-linecap="round"/>
<line x1="168.285" y1="39.5264" x2="170.157" y2="36.7184" stroke="#FFF6E4" stroke-width="2" stroke-linecap="round"/>
<circle cx="123.119" cy="54.6054" r="12.6711" fill="#FED23E"/>
<circle cx="123.864" cy="55.3508" r="8.9443" fill="#22201D"/>
<line x1="1" y1="-1" x2="4.37486" y2="-1" transform="matrix(-0.5547 -0.83205 -0.83205 0.5547 110.424 42.4039)" stroke="#FFF6E4" stroke-width="2" stroke-linecap="round"/>
<line x1="1" y1="-1" x2="4.37486" y2="-1" transform="matrix(-0.5547 -0.83205 -0.83205 0.5547 114.897 40.9132)" stroke="#FFF6E4" stroke-width="2" stroke-linecap="round"/>
<path d="M142.498 67.2765C142.498 73.2394 140.162 74.7301 137.28 74.7301C134.399 74.7301 132.063 72.0604 132.063 68.7672" stroke="#FFF6E4" stroke-width="2" stroke-linecap="round"/>
<path d="M142.498 67.2765C142.498 73.2394 144.834 74.7301 147.715 74.7301C150.597 74.7301 152.933 72.0604 152.933 68.7672" stroke="#FFF6E4" stroke-width="2" stroke-linecap="round"/>
<path d="M147.216 63.5497C147.216 64.3755 146.748 65.1702 145.897 65.7781C145.047 66.3853 143.847 66.7765 142.498 66.7765C141.149 66.7765 139.949 66.3853 139.099 65.7781C138.248 65.1702 137.781 64.3755 137.781 63.5497C137.781 62.724 138.248 61.9293 139.099 61.3214C139.949 60.7141 141.149 60.3229 142.498 60.3229C143.847 60.3229 145.047 60.7141 145.897 61.3214C146.748 61.9293 147.216 62.724 147.216 63.5497Z" fill="#FFF6E4" stroke="#FFF6E4"/>
<path d="M107.466 16.2246V25.2818C107.466 25.8341 107.914 26.2818 108.466 26.2818H122.052C123.041 26.2818 123.43 24.9986 122.607 24.4498L109.021 15.3925C108.356 14.9495 107.466 15.4259 107.466 16.2246Z" fill="#FFF6E4"/>
<path d="M177.53 15.4792V24.5365C177.53 25.0887 177.082 25.5365 176.53 25.5365H162.944C161.955 25.5365 161.566 24.2532 162.389 23.7044L175.975 14.6472C176.64 14.2042 177.53 14.6805 177.53 15.4792Z" fill="#FFF6E4"/>
</svg>
