<svg width="200" height="180" viewBox="0 0 200 180" fill="none" xmlns="http://www.w3.org/2000/svg">
<path fill-rule="evenodd" clip-rule="evenodd" d="M187.031 12.0075V29.228H155.102L180.532 8.88404C183.151 6.78879 187.031 8.65348 187.031 12.0075ZM102.42 29.228V12.2828C102.42 8.8818 106.395 7.03244 108.996 9.22315L132.752 29.228H102.42ZM102.42 29.228H187.031V72.3317L187.031 154.907C187.031 164.848 178.972 172.907 169.031 172.907H66.1571C66.0962 172.915 66.0351 172.923 65.9738 172.931C65.9293 172.923 65.8849 172.915 65.8405 172.907H65.7017V172.882C29.1456 166.179 15.2827 124.22 12.4421 111.655C8.31303 93.3907 34.2525 82.93 42.5487 108.274C45.5785 119.829 51.9144 135.698 65.7017 140.962V100.946C65.7017 81.616 81.3718 65.9459 100.702 65.9459H102.42V29.228Z" fill="#22201D"/>
<path d="M144.725 73.9281C144.725 80.3138 142.224 83.5067 139.138 83.5067" stroke="#FFF6E4" stroke-width="2" stroke-linecap="round"/>
<path d="M144.725 73.9281C144.725 80.3138 147.227 83.5067 150.313 83.5067" stroke="#FFF6E4" stroke-width="2" stroke-linecap="round"/>
<path d="M149.813 69.937C149.813 70.8357 149.304 71.6965 148.386 72.3523C147.469 73.0073 146.176 73.4281 144.725 73.4281C143.274 73.4281 141.982 73.0073 141.065 72.3523C140.147 71.6965 139.638 70.8357 139.638 69.937C139.638 69.0383 140.147 68.1775 141.065 67.5218C141.982 66.8667 143.274 66.4459 144.725 66.4459C146.176 66.4459 147.469 66.8667 148.386 67.5218C149.304 68.1775 149.813 69.0383 149.813 69.937Z" fill="#FFF6E4" stroke="#FFF6E4"/>
<path d="M107.209 19.1232V29.0262C107.209 29.5785 107.657 30.0262 108.209 30.0262H123.063C124.053 30.0262 124.441 28.743 123.618 28.1941L108.764 18.2912C108.099 17.8482 107.209 18.3245 107.209 19.1232Z" fill="#FFF6E4"/>
<path d="M182.241 18.325V28.228C182.241 28.7803 181.794 29.228 181.241 29.228H166.387C165.397 29.228 165.009 27.9448 165.832 27.3959L180.687 17.493C181.351 17.0499 182.241 17.5263 182.241 18.325Z" fill="#FFF6E4"/>
<path d="M133.329 61.6595C133.329 66.0679 129.398 69.6417 124.548 69.6417C119.699 69.6417 115.768 66.0679 115.768 61.6595" stroke="#8B8483" stroke-width="3" stroke-linecap="round"/>
<line x1="118.684" y1="76.2371" x2="120.767" y2="73.1119" stroke="#FFF6E4" stroke-width="2" stroke-linecap="round"/>
<line x1="113.894" y1="74.6406" x2="115.978" y2="71.5154" stroke="#FFF6E4" stroke-width="2" stroke-linecap="round"/>
<path d="M173.24 61.6595C173.24 66.0679 169.309 69.6417 164.459 69.6417C159.61 69.6417 155.679 66.0679 155.679 61.6595" stroke="#8B8483" stroke-width="3" stroke-linecap="round"/>
<line x1="1" y1="-1" x2="4.75602" y2="-1" transform="matrix(-0.5547 -0.83205 -0.83205 0.5547 171.643 77.6238)" stroke="#FFF6E4" stroke-width="2" stroke-linecap="round"/>
<line x1="1" y1="-1" x2="4.75602" y2="-1" transform="matrix(-0.5547 -0.83205 -0.83205 0.5547 176.433 76.0273)" stroke="#FFF6E4" stroke-width="2" stroke-linecap="round"/>
</svg>
