<svg width="183" height="173" viewBox="0 0 183 173" fill="none" xmlns="http://www.w3.org/2000/svg">
<path fill-rule="evenodd" clip-rule="evenodd" d="M183 4.11737V22.5325L183 60.9789V67.6653V154.975C183 164.916 174.941 172.975 165 172.975H56.6229C56.5592 172.984 56.4953 172.992 56.4313 173C56.3847 172.992 56.3383 172.983 56.2918 172.975H56.1468V172.949C17.9262 165.93 3.4322 121.996 0.462258 108.84C-3.85484 89.7157 23.2657 78.7625 31.9395 105.3C35.1074 117.398 41.7317 134.015 56.1468 139.527V95.9789C56.1468 76.649 71.8169 60.9789 91.1468 60.9789H94.5366V22.5325V4.39316C94.5366 0.990781 98.5144 -0.858087 101.115 1.33539L126.25 22.5325H149.618L176.499 0.995703C179.118 -1.10226 183 0.762006 183 4.11737Z" fill="#22201D"/>
<path d="M138.768 69.3367C138.768 76.023 136.153 79.3662 132.926 79.3662" stroke="#8B8483" stroke-width="2" stroke-linecap="round"/>
<path d="M138.768 69.3367C138.768 76.023 141.384 79.3662 144.61 79.3662" stroke="#8B8483" stroke-width="2" stroke-linecap="round"/>
<path d="M144.11 65.1577C144.11 66.1087 143.572 67.0164 142.608 67.706C141.645 68.395 140.289 68.8367 138.768 68.8367C137.247 68.8367 135.891 68.395 134.928 67.706C133.964 67.0164 133.426 66.1087 133.426 65.1577C133.426 64.2068 133.964 63.299 134.928 62.6094C135.891 61.9205 137.247 61.4788 138.768 61.4788C140.289 61.4788 141.645 61.9205 142.608 62.6094C143.572 63.299 144.11 64.2068 144.11 65.1577Z" fill="#8B8483" stroke="#8B8483"/>
<path d="M99.5439 11.8654V22.368C99.5439 22.9203 99.9917 23.368 100.544 23.368H116.275C117.264 23.368 117.652 22.0855 116.83 21.5364L101.099 11.0337C100.435 10.5901 99.5439 11.0664 99.5439 11.8654Z" fill="#FFF6E4"/>
<path d="M177.993 11.0297V21.5323C177.993 22.0846 177.545 22.5323 176.993 22.5323H161.262C160.273 22.5323 159.884 21.2499 160.707 20.7007L176.437 10.198C177.102 9.75438 177.993 10.2307 177.993 11.0297Z" fill="#FFF6E4"/>
<path d="M126.853 56.4907C126.853 61.1067 122.743 64.8486 117.673 64.8486C112.603 64.8486 108.493 61.1067 108.493 56.4907" stroke="#8B8483" stroke-width="2" stroke-linecap="round"/>
<line x1="1" y1="-1" x2="5.02425" y2="-1" transform="matrix(0.554134 -0.832427 0.831673 0.555266 111.831 73.2065)" stroke="#FFF6E4" stroke-width="2" stroke-linecap="round"/>
<line x1="1" y1="-1" x2="5.02425" y2="-1" transform="matrix(0.554133 -0.832428 0.831672 0.555267 106.824 71.5349)" stroke="#FFF6E4" stroke-width="2" stroke-linecap="round"/>
<path d="M168.581 56.4907C168.581 61.1067 164.471 64.8486 159.401 64.8486C154.331 64.8486 150.221 61.1067 150.221 56.4907" stroke="#8B8483" stroke-width="2" stroke-linecap="round"/>
<line x1="1" y1="-1" x2="5.02425" y2="-1" transform="matrix(-0.554134 -0.832427 -0.831673 0.555266 166.912 73.2065)" stroke="#FFF6E4" stroke-width="2" stroke-linecap="round"/>
<line x1="1" y1="-1" x2="5.02424" y2="-1" transform="matrix(-0.554132 -0.832429 -0.831671 0.555268 171.919 71.5349)" stroke="#FFF6E4" stroke-width="2" stroke-linecap="round"/>
</svg>
