<svg width="200" height="180" viewBox="0 0 200 180" fill="none" xmlns="http://www.w3.org/2000/svg">
<path fill-rule="evenodd" clip-rule="evenodd" d="M22.8117 4.0075C22.8117 0.653477 26.6914 -1.21121 29.3105 0.884036L54.5273 21.0575L76.7283 21.0574L100.281 1.22315C102.883 -0.967558 106.858 0.881779 106.858 4.28279V21.0575V34.4744C149.514 37.3317 183.31 65.6627 185.287 100.758C190.176 108.608 193 117.876 193 127.804C193 156.098 170.063 179.034 141.77 179.034C136.247 179.034 131.77 174.557 131.77 169.034C131.77 163.512 136.247 159.034 141.77 159.034C159.018 159.034 173 145.052 173 127.804C173 126.913 172.963 126.031 172.89 125.159C162.074 129.411 145.495 127.254 128.274 125.013L128.274 125.013C117.793 123.649 107.075 122.254 97.2727 122.254C87.006 122.254 76.6454 123.784 67.0166 125.206C53.8065 127.157 41.9739 128.905 33.6509 126.218H19.1734C12.6049 126.218 7.28008 120.894 7.28008 114.325C7.28008 107.757 12.6049 102.432 19.1734 102.432H21.2463C21.2334 99.9287 21.1926 97.4582 21.1525 95.0269C20.9834 84.7799 20.8258 75.2288 22.8117 66.8727L22.8117 21.0575V4.0075Z" fill="#22201D"/>
<path d="M65.3371 63.8735C65.3371 70.2166 67.822 73.3881 70.8873 73.3881" stroke="#FFF6E4" stroke-width="2" stroke-linecap="round"/>
<path d="M65.3372 63.8735C65.3372 70.2166 62.8523 73.3881 59.787 73.3881" stroke="#FFF6E4" stroke-width="2" stroke-linecap="round"/>
<path d="M60.287 59.909C60.287 60.8003 60.792 61.6545 61.7032 62.3054C62.6136 62.9556 63.8968 63.3734 65.3372 63.3734C66.7777 63.3734 68.0609 62.9556 68.9712 62.3054C69.8825 61.6545 70.3875 60.8003 70.3875 59.909C70.3875 59.0176 69.8825 58.1635 68.9712 57.5125C68.0609 56.8623 66.7777 56.4445 65.3372 56.4445C63.8968 56.4445 62.6136 56.8623 61.7032 57.5125C60.792 58.1635 60.287 59.0176 60.287 59.909Z" fill="#FFF6E4" stroke="#FFF6E4"/>
<path d="M102.603 9.4467V19.2644C102.603 19.8167 102.155 20.2644 101.603 20.2644H86.8766C85.8872 20.2644 85.4986 18.9812 86.3219 18.4324L101.048 8.61465C101.713 8.17162 102.603 8.64801 102.603 9.4467Z" fill="#FFF6E4"/>
<path d="M28.0715 8.65392V18.4716C28.0715 19.0239 28.5192 19.4716 29.0715 19.4716H43.7981C44.7875 19.4716 45.176 18.1884 44.3528 17.6396L29.6262 7.82187C28.9617 7.37883 28.0715 7.85522 28.0715 8.65392Z" fill="#FFF6E4"/>
<path d="M76.6574 51.6869C76.6574 56.066 80.5623 59.6158 85.3792 59.6158C90.1961 59.6158 94.101 56.066 94.101 51.6869" stroke="#8B8483" stroke-width="3" stroke-linecap="round"/>
<line x1="1" y1="-1" x2="4.71761" y2="-1" transform="matrix(-0.5547 -0.83205 -0.83205 0.5547 90.9293 67.5447)" stroke="#FFF6E4" stroke-width="2" stroke-linecap="round"/>
<line x1="1" y1="-1" x2="4.71761" y2="-1" transform="matrix(-0.5547 -0.83205 -0.83205 0.5547 95.6868 65.9589)" stroke="#FFF6E4" stroke-width="2" stroke-linecap="round"/>
<path d="M37.013 51.6869C37.013 56.066 40.9178 59.6158 45.7348 59.6158C50.5517 59.6158 54.4565 56.066 54.4565 51.6869" stroke="#8B8483" stroke-width="3" stroke-linecap="round"/>
<line x1="38.3214" y1="66.158" x2="40.3836" y2="63.0648" stroke="#FFF6E4" stroke-width="2" stroke-linecap="round"/>
<line x1="33.5641" y1="64.5721" x2="35.6262" y2="61.4789" stroke="#FFF6E4" stroke-width="2" stroke-linecap="round"/>
</svg>
