<svg width="200" height="180" viewBox="0 0 200 180" fill="none" xmlns="http://www.w3.org/2000/svg">
<path fill-rule="evenodd" clip-rule="evenodd" d="M175.774 11.0075V25.5069V64.0189V114.485C175.774 124.426 167.715 132.485 157.774 132.485H48.8273V92.3052C48.8234 92.3089 48.8195 92.3126 48.8157 92.3163C16.0091 86.6108 4.87957 54.6305 2.36587 43.4929C-1.27901 27.3433 23.3347 16.6128 30.684 39.0165C33.7757 50.807 39.2944 56.6433 52.3607 64.0189H100.177V25.5069V11.2828C100.177 7.88179 104.152 6.03244 106.753 8.22315L127.278 25.5069H147.247L169.275 7.88403C171.894 5.78879 175.774 7.65349 175.774 11.0075Z" fill="#22201D"/>
<path d="M52.3578 120.951C47.0972 131.291 43.1642 135.548 34.5786 138.058C19.1173 143.615 27.0721 160.549 38.2496 157.695C45.9582 155.727 68.0162 147.35 71.3495 124.388C65.2826 118.395 53.1136 119.465 52.3578 120.951Z" fill="#22201D"/>
<path d="M67.8204 131.437C74.7329 140.754 76.7909 146.172 75.2124 154.977C73.2968 171.294 92.002 171.719 94.4278 160.441C96.1008 152.663 98.4313 129.183 79.3604 115.967C71.2923 118.728 66.8272 130.098 67.8204 131.437Z" fill="#22201D"/>
<path d="M160.612 124.175C170.353 130.476 174.181 134.828 175.791 143.627C179.721 159.579 197.386 153.417 195.702 142.004C194.541 134.133 188.488 111.328 165.993 105.64C159.405 111.056 159.212 123.27 160.612 124.175Z" fill="#22201D"/>
<path d="M138.989 128.363C140.955 139.797 140.348 145.56 134.967 152.706C125.897 166.404 142.398 175.222 149.651 166.251C154.653 160.064 167.325 140.161 156.267 119.762C147.821 118.587 138.707 126.72 138.989 128.363Z" fill="#22201D"/>
<path d="M137.975 65.4453C137.975 71.1508 135.74 72.5772 132.983 72.5772C130.226 72.5772 127.991 70.0227 127.991 66.8717" stroke="#FFF6E4" stroke-width="2" stroke-linecap="round"/>
<path d="M137.975 65.4453C137.975 71.1508 140.21 72.5772 142.968 72.5772C145.725 72.5772 147.96 70.0227 147.96 66.8717" stroke="#FFF6E4" stroke-width="2" stroke-linecap="round"/>
<path d="M142.468 61.8794C142.468 62.6607 142.025 63.4152 141.215 63.994C140.405 64.5721 139.262 64.9453 137.975 64.9453C136.689 64.9453 135.545 64.5721 134.736 63.994C133.926 63.4152 133.483 62.6607 133.483 61.8794C133.483 61.0981 133.926 60.3435 134.736 59.7647C135.545 59.1866 136.689 58.8134 137.975 58.8134C139.262 58.8134 140.405 59.1866 141.215 59.7647C142.025 60.3435 142.468 61.0981 142.468 61.8794Z" fill="#FFF6E4" stroke="#FFF6E4"/>
<path d="M104.456 16.6777V25.2201C104.456 25.7724 104.903 26.2201 105.456 26.2201H118.269C119.259 26.2201 119.647 24.9369 118.824 24.3881L106.01 15.8456C105.346 15.4026 104.456 15.879 104.456 16.6777Z" fill="#FFF6E4"/>
<path d="M171.495 15.9645V24.5069C171.495 25.0592 171.047 25.5069 170.495 25.5069H157.681C156.692 25.5069 156.303 24.2237 157.127 23.6749L169.94 15.1324C170.605 14.6894 171.495 15.1658 171.495 15.9645Z" fill="#FFF6E4"/>
<path d="M166.033 55.91C166.033 51.1834 162.201 47.3518 157.474 47.3518C152.748 47.3518 148.916 51.1834 148.916 55.91" stroke="#8B8483" stroke-width="2" stroke-linecap="round"/>
<path d="M127.52 55.91C127.52 51.1834 123.689 47.3518 118.962 47.3518C114.236 47.3518 110.404 51.1834 110.404 55.91" stroke="#8B8483" stroke-width="3" stroke-linecap="round"/>
<line x1="1" y1="-1" x2="4.14285" y2="-1" transform="matrix(-0.5547 -0.83205 -0.83205 0.5547 108.978 47.3518)" stroke="#FFF6E4" stroke-width="2" stroke-linecap="round"/>
<line x1="1" y1="-1" x2="4.14285" y2="-1" transform="matrix(-0.5547 -0.83205 -0.83205 0.5547 113.257 45.9254)" stroke="#FFF6E4" stroke-width="2" stroke-linecap="round"/>
<path d="M148.916 55.91C148.916 51.1834 152.748 47.3518 157.474 47.3518C162.201 47.3518 166.033 51.1834 166.033 55.91" stroke="#8B8483" stroke-width="3" stroke-linecap="round"/>
<line x1="167.182" y1="45.965" x2="168.925" y2="43.35" stroke="#FFF6E4" stroke-width="2" stroke-linecap="round"/>
<line x1="162.903" y1="44.5387" x2="164.646" y2="41.9237" stroke="#FFF6E4" stroke-width="2" stroke-linecap="round"/>
</svg>
