<svg width="169" height="170" viewBox="0 0 169 170" fill="none" xmlns="http://www.w3.org/2000/svg">
<g id="Nit">
<g id="Cat_Body">
<g id="Union">
<mask id="path-1-inside-1_203_4775" fill="white">
<path fill-rule="evenodd" clip-rule="evenodd" d="M168.199 6.12697V17.8649L168.199 59.1444V105.01C168.199 113.161 164.656 120.484 159.026 125.523V157.757C159.026 164.089 153.892 169.223 147.56 169.223C141.227 169.223 136.093 164.089 136.093 157.757V132.53H131.506V157.757C131.506 164.089 126.373 169.223 120.04 169.223C113.707 169.223 108.573 164.089 108.573 157.757V132.53H81.0537V157.757C81.0537 164.089 75.9199 169.223 69.5871 169.223C63.2543 169.223 58.1206 164.089 58.1206 157.757V132.53H55.0629V157.757C55.0629 164.089 49.9291 169.223 43.5963 169.223C37.2635 169.223 32.1298 164.089 32.1298 157.757V132.53V124.886V83.6065C4.61029 68.3177 -0.398115 34.6827 0.0236505 22.4517C0.635199 4.71682 29.0722 0.283099 30.6011 25.5095C30.6011 39.2692 35.1876 46.9136 48.1828 59.1444L87.1691 59.1444V17.8649V6.54784C87.1691 1.34814 93.2465 -1.47927 97.2238 1.87004L116.218 17.8649H137.622L158.264 1.35157C162.268 -1.85178 168.199 0.999096 168.199 6.12697Z"/>
</mask>
<path fill-rule="evenodd" clip-rule="evenodd" d="M168.199 6.12697V17.8649L168.199 59.1444V105.01C168.199 113.161 164.656 120.484 159.026 125.523V157.757C159.026 164.089 153.892 169.223 147.56 169.223C141.227 169.223 136.093 164.089 136.093 157.757V132.53H131.506V157.757C131.506 164.089 126.373 169.223 120.04 169.223C113.707 169.223 108.573 164.089 108.573 157.757V132.53H81.0537V157.757C81.0537 164.089 75.9199 169.223 69.5871 169.223C63.2543 169.223 58.1206 164.089 58.1206 157.757V132.53H55.0629V157.757C55.0629 164.089 49.9291 169.223 43.5963 169.223C37.2635 169.223 32.1298 164.089 32.1298 157.757V132.53V124.886V83.6065C4.61029 68.3177 -0.398115 34.6827 0.0236505 22.4517C0.635199 4.71682 29.0722 0.283099 30.6011 25.5095C30.6011 39.2692 35.1876 46.9136 48.1828 59.1444L87.1691 59.1444V17.8649V6.54784C87.1691 1.34814 93.2465 -1.47927 97.2238 1.87004L116.218 17.8649H137.622L158.264 1.35157C162.268 -1.85178 168.199 0.999096 168.199 6.12697Z" fill="#22201D"/>
<path d="M168.199 17.8649L171.257 17.8649V17.8649H168.199ZM168.199 59.1444L165.142 59.1444V59.1444H168.199ZM159.026 125.523L156.987 123.244L155.968 124.156V125.523H159.026ZM136.093 132.53H139.151V129.472H136.093V132.53ZM131.506 132.53V129.472H128.449V132.53H131.506ZM108.573 132.53H111.631V129.472H108.573V132.53ZM81.0537 132.53V129.472H77.9959V132.53H81.0537ZM58.1206 132.53H61.1783V129.472H58.1206V132.53ZM55.0629 132.53V129.472H52.0051V132.53H55.0629ZM32.1298 83.6065H35.1875V81.8073L33.6148 80.9335L32.1298 83.6065ZM0.0236505 22.4517L3.07958 22.5571L3.07958 22.5571L0.0236505 22.4517ZM30.6011 25.5095H33.6588V25.4169L33.6532 25.3245L30.6011 25.5095ZM48.1828 59.1444L46.0872 61.371L46.9702 62.2021L48.1828 62.2021L48.1828 59.1444ZM87.1691 59.1444L87.1691 62.2021L90.2269 62.2021V59.1444H87.1691ZM97.2238 1.87004L99.1934 -0.46886L99.1934 -0.468861L97.2238 1.87004ZM116.218 17.8649L114.248 20.2038L115.102 20.9226H116.218V17.8649ZM137.622 17.8649V20.9226H138.694L139.532 20.2526L137.622 17.8649ZM158.264 1.35157L156.353 -1.03612L156.353 -1.03612L158.264 1.35157ZM171.257 17.8649V6.12697H165.142V17.8649H171.257ZM171.257 59.1444L171.257 17.8649L165.142 17.8649L165.142 59.1444L171.257 59.1444ZM171.257 105.01V59.1444H165.142V105.01H171.257ZM161.065 127.801C167.316 122.207 171.257 114.067 171.257 105.01H165.142C165.142 112.255 161.996 118.761 156.987 123.244L161.065 127.801ZM155.968 125.523V157.757H162.084V125.523H155.968ZM155.968 157.757C155.968 162.401 152.204 166.165 147.56 166.165V172.281C155.581 172.281 162.084 165.778 162.084 157.757H155.968ZM147.56 166.165C142.915 166.165 139.151 162.401 139.151 157.757H133.035C133.035 165.778 139.538 172.281 147.56 172.281V166.165ZM139.151 157.757V132.53H133.035V157.757H139.151ZM131.506 135.588H136.093V129.472H131.506V135.588ZM134.564 157.757V132.53H128.449V157.757H134.564ZM120.04 172.281C128.061 172.281 134.564 165.778 134.564 157.757H128.449C128.449 162.401 124.684 166.165 120.04 166.165V172.281ZM105.516 157.757C105.516 165.778 112.018 172.281 120.04 172.281V166.165C115.396 166.165 111.631 162.401 111.631 157.757H105.516ZM105.516 132.53V157.757H111.631V132.53H105.516ZM81.0537 135.588H108.573V129.472H81.0537V135.588ZM84.1114 157.757V132.53H77.9959V157.757H84.1114ZM69.5871 172.281C77.6087 172.281 84.1114 165.778 84.1114 157.757H77.9959C77.9959 162.401 74.2312 166.165 69.5871 166.165V172.281ZM55.0629 157.757C55.0629 165.778 61.5656 172.281 69.5871 172.281V166.165C64.9431 166.165 61.1783 162.401 61.1783 157.757H55.0629ZM55.0629 132.53V157.757H61.1783V132.53H55.0629ZM55.0629 135.588H58.1206V129.472H55.0629V135.588ZM58.1206 157.757V132.53H52.0051V157.757H58.1206ZM43.5963 172.281C51.6179 172.281 58.1206 165.778 58.1206 157.757H52.0051C52.0051 162.401 48.2404 166.165 43.5963 166.165V172.281ZM29.0721 157.757C29.0721 165.778 35.5748 172.281 43.5963 172.281V166.165C38.9523 166.165 35.1875 162.401 35.1875 157.757H29.0721ZM29.0721 132.53V157.757H35.1875V132.53H29.0721ZM29.0721 124.886V132.53H35.1875V124.886H29.0721ZM29.0721 83.6065V124.886H35.1875V83.6065H29.0721ZM-3.03227 22.3463C-3.25658 28.8512 -2.04952 40.7356 2.75148 52.9973C7.56429 65.2891 16.0853 78.1907 30.6448 86.2794L33.6148 80.9335C20.6548 73.7335 12.9118 62.1732 8.44601 50.7676C3.96837 39.3318 2.88212 28.2832 3.07958 22.5571L-3.03227 22.3463ZM33.6532 25.3245C33.2358 18.4361 30.9499 13.2128 27.413 9.71975C23.8787 6.22924 19.3354 4.70972 14.8971 4.81321C6.15046 5.01714 -2.66244 11.6212 -3.03227 22.3463L3.07958 22.5571C3.32129 15.5474 9.03267 11.0671 15.0397 10.927C17.9782 10.8585 20.869 11.8521 23.1158 14.0709C25.3599 16.2873 27.202 19.9696 27.549 25.6944L33.6532 25.3245ZM50.2785 56.9177C43.8437 50.8614 39.7436 46.1665 37.2126 41.4536C34.7318 36.8341 33.6588 32.0055 33.6588 25.5095H27.5434C27.5434 32.7732 28.7637 38.6466 31.8249 44.347C34.836 49.9539 39.5268 55.1966 46.0872 61.371L50.2785 56.9177ZM87.1691 56.0866L48.1828 56.0866L48.1828 62.2021L87.1691 62.2021L87.1691 56.0866ZM84.1114 17.8649V59.1444H90.2269V17.8649H84.1114ZM84.1114 6.54784V17.8649H90.2269V6.54784H84.1114ZM99.1934 -0.468861C93.2275 -5.49283 84.1114 -1.25171 84.1114 6.54784H90.2269C90.2269 3.94799 93.2656 2.53428 95.2542 4.20894L99.1934 -0.468861ZM118.187 15.526L99.1934 -0.46886L95.2542 4.20894L114.248 20.2038L118.187 15.526ZM137.622 14.8071H116.218V20.9226H137.622V14.8071ZM156.353 -1.03612L135.712 15.4772L139.532 20.2526L160.174 3.73927L156.353 -1.03612ZM171.257 6.12697C171.257 -1.56483 162.36 -5.84116 156.353 -1.03612L160.174 3.73927C162.176 2.13759 165.142 3.56303 165.142 6.12697H171.257Z" fill="#22201D" mask="url(#path-1-inside-1_203_4775)"/>
</g>
</g>
<g id="Face">
<g id="Eye_Right_Open">
<circle id="Ellipse 2" cx="147.56" cy="47.678" r="12.9954" fill="#FED23E"/>
<circle id="Ellipse 3" cx="146.796" cy="48.4423" r="9.17322" fill="#22201D"/>
<line id="Line 1" x1="158.578" y1="33.0439" x2="159.94" y2="31.0015" stroke="#FFF6E4" stroke-width="3.05774" stroke-linecap="round"/>
<line id="Line 2" x1="153.992" y1="31.5151" x2="155.354" y2="29.4727" stroke="#FFF6E4" stroke-width="3.05774" stroke-linecap="round"/>
</g>
<g id="Eye_Left_Open">
<circle id="Ellipse 2_2" cx="107.809" cy="47.678" r="12.9954" fill="#FED23E"/>
<circle id="Ellipse 3_2" cx="108.574" cy="48.4423" r="9.17322" fill="#22201D"/>
<line id="Line 3" x1="1.52887" y1="-1.52887" x2="3.98355" y2="-1.52887" transform="matrix(-0.5547 -0.83205 -0.83205 0.5547 94.79 35.1641)" stroke="#FFF6E4" stroke-width="3.05774" stroke-linecap="round"/>
<line id="Line 4" x1="1.52887" y1="-1.52887" x2="3.98355" y2="-1.52887" transform="matrix(-0.5547 -0.83205 -0.83205 0.5547 99.3767 33.6353)" stroke="#FFF6E4" stroke-width="3.05774" stroke-linecap="round"/>
</g>
<g id="Muzzle">
<path id="Ellipse 5" d="M127.685 60.6733C127.685 66.7888 125.289 68.3177 122.333 68.3177C119.378 68.3177 116.982 65.5797 116.982 62.2022" stroke="#FFF6E4" stroke-width="3" stroke-linecap="round"/>
<path id="Ellipse 6" d="M127.685 60.6733C127.685 66.7888 130.08 68.3177 133.036 68.3177C135.991 68.3177 138.387 65.5797 138.387 62.2022" stroke="#FFF6E4" stroke-width="3" stroke-linecap="round"/>
<path id="Ellipse 7" d="M132.271 56.851C132.271 57.5955 131.85 58.3416 131.024 58.9316C130.199 59.5206 129.021 59.9087 127.685 59.9087C126.348 59.9087 125.17 59.5206 124.345 58.9316C123.519 58.3416 123.098 57.5955 123.098 56.851C123.098 56.1065 123.519 55.3603 124.345 54.7703C125.17 54.1814 126.348 53.7932 127.685 53.7932C129.021 53.7932 130.199 54.1814 131.024 54.7703C131.85 55.3603 132.271 56.1065 132.271 56.851Z" fill="#FFF6E4" stroke="#FFF6E4" stroke-width="1.52887"/>
</g>
<g id="Ears">
<path id="Vector 5" d="M91.7559 9.25516V17.1005C91.7559 17.9449 92.4404 18.6294 93.2847 18.6294H105.053C106.565 18.6294 107.159 16.6675 105.901 15.8284L94.1328 7.98306C93.1168 7.30572 91.7559 8.03406 91.7559 9.25516Z" fill="#FFF6E4"/>
<path id="Vector 6" d="M163.613 8.49051V16.3359C163.613 17.1803 162.928 17.8648 162.084 17.8648H150.316C148.803 17.8648 148.209 15.9029 149.468 15.0638L161.236 7.21841C162.252 6.54107 163.613 7.26941 163.613 8.49051Z" fill="#FFF6E4"/>
</g>
</g>
</g>
</svg>
