<svg width="18" height="18" viewBox="0 0 18 18" fill="none" xmlns="http://www.w3.org/2000/svg">
<path fill-rule="evenodd" clip-rule="evenodd" d="M12 2H6.00002V0H12V2H14V4H12V2ZM2 3.57628e-06H0V8H2V3.57628e-06ZM3.99999 4H2.00003V8H3.99999V8.00001H7.99999V6.00001H4.00003V4H5.99999V2H3.99999V4ZM16 6.00001H18V12L16 12V14H14V12H16V6.00001ZM14 14H12V16L6.6667 16V18H12V16L14 16V14ZM4.66667 14H6.66667V16H4.66667V14ZM16 4H14V6H16V4ZM4.66664 12L2.66668 12V10H0.666676V12L2.66664 12V14H4.66664V12Z" fill="black"/>
</svg>
