<svg width="367" height="193" viewBox="0 0 367 193" fill="none" xmlns="http://www.w3.org/2000/svg">
<path fill-rule="evenodd" clip-rule="evenodd" d="M84.3576 5.20317L78.6714 10.9999L94.9481 26.9662L92.6579 8.02567C92.1684 3.97711 87.2132 2.2921 84.3576 5.20317ZM121.804 53.3099L127.255 47.7521C130.151 44.8002 128.275 39.8105 124.152 39.4968L106.341 38.1419L121.804 53.3099ZM121.802 53.311L78.6698 11.0007L57.1175 32.9719L100.25 75.2822L121.802 53.311ZM119.097 93.7735L57.1153 32.9732L47.5097 42.7655C43.0327 32.3912 33.2762 26.4375 29.0597 24.4152C20.7463 20.4281 11.8611 32.4541 23.109 39.2299C29.4449 42.5418 31.861 46.4935 34.3654 55.4208C34.3998 55.5432 34.5161 55.6788 34.7033 55.8208L34.125 56.4104C32.8965 57.6627 31.8492 59.0252 30.9827 60.4653C23.0849 54.6544 13.5322 53.417 9.33803 53.2803C0.122903 52.9798 -3.16434 67.5659 9.85999 69.2367C16.9932 69.7158 20.7966 72.3594 26.6853 79.5215C26.9366 79.8271 27.9669 79.9306 29.3884 79.7751C30.481 82.5466 32.1603 85.1387 34.4243 87.3595L64.891 117.245C56.9207 121.291 51.6682 128.099 49.583 131.397C44.6553 139.189 55.566 149.415 63.605 139.034C67.1878 133.779 70.9126 131.664 78.141 130.243L81.6164 133.652C75.8606 147.021 82.2604 160.71 85.1428 165.464C89.9229 173.348 103.938 168.139 98.2266 156.315C94.733 150.078 94.8711 145.448 97.6562 136.605C97.6647 136.578 97.6702 136.548 97.6726 136.515L117.123 116.687C117.152 116.726 117.181 116.766 117.21 116.806C143.823 116.869 157.02 93.2435 160.544 84.8265C165.653 72.6218 147.769 60.7598 138.876 77.3726C134.898 86.0246 129.884 89.8764 119.097 93.7735Z" fill="#22201D"/>
<path d="M78.2866 54.613C75.0936 57.868 75.5707 59.9327 77.1438 61.4759C78.7169 63.019 81.4217 62.8126 83.1852 61.0149" stroke="#FFF6E4" stroke-width="2.47436" stroke-linecap="round"/>
<path d="M78.2876 54.6136C75.0947 57.8686 73.0212 57.4314 71.448 55.8883C69.8749 54.3451 70.0292 51.6368 71.7926 49.8391" stroke="#FFF6E4" stroke-width="2.47436" stroke-linecap="round"/>
<path d="M77.8686 50.2103C77.4906 50.5956 77.3263 51.199 77.4564 51.9358C77.5863 52.6711 78.0065 53.486 78.7131 54.1791C79.4196 54.8722 80.2424 55.2766 80.9801 55.3923C81.7193 55.5083 82.3194 55.3323 82.6974 54.947C83.0753 54.5618 83.2396 53.9583 83.1095 53.2215C82.9796 52.4862 82.5594 51.6713 81.8529 50.9782C81.1463 50.2852 80.3235 49.8807 79.5858 49.765C78.8467 49.6491 78.2465 49.825 77.8686 50.2103Z" fill="#FFF6E4" stroke="#FFF6E4" stroke-width="1.23718"/>
<path d="M124.16 46.1056L120.216 50.126C119.746 50.6053 118.976 50.6127 118.497 50.1425L112.466 44.2264C111.607 43.3839 112.362 41.9393 113.544 42.164L123.519 44.0597C124.473 44.241 124.84 45.4124 124.16 46.1056Z" fill="#FFF6E4"/>
<path d="M86.3096 8.17937L82.3659 12.1997C81.8957 12.6791 81.9031 13.4489 82.3825 13.9191L88.4136 19.8352C89.2724 20.6777 90.7022 19.8947 90.4549 18.7174L88.3675 8.78097C88.1678 7.8306 86.9896 7.48615 86.3096 8.17937Z" fill="#FFF6E4"/>
<path d="M69.2024 35.8942C71.8573 33.1878 76.1917 33.1344 78.8837 35.7748C81.5756 38.4152 81.6056 42.7496 78.9507 45.4559" stroke="#8B8483" stroke-width="2.47436" stroke-linecap="round"/>
<path d="M91.1752 57.4303C93.8203 54.7337 98.1508 54.6922 100.848 57.3376C103.544 59.983 103.586 64.3134 100.941 67.0099" stroke="#8B8483" stroke-width="3.71154" stroke-linecap="round"/>
<line x1="107.485" y1="61.486" x2="109.128" y2="61.141" stroke="#FFF6E4" stroke-width="2.47436" stroke-linecap="round"/>
<line x1="105.841" y1="58.2775" x2="107.484" y2="57.9325" stroke="#FFF6E4" stroke-width="2.47436" stroke-linecap="round"/>
<path d="M78.9687 45.4568C81.6138 42.7603 81.5719 38.4298 78.8751 35.7845C76.1784 33.1391 71.8479 33.1806 69.2028 35.8771" stroke="#8B8483" stroke-width="3.71154" stroke-linecap="round"/>
<line x1="1.23718" y1="-1.23718" x2="2.94535" y2="-1.23718" transform="matrix(0.183441 -0.965436 -0.965538 -0.18346 73.1787 30.1958)" stroke="#FFF6E4" stroke-width="2.47436" stroke-linecap="round"/>
<line x1="1.23718" y1="-1.23718" x2="2.94535" y2="-1.23718" transform="matrix(0.183442 -0.965436 -0.965538 -0.18346 76.418 31.7773)" stroke="#FFF6E4" stroke-width="2.47436" stroke-linecap="round"/>
<path fill-rule="evenodd" clip-rule="evenodd" d="M278.343 19.0282L284.779 25.635L307.694 49.1581L307.693 49.159L316.77 58.4769C322.031 51.5179 329.135 47.3459 332.647 45.6884C341.552 41.4858 350.984 54.3457 338.929 61.5033C334.191 63.942 331.492 66.723 329.368 71.4096L332.98 75.1174C334.59 76.7701 335.889 78.6092 336.878 80.5627C344.963 77.2379 353.214 77.2509 357.086 77.6061C366.897 78.5064 368.451 94.3599 354.419 94.4047C346.918 93.9756 342.555 96.1851 335.571 102.719C334.707 104.019 333.69 105.247 332.521 106.379L307.432 130.667C316.88 134.868 323.051 142.881 325.405 146.634C330.629 154.962 318.916 165.796 310.381 154.693C306.247 148.583 301.914 146.43 292.776 144.855L283.148 154.175C289.154 168.416 282.267 182.908 279.169 187.946C274.019 196.319 259.068 190.693 265.235 178.128C268.126 173.043 268.726 168.955 267.524 163.063L241.473 136.32C214.983 136.077 200.512 113.088 196.431 104.643C190.295 91.943 208.716 78.328 219.136 95.5066C224.044 104.828 229.853 108.589 242.514 112.254L261.374 93.9954L238.461 70.4741L238.461 70.4742L232.261 64.11C229.342 61.1133 231.268 56.0827 235.447 55.7871L255.063 54.4002L267.301 42.5532L269.918 21.8364C270.434 17.7493 275.464 16.0728 278.343 19.0282Z" fill="white"/>
<path fill-rule="evenodd" clip-rule="evenodd" d="M267.325 42.3599L269.918 21.8365C270.435 17.7494 275.464 16.0729 278.343 19.0283L284.779 25.6351L290.709 31.7223C286.087 36.5963 276.072 40.9722 267.325 42.3599ZM316.648 58.3509C311.923 65.7964 307.887 74.4789 309.124 79.9369C310.31 85.1688 318.071 82.6627 326.484 79.9462C329.305 79.0353 332.2 78.1007 334.944 77.4263C334.351 76.6238 333.696 75.8519 332.98 75.1169L329.368 71.4093C330.654 68.5734 332.15 66.4353 334.18 64.6485L328.337 48.0699C324.766 50.3104 320.343 53.7509 316.77 58.4767L316.648 58.3509ZM220.571 98.027C220.081 97.2341 219.605 96.3954 219.137 95.5061C208.716 78.3275 190.296 91.9425 196.432 104.642C197.795 107.464 200.318 111.909 204.062 116.586L220.571 98.027ZM242.727 112.047C244.08 113.862 245.316 116.269 246.589 118.747C250.772 126.893 255.349 135.807 265.79 126.966C271.471 122.156 275.928 111.227 271.31 103C266.693 94.7739 260.663 94.6855 260.663 94.6855L260.621 94.7248L242.727 112.047Z" fill="#827B79"/>
<path d="M285.382 72.449C288.777 75.934 288.256 78.131 286.567 79.7663C284.878 81.4017 281.988 81.1671 280.113 79.2423" stroke="#5A5351" stroke-width="2.47436" stroke-linecap="round"/>
<path d="M285.383 72.4489C288.777 75.934 290.996 75.4795 292.685 73.8442C294.374 72.2088 294.224 69.3228 292.349 67.3981" stroke="#5A5351" stroke-width="2.47436" stroke-linecap="round"/>
<ellipse cx="4.28158" cy="3.05827" rx="4.28158" ry="3.05827" transform="matrix(0.71439 -0.691577 0.693795 0.712211 278.08 71.0542)" fill="#5A5351"/>
<path d="M236.32 63.0488L240.647 67.4912C241.121 67.9779 241.901 67.9893 242.389 67.5168L249.074 61.0461C249.948 60.1995 249.19 58.7364 247.991 58.9572L236.98 60.9854C236.012 61.1636 235.634 62.345 236.32 63.0488Z" fill="#FFC0CB"/>
<path d="M276.971 22.85L281.299 27.2925C281.773 27.7791 281.761 28.5567 281.273 29.0293L274.589 35.4999C273.715 36.3465 272.27 35.5482 272.526 34.3603L274.883 23.4471C275.09 22.4881 276.285 22.1463 276.971 22.85Z" fill="#FFC0CB"/>
<path d="M296.9 49.9937C294.081 47.1007 289.452 47.0257 286.559 49.8262C283.666 52.6267 283.605 57.2422 286.423 60.1352" stroke="#8B8483" stroke-width="2.47436" stroke-linecap="round"/>
<path d="M273.304 72.8263C270.492 69.9392 265.864 69.8714 262.968 72.6749C260.072 75.4783 260.005 80.0914 262.817 82.9785" stroke="#5A5351" stroke-width="3.71154" stroke-linecap="round"/>
<line x1="1.23718" y1="-1.23718" x2="3.17334" y2="-1.23718" transform="matrix(-0.973571 -0.208949 -0.209588 0.970464 256.851 78.5967)" stroke="#5A5351" stroke-width="2.47436" stroke-linecap="round"/>
<path d="M257.689 73.7446L255.777 73.3343" stroke="#5A5351" stroke-width="2.47436" stroke-linecap="round"/>
<path d="M286.413 60.1346C283.6 57.2475 283.668 52.6344 286.564 49.831C289.46 47.0275 294.088 47.0953 296.9 49.9824" stroke="#5A5351" stroke-width="3.71154" stroke-linecap="round"/>
<line x1="1.23718" y1="-1.23718" x2="3.17352" y2="-1.23718" transform="matrix(-0.180963 -0.9762 0.97927 -0.1804 292.683 43.9092)" stroke="#5A5351" stroke-width="2.47436" stroke-linecap="round"/>
<line x1="1.23718" y1="-1.23718" x2="3.17352" y2="-1.23718" transform="matrix(-0.180963 -0.9762 0.97927 -0.1804 289.211 45.5757)" stroke="#5A5351" stroke-width="2.47436" stroke-linecap="round"/>
</svg>
